<svg width="79" height="40" viewBox="0 0 79 40" fill="none" xmlns="http://www.w3.org/2000/svg">
<path fill-rule="evenodd" clip-rule="evenodd" d="M36.676 0.0119987C36.5007 0.0260492 35.9128 0.0710103 35.3687 0.112459C34.8246 0.153206 33.9661 0.235402 33.4608 0.293712C32.9556 0.352724 32.049 0.478476 31.4469 0.574019C30.8442 0.66886 29.9538 0.826928 29.4684 0.925282C28.9822 1.02364 27.9492 1.26249 27.1719 1.45709C26.3946 1.65169 25.1227 2.01701 24.3454 2.26921C23.5681 2.52142 22.4551 2.90921 21.8722 3.13051C21.2892 3.35251 20.319 3.75014 19.717 4.01429C19.1142 4.27844 18.0811 4.7681 17.4204 5.1025C16.7597 5.4369 15.7895 5.95607 15.2652 6.25604C14.7402 6.55602 13.8343 7.1054 13.2513 7.47703C12.6684 7.84867 11.73 8.48094 11.1668 8.88138C10.6029 9.28182 9.81149 9.86702 9.4066 10.1818C9.00241 10.4965 8.20745 11.1456 7.64003 11.624C7.07332 12.1025 5.8127 13.2883 4.83897 14.2585C3.86595 15.2287 2.65904 16.5129 2.15733 17.1115C1.65563 17.7107 0.964548 18.5797 0.621128 19.0434C0.278415 19.5071 -0.00140792 19.9103 5.3298e-06 19.9391C0.000711955 19.9686 0.356144 20.4583 0.789306 21.028C1.22176 21.5985 1.91355 22.4591 2.32622 22.9417C2.73818 23.4244 3.50487 24.2758 4.02989 24.8343C4.5542 25.3928 5.50815 26.3321 6.14976 26.9215C6.79067 27.511 7.76087 28.3617 8.30497 28.812C8.84907 29.2623 9.72317 29.9522 10.2482 30.3442C10.7725 30.7369 11.7264 31.4086 12.3681 31.8378C13.009 32.267 14.011 32.9021 14.5939 33.2499C15.1769 33.5976 16.1308 34.1351 16.7138 34.4442C17.2968 34.7526 18.2189 35.212 18.763 35.4642C19.3071 35.7171 20.1812 36.1035 20.7062 36.3234C21.2306 36.5426 22.2163 36.9234 22.8968 37.1686C23.5766 37.4137 24.6259 37.7615 25.2286 37.9413C25.8307 38.1205 26.9599 38.4226 27.7372 38.6122C28.5145 38.8012 29.7546 39.0661 30.493 39.1996C31.2314 39.333 32.3599 39.5087 33.0015 39.5888C33.6424 39.6695 34.7398 39.7813 35.4394 39.8382C36.1389 39.8951 37.49 39.9618 38.4425 39.9864C39.4813 40.0138 40.838 39.999 41.8343 39.9492C42.7473 39.9035 43.9719 39.8199 44.5548 39.763C45.1378 39.7054 46.1709 39.5796 46.8514 39.4827C47.5312 39.3864 48.6441 39.196 49.3246 39.0605C50.0043 38.9242 51.0537 38.6902 51.6564 38.5399C52.2585 38.3889 53.276 38.1085 53.9176 37.9161C54.5585 37.7236 55.4807 37.4257 55.9668 37.2536C56.4523 37.0814 57.3426 36.7421 57.9454 36.4998C58.5474 36.2574 59.565 35.8162 60.2066 35.5197C60.8475 35.2233 61.8332 34.7336 62.3971 34.4315C62.9603 34.1294 63.9143 33.5899 64.517 33.233C65.119 32.8754 66.073 32.2755 66.6369 31.8989C67.2001 31.5231 68.154 30.8486 68.7568 30.4004C69.3588 29.9522 70.3127 29.2012 70.8766 28.7312C71.4398 28.262 72.362 27.4526 72.9258 26.9335C73.489 26.4143 74.385 25.5333 74.9164 24.9755C75.4485 24.4177 76.223 23.5663 76.6392 23.0829C77.0554 22.6003 77.7556 21.7306 78.1966 21.151C78.6368 20.5714 78.9986 20.074 79 20.0445C79.0014 20.0157 78.8375 19.7628 78.6347 19.4825C78.4326 19.2029 77.9655 18.5938 77.5973 18.1301C77.2292 17.6665 76.6406 16.9555 76.2894 16.5494C75.9375 16.1441 75.045 15.2006 74.3059 14.4531C73.566 13.7063 72.4997 12.6884 71.9366 12.1924C71.3727 11.6964 70.4505 10.9229 69.8874 10.474C69.3235 10.0251 68.3618 9.3043 67.7491 8.87154C67.1365 8.43879 66.1825 7.79668 65.6292 7.44542C65.0759 7.09416 64.1778 6.55181 63.6337 6.23989C63.0896 5.92867 62.1039 5.40177 61.4432 5.06948C60.7825 4.73648 59.765 4.25525 59.182 3.99953C58.599 3.74381 57.6451 3.35251 57.0621 3.13051C56.4791 2.90851 55.3662 2.52142 54.5889 2.26992C53.8116 2.01841 52.5397 1.6531 51.7624 1.4578C50.9851 1.26249 49.7768 0.992023 49.0772 0.856436C48.3777 0.720848 47.2167 0.529058 46.4981 0.430002C45.7787 0.330946 44.682 0.200276 44.0602 0.139859C43.2928 0.0653912 41.9757 0.0225368 39.9618 0.00778375C38.3295 -0.00415918 36.8505 -0.00205178 36.676 0.0119987ZM41.2514 3.767C40.8726 3.72626 40.0459 3.69745 39.4142 3.70237C38.7824 3.70729 38.0271 3.7382 37.7359 3.77192C37.4441 3.80494 36.8717 3.89486 36.464 3.97144C36.0563 4.04872 35.3723 4.211 34.9448 4.33324C34.5172 4.45477 33.8177 4.69434 33.3902 4.86575C32.9627 5.03717 32.2787 5.3512 31.8709 5.56477C31.4632 5.77764 31.0654 5.99682 30.9877 6.05162C30.9099 6.10571 30.8626 6.16613 30.8817 6.1851C30.9007 6.20477 31.4731 6.17035 32.1536 6.10852C32.9076 6.04108 33.7216 6.01157 34.2381 6.03405C34.7045 6.05443 35.2133 6.10922 35.3687 6.15629C35.5242 6.20336 35.739 6.33193 35.8457 6.44293C36.0287 6.63191 36.0379 6.67195 36.0026 7.11805C35.9708 7.52481 35.9884 7.6316 36.1262 7.87045C36.2153 8.0229 36.5255 8.33131 36.8173 8.55612C37.1084 8.78023 37.3713 9.01066 37.4003 9.06826C37.4292 9.12587 37.4243 9.22844 37.3883 9.29588C37.3529 9.36332 36.8201 9.71037 36.2047 10.0665C35.5892 10.4227 34.9271 10.7663 34.7328 10.8302C34.4593 10.9194 34.3434 10.9278 34.2205 10.8674C34.1328 10.8239 34.0615 10.7255 34.0615 10.6482C34.0615 10.571 34.1328 10.4424 34.2205 10.363C34.3081 10.2829 34.6925 10.0539 35.0755 9.85368C35.4578 9.65276 35.816 9.44201 35.8711 9.3837C35.9573 9.29237 35.9503 9.25935 35.8203 9.13781C35.7164 9.04016 35.5482 8.98958 35.2726 8.97272C34.9928 8.95516 34.5582 9.02189 33.8142 9.19612C33.128 9.35629 32.4058 9.47151 31.7649 9.52209C31.2208 9.56495 30.5693 9.64784 30.3164 9.70615C30.0634 9.76446 29.6663 9.91761 29.4331 10.0469C29.1999 10.1754 28.8897 10.4115 28.7441 10.5703C28.5986 10.729 28.4791 10.9061 28.4791 10.9644C28.4791 11.0227 28.5265 11.1646 28.5851 11.2805C28.6636 11.4372 28.8409 11.5622 29.2741 11.7674C29.5949 11.9198 30.0478 12.0926 30.281 12.153C30.5142 12.2128 30.8477 12.2626 31.023 12.2648C31.2618 12.2676 31.4116 12.2184 31.6236 12.0694C31.7791 11.9599 32.0335 11.7196 32.1889 11.5348C32.3444 11.3501 32.5592 11.1541 32.6659 11.0993C32.7726 11.0445 32.9393 10.9995 33.0369 10.9995C33.1337 10.9995 33.2849 11.036 33.3725 11.0803C33.4601 11.1246 33.5548 11.1955 33.5831 11.2384C33.6121 11.2805 33.6361 11.3318 33.6368 11.3508C33.6382 11.3697 33.4559 11.5187 33.2319 11.681C33.0079 11.8439 32.6659 12.1411 32.4716 12.342C32.2772 12.543 32.0151 12.7502 31.8886 12.8022C31.7621 12.8542 31.5318 12.8963 31.3763 12.8963C31.2208 12.8963 30.9269 12.8303 30.7227 12.7502C30.5185 12.6694 30.1454 12.5865 29.8924 12.5661C29.6394 12.5451 29.1942 12.5654 28.9031 12.6104C28.4728 12.6771 28.2742 12.7551 27.8481 13.0228C27.5598 13.204 27.162 13.4323 26.9648 13.5286L26.6066 13.7042C26.656 14.5234 26.6447 14.5585 26.4377 14.7405C26.3133 14.8493 26.1331 14.9344 26.0236 14.9351C25.9169 14.9365 25.7099 14.8887 25.5643 14.8297C25.4187 14.7714 25.1481 14.7229 24.9637 14.7236C24.7792 14.7236 24.5008 14.7594 24.3454 14.8037C24.1899 14.8479 23.9914 14.9582 23.9037 15.0496C23.7822 15.176 23.7447 15.2976 23.7447 15.5659C23.7447 15.7591 23.7921 16.0282 23.8507 16.1631C23.9094 16.298 24.0394 16.4483 24.1397 16.4968C24.3016 16.574 24.3673 16.5614 24.6874 16.3914C24.8881 16.2853 25.2901 16.1497 25.582 16.0907C25.8731 16.031 26.2709 15.9319 26.4652 15.8701C26.6596 15.8076 26.9613 15.686 27.1365 15.5982C27.3118 15.5111 27.5817 15.339 27.7372 15.2161C27.964 15.0369 28.0615 15.0011 28.2318 15.0362C28.3484 15.0601 28.5173 15.1493 28.607 15.235C28.6968 15.32 28.9236 15.6748 29.1109 16.0226C29.2981 16.3703 29.5348 16.7574 29.6366 16.8832C29.7383 17.0089 29.8691 17.1115 29.9277 17.1115C29.9864 17.1115 30.0337 17.056 30.0337 16.9885C30.0337 16.9211 29.9701 16.6998 29.8924 16.4968C29.8147 16.2937 29.7511 16.0331 29.7511 15.9172C29.7511 15.7767 29.7864 15.7064 29.857 15.7064C29.9157 15.7064 30.0507 15.7935 30.1581 15.8996C30.2655 16.0057 30.4534 16.2193 30.5757 16.3738C30.7969 16.652 30.8011 16.6541 31.0343 16.5579C31.1643 16.5038 31.3819 16.4455 31.5176 16.4279C31.6893 16.4054 31.8151 16.4356 31.9296 16.5256C32.0441 16.6148 32.1055 16.7518 32.1303 16.971C32.1592 17.226 32.1338 17.3349 31.9974 17.533C31.8964 17.6812 31.6547 17.8695 31.3911 18.0072C31.076 18.1709 30.8576 18.2355 30.6167 18.2362C30.4322 18.2362 30.0902 18.187 29.857 18.1273C29.6239 18.0676 28.9561 17.8273 28.3731 17.5934C27.7902 17.3595 26.9479 17.0763 26.5006 16.9646C26.0533 16.8522 25.5452 16.7405 25.37 16.716C25.141 16.6843 24.9184 16.7138 24.575 16.8213C24.2118 16.9351 24.0867 17.0089 24.0507 17.129C24.0246 17.2162 23.802 17.5477 23.5561 17.8667L23.1088 18.4463C23.0388 20.027 23.0544 20.818 23.101 21.3266C23.1448 21.81 23.2324 22.5048 23.2946 22.8722C23.3568 23.2396 23.5165 23.9351 23.6501 24.4177C23.7836 24.9011 23.9949 25.5474 24.1193 25.8551C24.3411 26.4045 24.3517 26.4164 24.6831 26.5225L25.0209 26.6307C25.8116 26.2239 26.184 26.0265 26.3593 25.9289C26.5345 25.8319 26.7804 25.7518 26.9069 25.7525C27.0906 25.7525 27.244 25.8481 27.6715 26.2267C28.0658 26.5766 28.2219 26.7656 28.265 26.9468C28.2975 27.0817 28.3428 27.2798 28.3661 27.3859C28.4014 27.5454 28.436 27.5714 28.5675 27.5362C28.6551 27.5124 28.8381 27.4772 28.9738 27.4583C29.1935 27.4266 29.2303 27.4449 29.3059 27.6241C29.3525 27.7344 29.4359 28.0779 29.491 28.387C29.5468 28.6961 29.6436 29.0516 29.7065 29.1773C29.7857 29.334 29.8719 29.4057 29.9807 29.405C30.1319 29.405 30.1425 29.4401 30.1969 30.1602C30.2287 30.5761 30.2959 31.1212 30.3474 31.3727C30.3983 31.6242 30.5029 31.9558 30.5799 32.1104C30.6569 32.2649 30.7721 32.4153 30.8364 32.4441C30.9 32.4729 31.1035 32.4975 31.288 32.4982C31.4724 32.4982 31.8144 32.4335 32.0476 32.3535C32.2808 32.2741 32.6277 32.123 32.8185 32.0191C33.0199 31.9088 33.2757 31.6826 33.429 31.4781C33.5739 31.2849 33.7718 30.9688 33.8686 30.7756C33.9661 30.5824 34.1441 30.1005 34.265 29.7042C34.4614 29.0621 34.5165 28.9596 34.7702 28.7558C35.0324 28.5451 35.0734 28.4636 35.2995 27.6845C35.5051 26.9777 35.5447 26.7283 35.5468 26.1389C35.5482 25.5825 35.5786 25.3711 35.6938 25.1203C35.7786 24.9362 36.0732 24.5765 36.399 24.2597C36.7799 23.8894 36.9933 23.6197 37.066 23.4166C37.1254 23.2522 37.1742 23.071 37.1749 23.0127C37.1749 22.9544 37.1028 22.816 37.0138 22.7043C36.9254 22.5919 36.6301 22.3748 36.358 22.2209C36.086 22.0671 35.71 21.7952 35.5221 21.6161C35.3348 21.4376 35.0585 21.0864 34.9087 20.8349C34.7596 20.5834 34.5858 20.204 34.5229 19.9918C34.4607 19.7797 34.4183 19.479 34.4296 19.3251C34.443 19.1446 34.4883 19.0364 34.5561 19.0216C34.6183 19.0076 35.0232 19.3834 35.5383 19.9342C36.0202 20.4492 36.5135 20.9416 36.6336 21.0288C36.7544 21.1159 36.9643 21.2051 37.1 21.2276C37.2688 21.2557 37.4822 21.217 37.7713 21.1074C38.0044 21.0196 38.3224 20.8489 38.4779 20.7295C38.6333 20.6093 38.8333 20.4021 38.9216 20.2693C39.01 20.1358 39.0806 19.9321 39.0785 19.8162C39.0764 19.7003 39.0142 19.5106 38.9407 19.3947C38.8672 19.2788 38.3351 18.7259 37.7578 18.1653C37.1812 17.6046 36.6223 17.0279 36.5156 16.8832C36.3983 16.723 36.3368 16.5649 36.358 16.4792C36.3816 16.3855 36.4522 16.3387 36.57 16.3387C36.6668 16.3387 36.8979 16.4392 37.0823 16.5628C37.2667 16.6857 37.5296 16.874 37.6653 16.9808C37.8009 17.0869 38.1832 17.3054 38.5132 17.4662C38.8432 17.6264 39.1887 17.8259 39.2799 17.9088C39.3703 17.9917 39.4855 18.1393 39.535 18.2355C39.5844 18.3325 39.6608 18.5692 39.7046 18.7624C39.7484 18.9556 39.8735 19.2401 39.9823 19.3947C40.0911 19.5492 40.2904 19.7438 40.4246 19.8274C40.5589 19.911 41.1454 20.1429 41.7284 20.3424C42.3608 20.5588 42.9593 20.8152 43.2123 20.9775C43.4455 21.1278 43.779 21.3941 43.9542 21.5704C44.1796 21.7973 44.3287 21.8901 44.4665 21.8894C44.5951 21.8886 44.711 21.8233 44.8085 21.6955C44.8891 21.5894 45.0693 21.2655 45.2078 20.9754C45.4516 20.4639 45.4579 20.4316 45.4134 19.8689C45.3738 19.3701 45.3844 19.2731 45.4911 19.1727C45.559 19.1081 45.718 19.0132 45.8444 18.9619C45.9709 18.9099 46.1532 18.8678 46.2508 18.8678C46.3476 18.8678 46.5228 18.9149 46.6394 18.9732C46.756 19.0315 46.9072 19.1516 46.975 19.2401C47.0429 19.3293 47.3531 20.048 47.664 20.8384L48.2293 22.275C49.1599 23.2052 49.6772 23.6393 49.9782 23.841C50.3789 24.1086 50.5923 24.207 50.7732 24.207C50.9851 24.207 51.0268 24.1789 51.0657 24.0138C51.101 23.8606 51.0106 23.6295 50.6318 22.9073C50.1648 22.0172 50.1534 21.9835 50.1874 21.5725C50.2064 21.3407 50.3018 20.9768 50.3986 20.7646C50.4962 20.5524 50.6679 20.2904 50.7802 20.1829C50.9159 20.0536 51.1159 19.963 51.3738 19.9131C51.5872 19.8717 51.9659 19.7382 52.2147 19.6167C52.4634 19.4944 52.7892 19.2921 52.939 19.1664C53.0888 19.0406 53.211 18.891 53.211 18.8327C53.211 18.7744 53.0987 18.5137 52.9623 18.2531C52.7574 17.8639 52.7128 17.7037 52.7135 17.3574C52.7135 17.122 52.7517 16.8972 52.7998 16.848C52.8471 16.7996 52.951 16.7616 53.0308 16.763C53.1128 16.7651 53.353 16.9492 53.582 17.1845C53.8576 17.4684 54.0625 17.6173 54.218 17.6461C54.3444 17.67 54.567 17.67 54.7126 17.6461C54.8582 17.6229 55.0751 17.5161 55.1938 17.41C55.3132 17.304 55.4447 17.1059 55.4863 16.971C55.528 16.8361 55.5464 16.5354 55.5266 16.3036C55.5075 16.0717 55.3429 15.4395 55.1613 14.8985C54.9804 14.3576 54.5974 13.4408 54.3112 12.8612C54.0243 12.2816 53.5672 11.4751 53.2944 11.0698C53.0216 10.6644 52.5927 10.0792 52.3412 9.77009C52.0896 9.46097 51.4748 8.81184 50.9752 8.3271C50.4757 7.84235 49.7648 7.22132 49.3952 6.94733C49.0257 6.67265 48.3897 6.24902 47.982 6.00665C47.5743 5.76358 46.8747 5.39616 46.4274 5.19032C45.9801 4.98378 45.1852 4.67537 44.6608 4.50395C44.1365 4.33324 43.3091 4.11405 42.8236 4.0171C42.3375 3.92085 41.6301 3.80775 41.2514 3.767ZM28.6819 8.34677C28.6289 8.29829 28.4579 8.24279 28.3025 8.22383C28.14 8.20345 27.8997 8.23225 27.7372 8.29127C27.5817 8.34817 27.381 8.48306 27.292 8.59054C27.2023 8.69803 26.9401 9.03173 26.709 9.33101C26.478 9.63028 26.2886 9.90708 26.2886 9.94572C26.2886 9.98436 26.3762 10.0806 26.4829 10.1586C26.5896 10.2373 26.7804 10.3005 26.9069 10.2991C27.0334 10.2984 27.2878 10.2401 27.4722 10.1705C27.6566 10.1017 27.9591 9.94361 28.1435 9.81926C28.3279 9.69561 28.5265 9.49961 28.5851 9.3837C28.6438 9.26778 28.7109 9.00714 28.7349 8.80411C28.7667 8.53575 28.7526 8.4114 28.6819 8.34677ZM27.5252 11.0346C27.3895 10.9763 27.1584 10.9335 27.0129 10.9391C26.8673 10.944 26.6779 10.9651 26.5917 10.9854C26.5062 11.0058 26.3154 11.0536 26.1678 11.0915C26.0208 11.1288 25.8123 11.2187 25.7056 11.2904C25.5989 11.362 25.3481 11.7133 25.1481 12.0709C24.9481 12.4284 24.6655 12.9898 24.5199 13.3178C24.2648 13.8911 24.2599 13.9178 24.3913 13.9852C24.4952 14.0386 24.6054 14.0169 24.8435 13.8974C25.0167 13.8103 25.5318 13.3825 25.9883 12.9469C26.4448 12.5106 26.9776 12.0638 27.1719 11.9535C27.3662 11.8439 27.6114 11.6711 27.7167 11.57C27.8651 11.428 27.8933 11.3578 27.8403 11.263C27.8029 11.1955 27.6609 11.0929 27.5252 11.0346ZM55.2602 18.1301C55.1627 18.0824 54.9663 18.0219 54.8228 17.996C54.6582 17.9657 54.56 17.9756 54.5578 18.0212C54.555 18.062 54.6327 18.2608 54.7295 18.4638C54.8264 18.6669 54.9055 18.872 54.9062 18.9205C54.9069 18.969 54.8299 19.1109 54.7359 19.2366C54.6419 19.3624 54.507 19.6068 54.4356 19.7811C54.348 19.9953 54.3077 20.2672 54.3098 20.6241C54.3126 20.9353 54.3663 21.3091 54.4427 21.5374C54.5133 21.7495 54.678 22.1289 54.808 22.3804C54.9387 22.6319 55.1867 22.979 55.3592 23.1532L55.6722 23.4693C55.7902 22.7612 55.8594 22.287 55.9025 21.9589C55.9457 21.6308 55.9859 20.8714 55.9916 20.2728C55.9994 19.4734 55.9746 19.1095 55.899 18.9029C55.8425 18.7484 55.7153 18.5306 55.6164 18.4196C55.5181 18.3079 55.357 18.1779 55.2602 18.1301ZM51.4897 21.5535C51.3674 21.4664 51.2141 21.3948 51.1491 21.3955C51.0841 21.3962 50.9781 21.4468 50.9145 21.5072C50.8509 21.5683 50.8007 21.6786 50.8035 21.7531C50.8064 21.8275 50.8643 22.0039 50.9321 22.1451C51 22.2863 51.1194 22.445 51.1971 22.497C51.2749 22.5497 51.4812 22.5933 51.6564 22.5947C51.8607 22.5968 52.0062 22.5589 52.0627 22.4886C52.1306 22.4057 52.132 22.3439 52.0698 22.2223C52.0253 22.1352 51.9264 21.9856 51.8501 21.8886C51.7737 21.7924 51.6119 21.6414 51.4897 21.5535ZM43.4419 21.6336C43.3352 21.5809 43.1536 21.5374 43.0384 21.5374C42.9014 21.5374 42.7402 21.6168 42.5735 21.7657C42.3848 21.9343 42.324 22.0404 42.341 22.1697C42.358 22.2968 42.4519 22.3888 42.6823 22.5041C42.8971 22.6108 43.1261 22.6628 43.3889 22.6628C43.6179 22.6628 43.8426 22.6193 43.9366 22.5568C44.0242 22.4984 44.0955 22.4036 44.0955 22.3453C44.0955 22.287 43.9924 22.1254 43.8659 21.9849C43.7394 21.8451 43.5486 21.687 43.4419 21.6336ZM52.4867 23.2136C52.3412 23.142 52.1433 23.0829 52.0479 23.0829C51.9511 23.0829 51.7603 23.1841 51.6183 23.3113C51.4296 23.4799 51.3688 23.5859 51.3858 23.7152C51.4035 23.8466 51.4974 23.9337 51.7624 24.0609C51.9674 24.1592 52.2493 24.2323 52.4337 24.2344C52.6189 24.2372 52.833 24.188 52.946 24.1171C53.0527 24.051 53.1404 23.9492 53.1404 23.8908C53.1404 23.8325 53.0527 23.6864 52.946 23.5649C52.8393 23.444 52.6323 23.286 52.4867 23.2136ZM54.6243 24.8027C54.4561 24.4683 54.3317 24.3067 54.2356 24.2941C54.1579 24.2836 53.8081 24.4501 53.4583 24.6636C53.1086 24.8779 52.6471 25.1182 52.4337 25.1982C52.2203 25.2783 51.5681 25.4519 50.9851 25.5846C50.4022 25.7174 49.7026 25.8923 49.4306 25.9738C49.1585 26.0553 48.7932 26.1846 48.6179 26.2605C48.4427 26.337 48.1092 26.5822 47.876 26.8056C47.6266 27.0445 47.3566 27.3957 47.2195 27.6592C47.0923 27.9051 46.9517 28.3111 46.9079 28.5626C46.833 28.9919 46.8415 29.0635 47.0492 29.7569C47.1715 30.163 47.3086 30.6527 47.3538 30.8458C47.3997 31.039 47.4803 31.2842 47.5333 31.3903C47.6167 31.5589 47.6619 31.58 47.8937 31.5561C48.0392 31.5406 48.3812 31.3987 48.6533 31.2393C48.9253 31.0805 49.1875 30.9505 49.2362 30.9512C49.2951 30.9508 49.3187 31.047 49.3069 31.24C49.2951 31.4329 49.3246 31.5538 49.3952 31.6025C49.4744 31.658 49.5592 31.6383 49.7309 31.5245C49.8574 31.4409 50.0482 31.3734 50.1549 31.3741C50.2616 31.3748 50.4919 31.4395 50.6672 31.5168C50.8424 31.594 51.0325 31.6573 51.0911 31.6566C51.1498 31.6559 51.4678 31.3517 51.7978 30.9807C52.1278 30.6098 52.568 30.0794 52.775 29.8033C52.9828 29.5265 53.3297 29.0158 53.5474 28.668C53.7643 28.3203 54.1515 27.6086 54.4073 27.0873C54.8221 26.2394 54.8716 26.094 54.8716 25.716C54.8716 25.3725 54.8249 25.2004 54.6243 24.8027ZM37.5593 24.4529C37.5006 24.3946 37.3974 24.3475 37.3296 24.3482C37.2618 24.3482 37.0773 24.4248 36.9205 24.5168C36.7636 24.6095 36.565 24.7831 36.4788 24.9025C36.3933 25.0226 36.276 25.3022 36.2188 25.5242C36.1616 25.7462 36.0655 26.2127 36.0061 26.5604C35.946 26.9082 35.898 27.4618 35.8994 27.7899C35.9001 28.1179 35.9291 28.4341 35.9644 28.4924C36.004 28.5584 36.0697 28.5781 36.1397 28.5451C36.2018 28.5163 36.3283 28.342 36.4209 28.1587C36.5142 27.9753 36.7198 27.414 36.8781 26.9117C37.0364 26.4094 37.2787 25.7849 37.4158 25.5242C37.5628 25.2446 37.6653 24.9496 37.6653 24.8041C37.6653 24.6692 37.6179 24.5112 37.5593 24.4529ZM48.459 32.7799C48.177 32.7427 47.8993 32.7146 47.8407 32.7174C47.782 32.7209 47.5757 32.7532 47.3814 32.7904C47.187 32.827 46.8373 32.9471 46.6041 33.056C46.3709 33.1656 45.9292 33.4557 45.6226 33.7016C45.3166 33.9468 44.9668 34.2194 44.8453 34.3065C44.7237 34.3943 44.5231 34.4646 44.3959 34.4646C44.2694 34.4639 43.3953 34.2137 42.4526 33.9074C41.51 33.6011 40.4048 33.2815 39.9971 33.1958C39.4672 33.0855 39.0128 33.0412 38.4072 33.0419C37.6956 33.0426 37.4568 33.0735 36.9233 33.2309C36.5735 33.3342 36.1446 33.5 35.9694 33.599C35.7941 33.6981 35.498 33.925 35.3101 34.1042C35.1221 34.2826 34.8918 34.5791 34.7978 34.7624C34.7038 34.9458 34.6268 35.1594 34.6268 35.2366C34.6268 35.3139 34.6741 35.472 34.7328 35.5879C34.8303 35.7818 34.9002 35.8127 35.5984 35.9722C36.016 36.0677 36.6597 36.197 37.0293 36.2595C37.4003 36.3227 38.3168 36.3909 39.0785 36.4112C39.9448 36.4351 40.732 36.4176 41.1984 36.3649C41.6061 36.3185 42.2583 36.2202 42.647 36.1464C43.0356 36.0726 43.7034 35.9125 44.1309 35.7909C44.5584 35.6694 45.2424 35.4354 45.6501 35.2725C46.0578 35.1088 46.6302 34.8559 46.922 34.7097C47.2132 34.5643 47.7227 34.2812 48.0526 34.0817C48.3826 33.8829 48.8441 33.5815 49.0773 33.4136L49.5012 33.108C49.0907 32.9063 48.7409 32.8171 48.459 32.7799Z" fill="white"/>
</svg>
