<svg width="41" height="40" viewBox="0 0 41 40" fill="none" xmlns="http://www.w3.org/2000/svg">
<path d="M10.4231 0.202612C10.6279 0.148093 11.0178 0.0737477 11.2904 0.0374012C11.563 0.00105474 12.0281 -0.0105098 12.323 0.0117937C12.6187 0.0340972 13.102 0.106789 13.3969 0.1737C13.6926 0.24061 14.194 0.417387 14.5121 0.566903C14.8301 0.71642 15.3299 1.02041 15.6214 1.24344C15.9139 1.46565 16.3327 1.87125 16.5516 2.14384C16.7713 2.41644 17.077 2.88069 17.2314 3.17641C17.3859 3.47132 17.5982 3.99173 17.7023 4.33289C17.8584 4.83927 17.8923 5.13252 17.8881 5.9437C17.8832 6.75985 17.846 7.05144 17.6758 7.59581C17.5619 7.95928 17.4446 8.31201 17.414 8.38057C17.3719 8.47639 17.4941 8.54578 17.96 8.69034C18.2896 8.79277 18.848 9.04389 19.1999 9.24793C19.5526 9.45196 20.0871 9.85177 20.3894 10.1359C20.6918 10.4193 21.1205 10.9124 21.3427 11.2305C21.5641 11.5485 21.8606 12.0871 22.0011 12.4282C22.1407 12.7686 22.3059 13.289 22.3678 13.5847C22.4298 13.8796 22.481 14.5116 22.4818 14.989C22.4827 15.5763 22.429 16.0827 22.315 16.5585C22.2233 16.9443 22.0019 17.5581 21.8243 17.9215C21.6459 18.285 21.2824 18.8426 21.0172 19.1606C20.7513 19.4786 20.3126 19.9189 20.0425 20.1403C19.7724 20.3609 19.2164 20.7045 18.8075 20.9028C18.3986 21.1018 17.8229 21.3298 17.5272 21.41C17.0398 21.5421 16.4979 21.5562 11.6622 21.5562C6.724 21.5562 6.29775 21.5446 5.83846 21.4042C5.56587 21.3207 5.10162 21.1266 4.80589 20.9738C4.51099 20.8201 4.08062 20.517 3.85097 20.2997C3.6205 20.0817 3.29586 19.6992 3.12817 19.4497C2.96131 19.1994 2.73249 18.7352 2.62015 18.4172C2.50698 18.0991 2.39133 17.5597 2.36242 17.2194C2.33351 16.8782 2.34755 16.395 2.39464 16.1455C2.44172 15.8952 2.56398 15.4681 2.66724 15.1955C2.77049 14.9229 3.01831 14.4579 3.5792 13.626L3.38756 13.5071C3.28182 13.4418 2.95388 13.1444 2.65815 12.8462C2.35994 12.5455 2.02209 12.102 1.89983 11.85C1.77757 11.5997 1.62062 11.1536 1.55041 10.8587C1.47937 10.563 1.42154 10.1079 1.42072 9.84682C1.41989 9.58496 1.46037 9.17606 1.50993 8.93816C1.55949 8.69943 1.72305 8.24427 1.87257 7.92624C2.04521 7.55947 2.32112 7.16544 2.62841 6.84906C2.8944 6.57481 3.29834 6.24108 3.52551 6.10809C3.75267 5.97592 4.1244 5.79749 4.35156 5.71158C4.57873 5.6265 5.05949 5.53233 6.07554 5.44807L6.17549 4.86983C6.23001 4.5518 6.35227 4.08673 6.44727 3.83726C6.54144 3.58696 6.75373 3.15989 6.91812 2.88729C7.0825 2.6147 7.37162 2.20993 7.56079 1.98772C7.74913 1.76551 8.12664 1.41609 8.39924 1.21123C8.67184 1.00636 9.15508 0.717246 9.47311 0.569382C9.79114 0.421517 10.219 0.256306 10.4231 0.202612Z" fill="white"/>
<path d="M30.5574 0.33065C30.7284 0.241436 31.0728 0.123311 31.3223 0.0679649C31.5726 0.0117931 31.9443 -0.0146408 32.1483 0.00848874C32.3532 0.0316183 32.6878 0.101833 32.8918 0.163788C33.0967 0.226568 33.4866 0.438864 33.7592 0.636292C34.0318 0.833719 34.3481 1.11293 34.6678 1.51852L35.1222 1.38635C35.4369 1.29548 35.7929 1.26575 36.2786 1.28888C36.8189 1.31448 37.0857 1.37313 37.4351 1.54C37.711 1.67217 38.0761 1.95468 38.3644 2.26032C38.6263 2.53705 38.8617 2.84682 38.889 2.94925C38.9171 3.05085 38.8981 3.21854 38.8477 3.32097C38.7857 3.44819 38.6858 3.50518 38.5296 3.50353C38.3975 3.50105 38.191 3.3978 38.034 3.25571C37.8837 3.11859 37.5574 2.95173 37.2906 2.87656C36.9543 2.78156 36.6107 2.75347 36.1134 2.77991C35.6161 2.80634 35.2494 2.88151 34.8537 3.03846C34.5472 3.15989 34.2317 3.24167 34.1515 3.22102C34.0722 3.19954 33.8905 3.0046 33.7476 2.78734C33.6047 2.56926 33.3073 2.22562 33.0868 2.02407C32.8662 1.82168 32.4441 1.5433 32.1483 1.40452C31.7254 1.2071 31.4892 1.15093 31.0332 1.14266C30.7151 1.13606 30.4087 1.12614 30.3517 1.12119C30.2955 1.1154 30.2302 1.0551 30.2071 0.987366C30.1848 0.918803 30.184 0.7792 30.2063 0.677595C30.2302 0.569381 30.3773 0.423994 30.5574 0.33065Z" fill="white"/>
<path d="M28.6376 5.17217C28.9102 5.03339 29.3381 4.86405 29.5876 4.79714C29.8379 4.7294 30.2649 4.67158 30.5375 4.6691C30.8101 4.66662 31.219 4.71453 31.4462 4.77566C31.6734 4.83596 32.055 4.98465 32.2929 5.10526C32.5316 5.22503 32.8571 5.43568 33.0157 5.57198C33.2032 5.73223 33.3048 5.89249 33.3048 6.02631C33.3048 6.13948 33.2404 6.29147 33.1603 6.36416C33.081 6.43686 32.9604 6.47651 32.8918 6.45255C32.8241 6.4286 32.601 6.34682 32.3962 6.27082C32.1128 6.16508 31.8584 6.14278 31.3223 6.17582C30.9076 6.20143 30.4004 6.2956 30.0832 6.40712C29.7883 6.51038 29.2861 6.77141 28.968 6.98536C28.65 7.20014 28.2601 7.5099 28.1007 7.67346C27.9363 7.84281 27.7323 7.97002 27.6257 7.96919C27.5241 7.96837 27.3382 7.87915 27.2127 7.77176C27.0879 7.66438 26.7996 7.46282 26.5725 7.32322C26.3453 7.18444 25.872 6.97462 25.5192 6.85815C25.0534 6.70285 24.694 6.64337 24.1976 6.63842C23.8234 6.63511 23.3492 6.67559 23.1443 6.72846C22.9403 6.78215 22.652 6.89697 22.5041 6.98371C22.3026 7.10183 22.1952 7.12083 22.0705 7.05888C21.9523 6.9994 21.9053 6.89367 21.9053 6.68715C21.9053 6.45338 21.9738 6.3336 22.2563 6.06678C22.4496 5.88505 22.8494 5.6075 23.1443 5.45137C23.4921 5.26716 23.9002 5.13169 24.3008 5.06808C24.8229 4.98548 25.0244 4.99126 25.5812 5.1036C25.9521 5.17795 26.5328 5.37951 27.5637 5.88753L27.8529 5.65623C28.0123 5.52902 28.365 5.31177 28.6376 5.17217Z" fill="white"/>
<path d="M27.8529 15.4739C28.1032 15.3806 28.4559 15.2724 28.6376 15.2327C28.8193 15.1939 29.2654 15.1749 29.6289 15.1922C30.0626 15.2129 30.5318 15.3037 30.9919 15.4566C31.3785 15.5846 31.9732 15.863 32.9331 16.4577L33.3048 16.2025C33.5097 16.0621 33.9368 15.8283 34.2548 15.6829C34.5728 15.5383 35.1304 15.3541 35.4939 15.2757C35.9499 15.1757 36.3216 15.1468 36.6917 15.1815C36.9874 15.2087 37.4706 15.3054 37.7655 15.3954C38.0613 15.4855 38.5255 15.7052 38.7981 15.8845C39.0707 16.0629 39.4152 16.3247 39.5622 16.466C39.7101 16.6081 39.8307 16.7981 39.8307 16.8889C39.8307 16.9798 39.7935 17.1285 39.7481 17.2194C39.7026 17.3102 39.5911 17.3846 39.5003 17.3846C39.4094 17.3846 39.1963 17.3111 39.0253 17.221C38.8551 17.131 38.4925 17.0153 38.2199 16.9641C37.9456 16.9121 37.4483 16.8923 37.1047 16.9195C36.7644 16.9459 36.2249 17.0475 35.9069 17.1442C35.5889 17.2408 35.1428 17.4135 34.9156 17.5275C34.6885 17.6415 34.2796 17.8926 34.007 18.0867C33.7344 18.28 33.437 18.5188 33.3461 18.6162C33.2528 18.717 33.0826 18.793 32.9538 18.7914C32.8034 18.7897 32.5382 18.6344 32.169 18.3329C31.8625 18.0826 31.314 17.7299 30.9506 17.549C30.5871 17.3672 30.0667 17.1632 29.7941 17.0938C29.5215 17.0244 29.0382 16.9443 28.7202 16.9154C28.3749 16.8848 27.9264 16.9046 27.605 16.9658C27.3101 17.0228 26.9384 17.1425 26.779 17.2334C26.6204 17.3243 26.4163 17.3862 26.3271 17.3705C26.2371 17.3557 26.1256 17.2425 26.0793 17.1202C26.0182 16.9592 26.0231 16.8394 26.0975 16.6866C26.1545 16.5709 26.4709 16.2884 26.7996 16.0596C27.1292 15.8299 27.6034 15.5664 27.8529 15.4739Z" fill="white"/>
<path d="M11.0707 26.4431C11.0624 24.7018 11.0872 23.2521 11.1252 23.2215C11.1632 23.1918 11.7547 23.1653 12.4403 23.1628C13.3564 23.1604 13.7133 23.1876 13.7876 23.2661C13.8644 23.3479 13.8843 24.1169 13.8512 29.5689L11.0839 29.6102L11.0707 26.4431Z" fill="white"/>
<path d="M0.00155249 33.7124C-0.00670807 32.9706 0.0188995 32.3387 0.0568981 32.3081C0.0940706 32.2775 9.27321 32.2627 40.7806 32.2949V35.0209L0.0147697 35.0622L0.00155249 33.7124Z" fill="white"/>
<path d="M0.0412028 38.6588C0.0329423 37.9336 0.0412029 37.2925 0.0593762 37.2339C0.0874621 37.1463 3.8675 37.1306 40.7806 37.1686L40.8013 38.5523C40.8219 39.9268 40.8211 39.9359 40.6361 39.9789C40.5345 40.0028 31.3619 40.0119 0.0560725 39.9772L0.0412028 38.6588Z" fill="white"/>
</svg>
