<svg width="43" height="40" viewBox="0 0 43 40" fill="none" xmlns="http://www.w3.org/2000/svg">
<path d="M0.372831 30.9941C0.261137 31.0882 0.131848 31.2435 0.0859464 31.3376C0.0354547 31.4416 0.00179272 32.0345 0.000262667 32.8294C-0.00203241 34.0841 0.00714856 34.1628 0.175454 34.4168C0.273378 34.5645 0.437858 34.7274 0.541137 34.7795C0.644415 34.8315 0.93589 34.8743 1.18835 34.8743C1.49589 34.8751 1.72234 34.83 1.87687 34.7374C2.0031 34.6616 2.16682 34.4719 2.24026 34.3166C2.34966 34.0856 2.37414 33.8194 2.37414 32.8485C2.37414 32.0414 2.34201 31.5839 2.27316 31.4141C2.21731 31.2779 2.07119 31.0874 1.94802 30.9911C1.75906 30.8434 1.63359 30.8166 1.1501 30.8189C0.66966 30.822 0.543432 30.8503 0.372831 30.9941Z" fill="white"/>
<path d="M37.8331 7.22322C37.6648 7.28442 37.3458 7.4466 37.1239 7.58354C36.9028 7.72048 36.7223 7.85819 36.7223 7.88955C36.7231 7.92169 36.8959 8.11906 37.1063 8.32944C37.3167 8.53983 37.687 8.803 37.9287 8.91393C38.2814 9.07611 38.452 9.10977 38.7894 9.08452C39.0526 9.0654 39.3961 8.96289 39.7074 8.81218C39.9805 8.67906 40.2651 8.49928 40.3386 8.41207C40.4686 8.25753 40.4625 8.243 40.0899 7.87043C39.8796 7.66005 39.5269 7.40223 39.3058 7.29742C39.0396 7.1712 38.7748 7.1077 38.5216 7.10999C38.3112 7.11152 38.0014 7.16201 37.8331 7.22322Z" fill="white"/>
<path fill-rule="evenodd" clip-rule="evenodd" d="M38.8016 3.83492C38.6785 4.01393 38.071 4.69404 37.4514 5.34584C36.8317 5.99841 36.1523 6.77262 35.942 7.06715C35.7308 7.36169 35.4248 7.87808 35.2626 8.21469C35.0997 8.5513 34.9482 8.956 34.9268 9.1136C34.9053 9.27196 34.8449 9.40048 34.7921 9.40048C34.7393 9.39972 34.3691 9.05775 33.9697 8.64004C33.4564 8.103 33.1305 7.82912 32.8604 7.70824C32.5873 7.58584 32.3356 7.53765 31.9807 7.53918C31.628 7.54071 31.3273 7.60191 30.9479 7.74879C30.6533 7.86278 30.0849 8.17567 29.6856 8.4442C29.2855 8.71272 28.6077 9.23524 28.1785 9.60627C27.7485 9.97731 27.1227 10.5212 26.7869 10.8158C26.4503 11.1103 25.9063 11.5158 25.5781 11.7162C25.2492 11.9159 24.6877 12.1814 24.3304 12.3061C23.9724 12.43 23.3871 12.5646 23.0298 12.6052C22.6343 12.6495 22.1394 12.6518 21.7676 12.6105C21.4309 12.573 20.9146 12.4682 20.62 12.378C20.3255 12.2877 19.7915 12.0658 19.4342 11.8853C19.0762 11.7047 18.5346 11.3819 18.2293 11.1677C17.9241 10.9535 17.2187 10.3369 16.661 9.7983C16.1033 9.25895 15.4064 8.61327 15.1118 8.36234C14.8173 8.11141 14.2489 7.67764 13.8495 7.39841C13.4494 7.11994 12.7609 6.70223 12.3195 6.47043C11.8773 6.23863 11.1804 5.92497 10.7703 5.77426C10.3602 5.62278 9.74058 5.43306 9.39326 5.35273C9.04593 5.2724 8.45227 5.16912 8.07359 5.12322C7.6949 5.07808 6.95435 5.04289 6.42878 5.04595C5.90244 5.04901 5.32025 5.07502 5.13359 5.10333L4.79468 5.15459C5.55741 5.64191 5.90473 5.93415 6.05927 6.11928C6.21381 6.30442 6.46397 6.66169 6.61621 6.91415C6.76768 7.16661 6.99796 7.64857 7.12725 7.98518C7.25654 8.32179 7.47533 8.99349 7.61457 9.47698C7.75304 9.96125 8.02845 11.0797 8.22659 11.9633C8.4255 12.8469 8.70779 13.9141 8.85544 14.3349C9.00233 14.7557 9.27085 15.3929 9.4514 15.7502C9.63194 16.1082 9.91194 16.5948 10.0741 16.8319C10.2363 17.0699 10.5408 17.4493 10.7512 17.6758C10.9616 17.9022 11.3227 18.2434 11.5545 18.4331C11.7855 18.6229 12.1986 18.9029 12.4725 19.0551C12.7456 19.2074 13.2276 19.4223 13.5435 19.5325C13.8587 19.6427 14.3338 19.775 14.5985 19.8263C14.8632 19.8775 15.0743 19.954 15.0675 19.9961C15.0606 20.0382 14.8433 20.1315 14.5855 20.2027C14.3284 20.2738 13.8587 20.4612 13.5435 20.6188C13.2276 20.7764 12.4358 21.2645 11.784 21.7036C11.1314 22.1428 10.4 22.601 10.1583 22.7219C9.91653 22.8428 9.46899 23.0141 9.16375 23.1021C8.74222 23.2245 8.31457 23.2719 7.38506 23.3002C6.71184 23.3209 5.96364 23.3087 5.72189 23.2735C5.48091 23.2383 5.28277 23.2352 5.282 23.2666C5.28124 23.2987 5.63392 23.5091 6.06539 23.734C6.49687 23.9597 7.41719 24.4983 8.11184 24.9305C8.80572 25.3628 9.66637 25.8814 10.0244 26.0819C10.3817 26.2831 10.9669 26.5684 11.3249 26.7169C11.6822 26.8653 12.3707 27.0887 12.855 27.2141C13.3385 27.3388 14.079 27.4949 14.4998 27.5599C14.9206 27.6249 15.4285 27.6968 15.6282 27.7198L15.9916 27.7611L15.9924 31.7775C13.5313 31.6888 11.0266 31.6283 8.83861 31.5855C6.65064 31.5434 4.45578 31.4998 3.96157 31.4898L3.06266 31.4715V34.2638C5.28583 34.2019 7.65282 34.1491 9.75664 34.107C11.8605 34.0649 16.508 33.9624 20.0845 33.879L26.5872 33.7268C29.8478 34.0841 30.9066 34.2049 31.0435 34.2263L31.2921 34.2638C31.2921 36.6125 31.296 36.6392 31.4834 36.8267L31.6746 37.0179L39.3632 37.0218L39.7044 36.6737L39.7074 29.0617L39.3249 28.6791C33.4549 28.6791 31.6945 28.7052 31.6257 28.7365C31.5561 28.7686 31.4528 28.8888 31.3962 29.0043C31.3227 29.1527 31.2921 29.5467 31.2921 30.3431V31.4715C26.6324 31.9772 26.5421 31.981 24.2156 31.9351C22.9113 31.9098 21.3881 31.8724 20.8304 31.8525L19.8167 31.8157L19.855 27.6594C21.0408 27.4589 21.6949 27.3228 22.0736 27.2271C22.4523 27.1315 23.1064 26.9341 23.5271 26.788C23.9479 26.6419 24.6532 26.3512 25.0954 26.1423C25.5368 25.9342 26.1741 25.58 26.5107 25.3559C26.8473 25.1317 27.3958 24.6949 27.7294 24.385C28.063 24.0752 28.5396 23.5458 28.789 23.2092C29.0384 22.8726 29.3727 22.3218 29.5326 21.9852C29.6917 21.6485 29.8937 21.1322 29.9801 20.8376C30.0673 20.5431 30.1913 19.9923 30.2571 19.6136C30.3343 19.1653 30.3756 18.4462 30.3756 17.548C30.3756 16.7906 30.4085 15.8787 30.4498 15.5207C30.4911 15.1634 30.5784 14.6639 30.6434 14.4114C30.7084 14.1589 30.8844 13.6946 31.0343 13.3786C31.224 12.9808 31.452 12.6618 31.7779 12.3382C32.0365 12.0811 32.455 11.7667 32.7074 11.6389C32.9599 11.512 33.4074 11.3383 33.702 11.2534C33.9965 11.1685 34.3323 11.0874 34.4494 11.0721C34.6116 11.0522 34.669 11.0812 34.6934 11.1983C34.7103 11.2824 34.7432 11.5923 34.7661 11.8868C34.7883 12.1814 34.9115 12.8354 35.04 13.3404C35.1678 13.8453 35.2978 14.2875 35.3284 14.3234C35.3598 14.3586 35.4799 14.367 35.5954 14.3426C35.8035 14.2974 35.8043 14.2936 35.7017 14.0098C35.6444 13.8522 35.5243 13.413 35.4347 13.0344C35.3452 12.6557 35.242 12.0536 35.2045 11.6956C35.1678 11.3383 35.1586 11.0216 35.1846 10.9933C35.2106 10.9642 35.5074 10.9252 35.844 10.9053C36.1806 10.8862 36.4729 10.8517 36.4943 10.8288C36.515 10.8066 36.3918 10.6911 36.2197 10.5725C36.0475 10.4539 35.7645 10.2535 35.59 10.1273C35.3674 9.96584 35.2726 9.84114 35.2703 9.70649C35.2687 9.60168 35.3322 9.32627 35.411 9.09447C35.4898 8.86343 35.6589 8.46715 35.7867 8.21469C35.9137 7.96223 36.173 7.54912 36.362 7.29666C36.5517 7.0442 37.1798 6.33885 37.7589 5.72836C38.3373 5.11863 38.9424 4.44694 39.1038 4.23656C39.2652 4.02617 39.3984 3.8112 39.3991 3.75841C39.4006 3.70639 39.3326 3.62836 39.2484 3.58628C39.1643 3.54421 39.0793 3.50978 39.0602 3.50978C39.0411 3.50978 38.9248 3.65667 38.8016 3.83492ZM17.1384 27.8376L17.6548 27.8147C17.9386 27.8017 18.2836 27.7841 18.67 27.7611L18.6302 31.7775L18.2859 31.8028C18.0962 31.8165 17.7611 31.8073 17.1384 31.7393V27.8376Z" fill="white"/>
<path d="M31.3304 25.7743C31.2042 25.8118 31.0167 25.9212 30.915 26.0176C30.8125 26.114 30.6801 26.3137 30.6212 26.4606C30.5531 26.6304 30.5325 26.827 30.5661 26.9961C30.5952 27.1437 30.6839 27.3587 30.7643 27.4742C30.8438 27.5905 31.0129 27.7366 31.1391 27.7994C31.3342 27.8973 31.9822 27.9141 35.5189 27.9141C39.5322 27.9141 39.6776 27.9088 39.9178 27.7611C40.0547 27.677 40.2353 27.4964 40.3187 27.3595C40.4044 27.2202 40.4717 26.977 40.4717 26.8048C40.4717 26.6335 40.4044 26.3902 40.3187 26.2502C40.2353 26.114 40.0731 25.9419 39.9591 25.8677C39.7694 25.7453 39.4136 25.733 35.6558 25.7208C33.4028 25.7131 31.4566 25.7376 31.3304 25.7743Z" fill="white"/>
<path d="M31.1659 37.9138C31.0328 37.9842 30.8522 38.1471 30.7643 38.2756C30.6763 38.4049 30.583 38.613 30.5569 38.7392C30.5263 38.8928 30.5646 39.0904 30.6717 39.3321C30.7987 39.619 30.902 39.7277 31.1582 39.847C31.4688 39.9916 31.6609 39.9985 35.538 40C39.2476 40.0015 39.6149 39.9901 39.8589 39.8676C40.005 39.7942 40.2039 39.6137 40.3011 39.466C40.412 39.2969 40.4755 39.0866 40.474 38.8922C40.4724 38.7239 40.4028 38.4745 40.3187 38.3376C40.2353 38.2014 40.0547 38.0209 39.9178 37.9367C39.6768 37.7891 39.5338 37.7837 35.538 37.7852C31.8338 37.7868 31.3816 37.7998 31.1659 37.9138Z" fill="white"/>
<path d="M41.8112 0.0778723C41.5588 0.115359 41.1801 0.226287 40.9697 0.323445C40.7593 0.420603 40.4694 0.617981 40.3256 0.761806C40.1817 0.905631 39.9844 1.19558 39.8872 1.40596C39.79 1.61634 39.6753 2.05547 39.6324 2.38137C39.5896 2.70803 39.5712 3.00869 39.5927 3.05077C39.6133 3.09284 39.8115 3.12803 40.0326 3.1288C40.2536 3.13033 40.6576 3.06377 40.9315 2.98191C41.2803 2.8771 41.5427 2.73251 41.8112 2.49536C42.0522 2.28344 42.2573 2.01186 42.3659 1.76322C42.4607 1.54596 42.5778 1.11831 42.6275 0.813064C42.6765 0.508583 42.6941 0.198748 42.6658 0.12454C42.6359 0.0472725 42.5418 -0.00551632 42.4424 0.000603893C42.3475 0.00519405 42.0637 0.040386 41.8112 0.0778723Z" fill="white"/>
<path d="M40.2047 4.60606C40.0785 4.65579 39.8719 4.75371 39.7457 4.8241C39.6194 4.89371 39.3609 5.11175 39.1719 5.30759L38.8276 5.6641C39.2423 6.01448 39.5177 6.1912 39.7074 6.283C39.8971 6.3748 40.2575 6.46431 40.5107 6.48267C40.8833 6.50868 41.0493 6.47885 41.3905 6.32355C41.6215 6.21874 41.975 5.99 42.1746 5.81557C42.3743 5.64191 42.538 5.44759 42.538 5.3841C42.538 5.32136 42.3812 5.15765 42.1899 5.02071C41.9987 4.88453 41.6804 4.71317 41.4823 4.64125C41.2841 4.57011 40.9674 4.51197 40.7785 4.5135C40.5887 4.51503 40.3309 4.55634 40.2047 4.60606Z" fill="white"/>
<path d="M34.0393 3.41415C33.9062 3.69874 33.7701 4.10268 33.7372 4.31306C33.7043 4.52344 33.7027 4.83328 33.7341 5.00158C33.7655 5.16989 33.8527 5.42847 33.9292 5.57535C34.0057 5.723 34.1549 5.94639 34.2604 6.07262C34.3668 6.19885 34.6116 6.43141 34.8044 6.58978C34.9972 6.74737 35.1984 6.87666 35.2511 6.87666C35.3039 6.87666 35.4455 6.67852 35.5656 6.43601C35.6857 6.19426 35.828 5.80716 35.8815 5.57535C35.9351 5.34355 35.9573 5.00923 35.9305 4.82945C35.9037 4.6512 35.7989 4.34136 35.6972 4.14093C35.5954 3.94126 35.3636 3.63677 35.1808 3.46388C34.9987 3.29098 34.7631 3.09284 34.6582 3.02322C34.5527 2.95361 34.4249 2.897 34.3744 2.89776C34.3232 2.89776 34.1725 3.13033 34.0393 3.41415Z" fill="white"/>
<path d="M36.5035 0.621807C36.4186 0.758747 36.2778 1.077 36.1906 1.32946C36.1041 1.58192 36.033 1.96978 36.0338 2.19011C36.0345 2.4112 36.0896 2.72104 36.1562 2.87863C36.2227 3.03699 36.3765 3.30322 36.4981 3.47153C36.6198 3.63984 36.8929 3.90683 37.104 4.06443C37.3159 4.22279 37.5401 4.33448 37.6036 4.31306C37.6663 4.2924 37.83 4.043 37.967 3.75841C38.1873 3.30016 38.2156 3.16934 38.2148 2.59175C38.2141 2.12126 38.1774 1.87339 38.081 1.69284C38.0075 1.55667 37.8186 1.30115 37.661 1.12596C37.5034 0.950768 37.2364 0.70902 37.0681 0.588146C36.8998 0.468037 36.7384 0.370114 36.71 0.370879C36.681 0.372409 36.5884 0.485632 36.5035 0.621807Z" fill="white"/>
</svg>
