<svg width="41" height="40" viewBox="0 0 41 40" fill="none" xmlns="http://www.w3.org/2000/svg">
<path fill-rule="evenodd" clip-rule="evenodd" d="M19.2976 0.0544554C19.0724 0.0800554 18.6787 0.140516 18.4229 0.187903C18.1676 0.235835 17.6816 0.358387 17.3432 0.460787C17.0048 0.563187 16.4762 0.757094 16.1679 0.89163C15.8596 1.02617 15.3495 1.29034 15.0335 1.47825C14.7181 1.66671 14.2507 1.97881 13.9949 2.17163C13.7396 2.36499 13.3 2.74409 13.0185 3.0148C12.737 3.28496 12.3581 3.6902 12.1766 3.91515C11.9951 4.13956 11.7076 4.53173 11.5376 4.78664C11.367 5.04101 11.145 5.39669 11.0434 5.57643C10.9417 5.75618 10.7438 6.17286 10.6033 6.50239L10.3474 7.10154C9.84833 7.16744 9.38366 7.23444 8.99278 7.29327C8.60191 7.35209 8.06071 7.46375 7.7901 7.54219C7.5195 7.62008 7.04007 7.78566 6.72409 7.90985C6.40866 8.03458 5.88604 8.28295 5.56295 8.4627C5.24042 8.64299 4.7495 8.9491 4.47234 9.14409C4.19572 9.33854 3.67529 9.77973 3.31612 10.1245C2.95696 10.4688 2.51033 10.947 2.32282 11.1866C2.13531 11.4263 1.84557 11.8305 1.67883 12.0854C1.5121 12.3397 1.22783 12.8545 1.04688 13.2292C0.865931 13.6034 0.631954 14.1671 0.526993 14.482C0.422578 14.7962 0.286457 15.299 0.225777 15.5986C0.164549 15.8981 0.0885613 16.3513 0.0574009 16.6062C0.0256938 16.8606 0 17.4243 0 17.859C0 18.2931 0.0256938 18.8568 0.0574009 19.1118C0.089108 19.3661 0.160722 19.7953 0.216482 20.0649C0.27279 20.3346 0.408912 20.8368 0.51934 21.1815C0.629768 21.5258 0.875225 22.1266 1.06492 22.516C1.25462 22.9055 1.57551 23.4692 1.77724 23.7688C1.97896 24.0684 2.29931 24.497 2.48791 24.722C2.67706 24.9464 3.03732 25.3271 3.28824 25.5679C3.53917 25.8086 3.83109 26.0744 3.93605 26.1588L4.12739 26.313C3.94042 27.0848 3.8453 27.6153 3.79556 27.9901C3.72777 28.5004 3.71301 28.9019 3.73542 29.5969C3.75182 30.1061 3.80321 30.7434 3.84858 31.013C3.8945 31.2827 3.99619 31.7484 4.07436 32.0479C4.15253 32.3475 4.31271 32.8377 4.43025 33.1373C4.54833 33.4369 4.7577 33.9026 4.89656 34.1722C5.03487 34.4418 5.31148 34.9075 5.51102 35.2071C5.71055 35.5067 6.00685 35.9108 6.16976 36.1058C6.33322 36.3003 6.59179 36.5911 6.74541 36.7518C6.89902 36.913 7.24616 37.2295 7.51677 37.4561C7.78737 37.6827 8.26735 38.0389 8.58278 38.2475C8.89876 38.4567 9.45199 38.7688 9.8128 38.9414C10.1736 39.1141 10.7334 39.3434 11.0565 39.4507C11.3796 39.558 11.9454 39.7067 12.3138 39.7808C12.6823 39.8548 13.3219 39.9404 13.7352 39.9714C14.2496 40.0095 14.7241 40.0095 15.2385 39.9714C15.6518 39.9409 16.2734 39.8576 16.6189 39.7873C16.9649 39.7165 17.5553 39.5558 17.9309 39.4305C18.307 39.3053 18.8728 39.0743 19.1882 38.9174C19.5042 38.7606 19.9345 38.5198 20.1449 38.3831L20.5276 38.1342C21.1634 38.5171 21.5936 38.7459 21.8943 38.8897C22.195 39.0335 22.7362 39.2492 23.097 39.3695C23.4578 39.4899 23.987 39.637 24.2723 39.6963C24.5582 39.7557 25.001 39.8298 25.2563 39.8614C25.5122 39.893 26.078 39.9186 26.5137 39.9186C26.9499 39.9186 27.5157 39.893 27.771 39.8614C28.0269 39.8298 28.4817 39.753 28.7824 39.6909C29.083 39.6294 29.5876 39.4943 29.9031 39.3908C30.219 39.2878 30.7848 39.0558 31.1604 38.8755C31.5365 38.6952 32.0531 38.412 32.3084 38.2459C32.5643 38.0797 32.9699 37.79 33.2104 37.602C33.451 37.4141 33.8746 37.0312 34.1513 36.7513C34.4284 36.4707 34.7832 36.0824 34.9401 35.8879C35.097 35.6929 35.3703 35.3133 35.5475 35.0437C35.7246 34.7741 36.0149 34.2593 36.192 33.8998C36.3691 33.5404 36.6107 32.9521 36.7288 32.5926C36.8469 32.2331 36.9951 31.6814 37.0568 31.3671C37.1192 31.0523 37.1957 30.5561 37.2268 30.2641C37.258 29.9716 37.2826 29.4814 37.2815 29.1747C37.2804 28.8675 37.2454 28.3343 37.2039 27.9901C37.1623 27.6453 37.0754 27.1186 37.0115 26.819L36.8945 26.2743C37.217 26.0227 37.4554 25.8146 37.633 25.649C37.8102 25.4834 38.1387 25.1397 38.3634 24.8854C38.5881 24.6305 38.9691 24.1283 39.2096 23.7688C39.4507 23.4093 39.7787 22.8455 39.9389 22.516C40.0985 22.1865 40.3281 21.6227 40.4484 21.2632C40.5681 20.9038 40.7163 20.3645 40.7769 20.0649C40.8376 19.7654 40.9125 19.2997 40.9437 19.0301C40.9743 18.7604 41 18.2392 41 17.8726C41.0005 17.5055 40.9748 16.9663 40.9431 16.6743C40.9114 16.3818 40.8223 15.8611 40.7452 15.5169C40.6687 15.1721 40.5206 14.6454 40.4161 14.3458C40.3123 14.0462 40.0838 13.507 39.9088 13.1475C39.7339 12.788 39.425 12.2488 39.2228 11.9492C39.0205 11.6496 38.7143 11.2329 38.5416 11.0232C38.3694 10.8135 37.9709 10.3969 37.6565 10.0973C37.3416 9.79771 36.8584 9.39301 36.5829 9.19856C36.3073 9.00356 35.8662 8.71543 35.6027 8.55802C35.3392 8.4006 34.8286 8.14678 34.4678 7.99482C34.107 7.84285 33.5166 7.63696 33.1558 7.53837C32.795 7.43924 32.2417 7.31996 31.9258 7.27311C31.6103 7.22682 31.1921 7.17398 30.9964 7.15601L30.6411 7.12387C30.4377 6.59989 30.2562 6.20281 30.107 5.90324C29.9572 5.60366 29.6724 5.11345 29.4739 4.81388C29.2755 4.5143 28.9387 4.06058 28.725 3.80622C28.5112 3.55131 28.1296 3.14988 27.876 2.91349C27.6229 2.6771 27.2069 2.32795 26.951 2.13786C26.6957 1.94777 26.2283 1.63948 25.9123 1.45265C25.5969 1.26583 25.0677 0.998932 24.737 0.858949C24.4063 0.71951 23.9268 0.541401 23.671 0.463511C23.4157 0.385622 22.9729 0.273963 22.687 0.215137C22.4016 0.156856 21.9276 0.0827789 21.6346 0.0511874C21.3416 0.0190512 20.7878 -0.00382496 20.4046 0.000532489C20.0214 0.00434526 19.5234 0.0283107 19.2976 0.0544554ZM18.477 2.39276C18.7323 2.33121 19.0893 2.25931 19.2697 2.23317C19.4501 2.20648 19.9853 2.18197 20.4587 2.17816C21.0879 2.17325 21.4848 2.19994 21.9347 2.27729C22.2731 2.33502 22.8203 2.47119 23.1511 2.57959C23.4818 2.68798 23.9859 2.89223 24.2718 3.03331C24.5571 3.17438 24.9999 3.42874 25.2558 3.59868C25.5111 3.76863 25.9101 4.07474 26.1425 4.27845C26.3743 4.4827 26.7274 4.83348 26.9264 5.05843C27.126 5.28284 27.437 5.68754 27.618 5.95715C27.7989 6.22677 28.0427 6.63692 28.3718 7.29162L28.2215 7.32267C28.1389 7.3401 27.8251 7.41527 27.5245 7.48989C27.2238 7.56451 26.7438 7.71266 26.4585 7.81942C26.1726 7.92618 25.7051 8.12989 25.4198 8.27205C25.1339 8.41421 24.6052 8.7274 24.2444 8.96869C23.8836 9.20944 23.3544 9.61251 23.0691 9.8636C22.7832 10.1152 22.3442 10.5646 22.0933 10.8626C21.8429 11.1599 21.4815 11.6365 21.2913 11.9214C21.1011 12.2057 20.8419 12.6349 20.485 13.3103L20.2297 12.8201C20.0897 12.5505 19.8169 12.0968 19.6239 11.8125C19.4315 11.5276 19.1265 11.1235 18.9466 10.9138C18.7668 10.704 18.4464 10.3636 18.2338 10.1572C18.0216 9.9513 17.6269 9.61142 17.3563 9.40281C17.0857 9.19365 16.6429 8.88645 16.3723 8.71977C16.1017 8.55256 15.6217 8.29493 15.3063 8.14677C14.9903 7.99807 14.4737 7.79164 14.1583 7.68706C13.8423 7.58248 13.3749 7.45067 13.1196 7.39457C12.8638 7.33792 12.6506 7.28509 12.6451 7.278C12.6402 7.27038 12.7353 7.0683 12.8567 6.82864C12.978 6.58898 13.1808 6.23331 13.3071 6.03886C13.4334 5.84386 13.7226 5.46422 13.9489 5.1946C14.1758 4.92498 14.5306 4.55405 14.7378 4.3705C14.9455 4.18748 15.3118 3.89717 15.5523 3.7256C15.7929 3.55402 16.1865 3.30728 16.427 3.17601C16.6675 3.04529 17.1224 2.84049 17.4383 2.7212C17.7538 2.60192 18.2212 2.45431 18.477 2.39276ZM8.03556 9.74051C8.32092 9.64573 8.76373 9.52318 9.01957 9.46871C9.27487 9.41424 9.55804 9.3674 9.81225 9.36141L9.77452 9.7563C9.75375 9.97363 9.73516 10.3838 9.73298 10.6686C9.73079 10.953 9.75539 11.4432 9.7871 11.758C9.81881 12.0723 9.89425 12.575 9.95547 12.8746C10.0162 13.1742 10.1528 13.6889 10.2589 14.0184C10.3655 14.348 10.5929 14.9117 10.7651 15.2712C10.9378 15.6307 11.1844 16.0964 11.3134 16.3061C11.443 16.5158 11.7147 16.908 11.918 17.1776C12.1214 17.4472 12.4871 17.8819 12.7309 18.1444C12.9748 18.4064 13.1557 18.6302 13.1333 18.6411C13.1109 18.6526 12.9447 18.6793 12.7643 18.7011C12.5839 18.7228 12.1657 18.8084 11.8349 18.8917C11.5042 18.975 10.9876 19.1346 10.6869 19.2468C10.3863 19.3585 9.90627 19.5693 9.62091 19.7147C9.335 19.8601 8.88017 20.1227 8.60956 20.2981C8.33896 20.4734 7.93278 20.7654 7.70755 20.9473C7.48178 21.1292 7.0499 21.5318 6.74705 21.8422C6.44419 22.1522 6.04184 22.6146 5.85269 22.8695C5.66354 23.1239 5.39457 23.5204 5.00152 24.1686L4.86485 24.0705C4.78941 24.0166 4.5434 23.7595 4.31817 23.4992C4.0924 23.2382 3.77751 22.8374 3.61843 22.607C3.4588 22.3766 3.1964 21.919 3.03513 21.5895C2.87386 21.26 2.66613 20.7572 2.57374 20.4729C2.4819 20.188 2.36928 19.7773 2.32336 19.5606C2.27799 19.3432 2.21403 18.865 2.18123 18.4984C2.13858 18.0175 2.13858 17.652 2.18123 17.1912C2.21403 16.8388 2.28728 16.3366 2.34413 16.0746C2.40153 15.8121 2.51306 15.4019 2.59232 15.1623C2.67159 14.9226 2.88097 14.4324 3.05754 14.0729C3.23357 13.7134 3.53424 13.1987 3.72503 12.9291C3.91582 12.6595 4.3548 12.1556 4.70085 11.8092C5.14584 11.3637 5.51266 11.0586 5.9582 10.764C6.30369 10.5347 6.7957 10.2498 7.05154 10.1305C7.30684 10.0107 7.74965 9.83528 8.03556 9.74051ZM31.2375 10.7231C31.2386 10.1986 31.2205 9.67787 31.1965 9.56567C31.1549 9.36795 31.1588 9.36141 31.3069 9.36196C31.3916 9.3625 31.694 9.41261 31.9799 9.47307C32.2652 9.53353 32.7206 9.65717 32.9912 9.74813C33.2618 9.83909 33.7046 10.0194 33.9752 10.149C34.2458 10.2781 34.6886 10.5308 34.9592 10.7111C35.2298 10.8909 35.6601 11.2193 35.9159 11.441C36.1712 11.6627 36.5561 12.0516 36.7698 12.3049C36.9841 12.5581 37.3028 12.9863 37.4783 13.2559C37.6533 13.5255 37.8998 13.9667 38.025 14.2363C38.1507 14.5059 38.3278 14.9591 38.4186 15.244C38.5093 15.5283 38.6258 15.9695 38.6777 16.2244C38.7297 16.4788 38.7876 16.9532 38.8062 17.2783C38.8253 17.6041 38.8248 18.1308 38.8051 18.4494C38.7854 18.7686 38.7275 19.2376 38.6761 19.4925C38.6247 19.7468 38.5208 20.1515 38.4454 20.3912C38.3694 20.6309 38.2207 21.023 38.1141 21.2627C38.008 21.5024 37.7998 21.9065 37.6522 22.1614C37.504 22.4158 37.2268 22.8205 37.0371 23.0601C36.8469 23.2998 36.5419 23.6429 36.3598 23.8227C36.1772 24.0024 36.0181 24.137 36.0061 24.1223C35.9946 24.107 35.8487 23.8744 35.6825 23.6048C35.5163 23.3352 35.2102 22.894 35.0013 22.6244C34.7931 22.3548 34.4273 21.9381 34.189 21.6984C33.9506 21.4588 33.5712 21.1129 33.346 20.9299C33.1208 20.7469 32.6905 20.4359 32.3899 20.2392C32.0892 20.0426 31.5354 19.7338 31.1599 19.5524C30.7837 19.3716 30.2179 19.1395 29.9025 19.0366C29.5865 18.9336 29.0825 18.7996 28.7818 18.7386C28.4812 18.6771 28.1488 18.6134 27.8525 18.5665L28.2275 18.1716C28.4336 17.9543 28.7747 17.5561 28.9846 17.2865C29.1951 17.0169 29.4963 16.5877 29.6543 16.3333C29.8123 16.0784 30.0277 15.6988 30.1332 15.4891C30.2387 15.2794 30.4169 14.8747 30.529 14.5903C30.6416 14.3055 30.8045 13.8033 30.8914 13.4738C30.9789 13.1442 31.0915 12.605 31.1424 12.2755C31.202 11.8904 31.2358 11.3353 31.2375 10.7231ZM11.947 10.7776C11.9454 10.1931 11.9629 9.64791 11.9858 9.56567C12.011 9.47525 12.0656 9.41588 12.1225 9.41588C12.175 9.41642 12.4264 9.46653 12.6823 9.52754C12.9376 9.58909 13.3312 9.70238 13.557 9.77972C13.7822 9.85707 14.1884 10.0254 14.459 10.1534C14.7296 10.2819 15.1478 10.5145 15.3883 10.6708C15.6289 10.8266 16.0225 11.1186 16.263 11.319C16.5035 11.5194 16.8665 11.8659 17.0699 12.0886C17.2732 12.3109 17.581 12.6894 17.7543 12.9291C17.9271 13.1687 18.207 13.6344 18.3759 13.964C18.5448 14.2935 18.7493 14.7467 18.8302 14.9716C18.9105 15.196 19.0363 15.6252 19.109 15.9248C19.1817 16.2244 19.2697 16.7756 19.3047 17.1503C19.3533 17.6738 19.3528 17.9821 19.302 18.4848C19.2659 18.8443 19.2243 19.1504 19.2107 19.1657C19.1964 19.1804 18.9455 19.1346 18.6531 19.0633C18.3606 18.9925 17.9123 18.8612 17.657 18.7724C17.4012 18.6831 16.9463 18.4875 16.6457 18.3378C16.345 18.188 15.8776 17.9151 15.607 17.7315C15.32 17.5365 14.8291 17.1139 14.4289 16.7157C13.9801 16.2696 13.6231 15.8546 13.3973 15.5163C13.2071 15.2314 12.9469 14.7902 12.8184 14.5359C12.6899 14.281 12.4948 13.8153 12.3849 13.501C12.2756 13.1862 12.1329 12.684 12.0678 12.3844C11.9711 11.9361 11.9497 11.6512 11.947 10.7776ZM26.9505 9.96655C27.2659 9.83528 27.7951 9.6588 28.1258 9.57438C28.4566 9.48995 28.7824 9.41969 28.8502 9.41806C28.9338 9.41642 28.9825 9.4551 29.0027 9.53843C29.0191 9.60543 29.047 9.99161 29.065 10.3963C29.0863 10.8587 29.0732 11.3332 29.0306 11.6763C28.9928 11.9759 28.8944 12.4906 28.8113 12.8201C28.7277 13.1497 28.5577 13.6644 28.4325 13.964C28.3073 14.2635 28.0914 14.7047 27.952 14.9444C27.8131 15.1841 27.5644 15.5637 27.3998 15.7886C27.2347 16.0131 26.8384 16.4542 26.5181 16.7691C26.1982 17.0834 25.7155 17.4957 25.4455 17.6847C25.176 17.8737 24.6965 18.1591 24.3811 18.3192C24.0651 18.4788 23.5977 18.6825 23.3424 18.7719C23.0866 18.8612 22.6383 18.9925 22.3458 19.0633C22.0534 19.1346 21.8019 19.1804 21.7866 19.1657C21.7707 19.1504 21.7308 18.9053 21.6969 18.621C21.6625 18.3334 21.6494 17.8247 21.6674 17.4772C21.6849 17.1324 21.7368 16.6422 21.7833 16.3878C21.8292 16.1329 21.9194 15.7407 21.9828 15.5163C22.0468 15.2914 22.195 14.8747 22.3125 14.5903C22.43 14.3055 22.6399 13.8768 22.7788 13.6372C22.9182 13.3975 23.1631 13.0233 23.3238 12.8065C23.484 12.5892 23.8065 12.2123 24.0394 11.9688C24.2723 11.7253 24.6599 11.368 24.9004 11.1747C25.141 10.9813 25.5712 10.6839 25.8571 10.514C26.1425 10.344 26.6345 10.0978 26.9505 9.96655ZM24.8184 20.8231C25.0737 20.7725 25.4553 20.7126 25.6658 20.6908C25.8763 20.669 26.2081 20.6472 26.4038 20.6434C26.599 20.639 27.0172 20.6614 27.3331 20.693C27.6486 20.7245 28.1286 20.8013 28.3992 20.8634C28.6698 20.9261 29.1 21.0497 29.3558 21.139C29.6111 21.2278 30.0785 21.4315 30.3945 21.5917C30.7099 21.7513 31.1899 22.0367 31.4605 22.2257C31.7311 22.4152 32.2231 22.8395 32.5539 23.1691C32.8852 23.4986 33.3105 23.9888 33.4991 24.2584C33.6882 24.5281 33.9277 24.9017 34.2212 25.4295L33.9069 25.5869C33.7341 25.6735 33.334 25.8342 33.0185 25.9431C32.7026 26.0526 32.2106 26.1904 31.9252 26.2503C31.6344 26.3108 31.0571 26.3734 30.6132 26.392C30.1037 26.4137 29.6253 26.4018 29.2738 26.3582C28.9732 26.3206 28.4566 26.2226 28.1258 26.1398C27.7951 26.057 27.2539 25.8756 26.9231 25.7356C26.5924 25.5962 26.1316 25.3658 25.8987 25.2242C25.6658 25.0825 25.3225 24.856 25.135 24.7214C24.948 24.5863 24.5451 24.2312 24.2406 23.9316C23.9356 23.6321 23.5485 23.2028 23.3807 22.9784C23.2123 22.7535 22.963 22.3738 22.8258 22.1342C22.6886 21.8945 22.5765 21.6799 22.5765 21.6576C22.5771 21.6347 22.7553 21.5329 22.9734 21.4299C23.1915 21.3275 23.5912 21.1696 23.8618 21.0797C24.1324 20.9893 24.5626 20.8738 24.8184 20.8231ZM12.819 20.889C13.0595 20.8427 13.3175 20.7932 13.393 20.779C13.4679 20.7654 14.0216 20.7616 14.623 20.7708C15.4687 20.7845 15.8278 20.8128 16.2083 20.8978C16.4789 20.9577 16.8971 21.0726 17.1377 21.1532C17.3782 21.2333 17.7658 21.3891 18.4229 21.6984L18.2507 21.998C18.1561 22.1625 17.9801 22.4446 17.8593 22.6244C17.7385 22.8041 17.4651 23.1576 17.2519 23.4098C17.0387 23.6626 16.655 24.0509 16.3997 24.2737C16.1438 24.4965 15.7256 24.8162 15.4703 24.985C15.2145 25.1539 14.7717 25.4061 14.4863 25.5455C14.2004 25.685 13.7456 25.874 13.475 25.9655C13.2044 26.0564 12.7244 26.1866 12.4089 26.2547C11.9246 26.3587 11.6677 26.3778 10.7689 26.3789C9.95602 26.3794 9.58592 26.3565 9.2109 26.2814C8.9403 26.2275 8.48492 26.1087 8.19956 26.0178C7.91365 25.9273 7.48834 25.7634 7.25436 25.6545C7.02038 25.5455 6.82959 25.4382 6.83069 25.4159C6.83178 25.393 6.92854 25.2094 7.04608 25.0074C7.16306 24.8048 7.37572 24.4801 7.5184 24.2857C7.66108 24.0907 7.93059 23.7601 8.11701 23.5504C8.30397 23.3406 8.66314 22.9942 8.9157 22.7807C9.16826 22.5672 9.59631 22.2497 9.86691 22.0754C10.1375 21.9005 10.5803 21.6554 10.8509 21.5301C11.1215 21.4049 11.5764 21.2289 11.8623 21.1385C12.1476 21.0481 12.5784 20.9359 12.819 20.889ZM19.3386 24.5308C19.5179 24.2612 19.8284 23.8505 20.029 23.6184C20.2291 23.3859 20.4172 23.1963 20.4467 23.1963C20.4757 23.1963 20.6741 23.3859 20.8868 23.6184C21.1 23.8505 21.4225 24.2612 21.6035 24.5308C21.7849 24.8004 22.0528 25.2661 22.1982 25.5657C22.3442 25.8652 22.5366 26.3309 22.6263 26.6006C22.7159 26.8702 22.8439 27.3479 22.9111 27.6627C23.0106 28.1306 23.0336 28.4176 23.0363 29.2423C23.0396 30.0735 23.0193 30.3545 22.9198 30.8491C22.8537 31.1786 22.7099 31.7053 22.6011 32.0201C22.4918 32.3344 22.2709 32.8491 22.1108 33.164C21.95 33.4783 21.6701 33.944 21.4887 34.1989C21.3072 34.4532 21.0169 34.8193 20.5271 35.3618L20.1001 34.8754C19.865 34.6079 19.5409 34.1934 19.379 33.9538C19.2178 33.7141 18.9499 33.2359 18.7843 32.8916C18.6181 32.5468 18.4191 32.0692 18.3409 31.8295C18.2633 31.5898 18.1468 31.1487 18.0818 30.8491C17.9834 30.3948 17.9637 30.1225 17.9626 29.215C17.9621 28.2831 17.9796 28.0429 18.0862 27.5538C18.1545 27.2389 18.284 26.7612 18.3748 26.4916C18.465 26.222 18.6459 25.7808 18.7761 25.5112C18.9062 25.2416 19.1593 24.8004 19.3386 24.5308ZM14.7323 27.8098C15.063 27.6774 15.4545 27.5064 15.6026 27.4301C15.7502 27.3539 15.8809 27.307 15.8929 27.3272C15.9044 27.3468 15.8891 27.5347 15.8585 27.7444C15.8278 27.9541 15.7868 28.4073 15.7666 28.7521C15.7458 29.1137 15.7573 29.6775 15.7945 30.0865C15.8295 30.476 15.9077 31.0397 15.9678 31.3393C16.0279 31.6389 16.1881 32.2146 16.3231 32.6193C16.4582 33.0234 16.7047 33.6242 16.8704 33.9538C17.036 34.2833 17.3514 34.8225 17.5717 35.1521C17.792 35.4816 18.1474 35.9533 18.3611 36.2006C18.5754 36.4473 18.7504 36.6619 18.7504 36.6772C18.7504 36.6919 18.4737 36.8368 18.1354 36.998C17.797 37.1598 17.3235 37.3537 17.083 37.4294C16.8425 37.5051 16.3871 37.6189 16.0717 37.6832C15.7557 37.7469 15.2024 37.8134 14.8416 37.8313C14.4617 37.8499 13.944 37.8357 13.6116 37.7987C13.2957 37.7627 12.7916 37.6761 12.4909 37.6053C12.1903 37.535 11.7229 37.3923 11.4523 37.2888C11.1817 37.1854 10.7881 37.0143 10.5776 36.9087C10.3671 36.8035 9.96094 36.5611 9.67558 36.3711C9.38967 36.1804 8.88782 35.767 8.55982 35.4522C8.23126 35.1374 7.78791 34.6466 7.57416 34.3623C7.35987 34.0774 7.02858 33.5382 6.83725 33.164C6.64591 32.7892 6.40483 32.2255 6.30205 31.9112C6.19928 31.5964 6.0648 31.0452 6.00302 30.6857C5.90735 30.1279 5.89533 29.8844 5.92102 29.0244C5.93687 28.4699 5.97678 27.9187 6.00904 27.7989C6.04074 27.679 6.07956 27.5745 6.09432 27.5674C6.10962 27.5597 6.32501 27.6371 6.5732 27.7395C6.82139 27.8419 7.25764 27.9993 7.54355 28.0892C7.82891 28.1796 8.30889 28.3032 8.60956 28.3637C8.91023 28.4242 9.47604 28.5026 9.86691 28.5375C10.2917 28.5756 10.8416 28.5859 11.2336 28.5631C11.5944 28.5424 12.123 28.4901 12.4089 28.447C12.6943 28.4046 13.1989 28.2972 13.5296 28.2096C13.8604 28.1219 14.4016 27.9416 14.7323 27.8098ZM25.1399 27.9078C25.1104 27.6681 25.0732 27.429 25.0568 27.3767C25.0404 27.3239 25.0415 27.2814 25.0595 27.2814C25.077 27.2814 25.258 27.3637 25.4608 27.4644C25.6636 27.5652 26.0512 27.7346 26.3218 27.8408C26.5924 27.947 27.0964 28.1099 27.4425 28.2019C27.788 28.294 28.3172 28.4056 28.6178 28.4503C28.9185 28.495 29.4597 28.5467 29.8205 28.5658C30.1895 28.5848 30.7635 28.5729 31.1325 28.538C31.4933 28.5042 32.0837 28.4165 32.4445 28.3441C32.8053 28.2716 33.3958 28.1104 33.7566 27.9862C34.1174 27.862 34.5296 27.7019 34.6722 27.63C34.9106 27.5096 34.9335 27.5069 34.9565 27.5946C34.9696 27.6469 35.0068 27.8795 35.0385 28.1121C35.0702 28.3441 35.0959 28.8463 35.0954 29.2287C35.0954 29.6105 35.0582 30.1682 35.0128 30.4678C34.9674 30.7674 34.88 31.196 34.8182 31.421C34.7564 31.6454 34.6094 32.0746 34.4918 32.3742C34.3743 32.6738 34.1513 33.1395 33.996 33.4091C33.8407 33.6787 33.5789 34.0828 33.4138 34.3078C33.2487 34.5322 32.8518 34.9734 32.5315 35.2882C32.2117 35.6025 31.7289 36.0154 31.4589 36.206C31.1894 36.3961 30.6733 36.6957 30.3125 36.8711C29.9517 37.0465 29.4597 37.2551 29.2192 37.3341C28.9786 37.4136 28.5664 37.5247 28.3035 37.5813C28.0405 37.638 27.536 37.711 27.1828 37.7426C26.7422 37.7823 26.3431 37.7834 25.9118 37.7458C25.5657 37.7159 25.0863 37.6511 24.8458 37.6015C24.6052 37.5519 24.1745 37.437 23.8891 37.346C23.6032 37.2551 23.1604 37.084 22.9051 36.9664C22.6492 36.8482 22.4093 36.7224 22.3715 36.687C22.3169 36.6358 22.3458 36.5775 22.5093 36.4048C22.623 36.285 22.8285 36.0399 22.9669 35.8601C23.1052 35.6804 23.3544 35.3247 23.5217 35.0704C23.6885 34.8154 23.9662 34.3252 24.1384 33.981C24.3111 33.6362 24.5571 33.036 24.6851 32.6465C24.8135 32.2571 24.9682 31.6808 25.0295 31.3665C25.0907 31.0517 25.1678 30.4634 25.2011 30.0593C25.2339 29.6546 25.2459 29.1034 25.2274 28.8338C25.2088 28.5641 25.1694 28.1475 25.1399 27.9078Z" fill="white"/>
</svg>
