<svg width="48" height="40" viewBox="0 0 48 40" fill="none" xmlns="http://www.w3.org/2000/svg">
<path fill-rule="evenodd" clip-rule="evenodd" d="M0.235027 18.6278C0.160534 18.6763 0.103366 18.7543 0.107408 18.7999C0.112028 18.8461 0.293929 19.2018 0.51221 19.591C0.730491 19.9797 1.04232 20.5646 1.20517 20.8903C1.36801 21.2154 1.65963 21.8524 1.85308 22.3051C2.04653 22.7573 2.32082 23.4658 2.4623 23.8787C2.60378 24.2916 2.78511 24.8633 2.86537 25.1491C2.94564 25.4349 3.07326 25.9547 3.14891 26.304C3.22398 26.6534 3.32619 27.2638 3.37527 27.6611C3.42436 28.0578 3.46478 28.7917 3.46478 29.2924C3.46478 29.7925 3.42609 30.4941 3.37931 30.8516C3.33254 31.2084 3.2413 31.7611 3.17663 32.0787C3.11195 32.3963 2.96585 32.9939 2.85151 33.4068C2.73718 33.8197 2.5264 34.4821 2.38261 34.8794C2.23883 35.2761 2.00553 35.8738 1.86347 36.2075C1.72199 36.5407 1.41132 37.2037 1.1734 37.6801C0.93549 38.1565 0.599985 38.7865 0.427901 39.0804C0.255816 39.3738 0.114915 39.6469 0.114337 39.6867C0.11376 39.726 0.15014 39.8109 0.19576 39.8744C0.27545 39.9859 0.298549 39.987 0.904308 39.9131C1.24848 39.871 1.86809 39.7503 2.28098 39.6457C2.69387 39.5406 3.27826 39.3576 3.58027 39.2392C3.88171 39.1203 4.37544 38.8968 4.67745 38.7432C4.97889 38.589 5.49861 38.2852 5.83238 38.0681C6.16558 37.8504 6.69857 37.4629 7.01618 37.2065C7.33378 36.9501 7.93204 36.3935 8.34608 35.9685C8.76012 35.544 9.29023 34.9498 9.5241 34.6484C9.75797 34.3464 10.1472 33.8007 10.3886 33.4357C10.6299 33.0702 10.8921 32.648 10.9718 32.4967C11.0509 32.346 11.1352 32.2225 11.1595 32.2225C11.1832 32.2225 11.443 32.4136 11.7369 32.6469C12.0303 32.8796 12.5956 33.304 12.9929 33.5893C13.3896 33.8746 13.9873 34.2909 14.3211 34.5144C14.6543 34.7379 15.3039 35.1542 15.7647 35.4395C16.225 35.7248 16.9919 36.1758 17.4683 36.4408C17.9447 36.7059 18.8022 37.1482 19.3739 37.4237C19.9456 37.6991 20.7638 38.0693 21.1929 38.246C21.6214 38.4233 22.3882 38.7091 22.8964 38.8812C23.4046 39.0538 24.1842 39.2883 24.6288 39.4032C25.0735 39.5181 25.8138 39.6758 26.2746 39.7537C26.7348 39.8317 27.5404 39.9258 28.0647 39.9622C28.7577 40.0107 29.2693 40.0124 29.9415 39.968C30.4496 39.9345 31.138 39.8663 31.4717 39.8167C31.8049 39.767 32.3766 39.659 32.7422 39.5776C33.1071 39.4962 33.7048 39.3397 34.0703 39.23C34.4353 39.1202 35.0982 38.8858 35.5429 38.7097C35.9875 38.5335 36.8058 38.1582 37.3619 37.8764C37.9174 37.5946 38.7362 37.1344 39.1809 36.8543C39.6255 36.5742 40.2232 36.1781 40.509 35.9748C40.7949 35.771 41.4053 35.3009 41.8661 34.9308C42.3263 34.56 43.0539 33.9341 43.483 33.5391C43.9115 33.1447 44.5652 32.4985 44.9359 32.1035C45.306 31.7085 45.809 31.1518 46.0533 30.866C46.2975 30.5801 46.6637 30.1315 46.8669 29.8699C47.0702 29.6077 47.2371 29.3346 47.2388 29.2635C47.24 29.1861 47.0523 28.8928 46.7768 28.5417C46.521 28.216 46.0435 27.6443 45.7155 27.2713C45.3869 26.8977 44.7436 26.2191 44.2862 25.7629C43.8283 25.3062 43.103 24.63 42.6745 24.2592C42.2455 23.8891 41.5831 23.3509 41.202 23.0633C40.8209 22.7757 40.1972 22.3311 39.8161 22.0758C39.435 21.8206 38.798 21.425 38.4013 21.1975C38.004 20.97 37.3936 20.6437 37.0443 20.4728C36.6949 20.3019 36.058 20.0201 35.6295 19.8457C35.2004 19.6719 34.5508 19.4368 34.1858 19.3237C33.8203 19.2105 33.2486 19.0546 32.9154 18.9766C32.5816 18.8992 32.0619 18.7953 31.7605 18.7456C31.4585 18.6965 30.9388 18.629 30.6056 18.5961C30.2718 18.5631 29.5575 18.536 29.0175 18.5366C28.4776 18.5366 27.6847 18.577 27.2563 18.6261C26.8272 18.6752 26.0996 18.7912 25.6394 18.8848C25.1786 18.9778 24.4509 19.1568 24.0225 19.2821C23.5934 19.4074 22.9178 19.6245 22.5211 19.7654C22.1238 19.9063 21.4614 20.1598 21.0485 20.3296C20.6356 20.4988 19.6869 20.9434 18.9408 21.3176C18.1941 21.6913 17.1547 22.2491 16.6309 22.5563C16.1066 22.8635 15.2624 23.3873 14.7542 23.7205C14.246 24.0531 13.5311 24.5399 13.1662 24.802C12.8006 25.0642 12.1966 25.5158 11.8236 25.8057L11.145 26.3329C10.5277 25.2808 10.1154 24.664 9.83073 24.2829C9.54604 23.9018 9.09274 23.3428 8.82306 23.0414C8.55396 22.7393 8.14108 22.3103 7.90547 22.0874C7.67044 21.8645 7.231 21.4845 6.92956 21.2426C6.62755 21.0006 6.13381 20.6414 5.83238 20.4434C5.53037 20.2459 4.91999 19.9052 4.47534 19.6863C4.03069 19.468 3.38105 19.196 3.03168 19.0829C2.68232 18.9697 2.08464 18.8161 1.70352 18.7416C1.32239 18.6671 0.866195 18.5909 0.690068 18.5724C0.453309 18.5475 0.334351 18.562 0.235027 18.6278ZM33.1758 24.9649C33.3658 24.8633 33.6644 24.7414 33.8393 24.6941C34.0137 24.6467 34.3129 24.6069 34.5034 24.6051C34.694 24.6034 35.0185 24.6421 35.2253 24.6912C35.4314 24.7403 35.7542 24.8633 35.9425 24.9649C36.1307 25.066 36.4293 25.2952 36.6066 25.4736C36.7838 25.6521 37.0131 25.9639 37.117 26.1666C37.2204 26.3693 37.3457 26.7302 37.3954 26.9681C37.4531 27.2436 37.4727 27.5167 37.4497 27.7188C37.4294 27.8938 37.3717 28.1664 37.3215 28.3252C37.2712 28.484 37.1713 28.7311 37.0997 28.8737C37.0281 29.0164 36.8566 29.2618 36.718 29.4183C36.58 29.5754 36.3109 29.804 36.1203 29.9265C35.9298 30.0495 35.6047 30.2008 35.3985 30.2637C35.1577 30.337 34.8574 30.3775 34.5612 30.3769C34.3059 30.3763 33.9566 30.3342 33.7816 30.2828C33.6066 30.2314 33.3468 30.1297 33.2041 30.0581C33.0609 29.9859 32.804 29.8 32.6324 29.6458C32.4615 29.4911 32.249 29.2606 32.1607 29.1336C32.0729 29.0066 31.9337 28.7271 31.8517 28.5128C31.7697 28.298 31.6871 27.9354 31.6675 27.7044C31.6433 27.4087 31.6612 27.1668 31.7287 26.8815C31.7813 26.6592 31.9077 26.3219 32.0088 26.1314C32.1104 25.9414 32.3368 25.6428 32.5118 25.4673C32.6867 25.2923 32.9859 25.066 33.1758 24.9649Z" fill="white"/>
<path d="M10.5098 7.51973C10.3349 7.68315 9.99704 7.96206 9.75913 8.13935C9.52064 8.31663 9.09216 8.59497 8.80632 8.75781C8.52047 8.92065 8.03944 9.15106 7.73801 9.26944C7.43599 9.3884 6.90357 9.55298 6.55421 9.63498C5.98136 9.7701 5.80524 9.78454 4.76407 9.78396C3.77719 9.78338 3.52079 9.76433 3.00281 9.65114C2.66904 9.57896 2.13661 9.43229 1.81901 9.32603C1.5014 9.21978 1.03366 9.03961 0.779575 8.92527C0.525492 8.81036 0.271985 8.71796 0.216549 8.71854C0.160535 8.71912 0.0895068 8.77225 0.0577463 8.83577C0.0254084 8.89986 0 9.42247 0 10.0196V11.0879C0.335506 11.4061 0.679674 11.6642 0.981688 11.8674C1.28312 12.0701 1.76415 12.3439 2.04999 12.4755C2.33584 12.6078 2.80358 12.7804 3.08943 12.859C3.48788 12.9692 3.80433 13.0097 4.44647 13.0333C5.08687 13.057 5.40563 13.042 5.80351 12.9687C6.08935 12.9161 6.53111 12.8058 6.78519 12.7244C7.03928 12.6424 7.50702 12.4507 7.82463 12.2988C8.14223 12.1469 8.67465 11.8392 9.00843 11.6157C9.34162 11.3922 9.85499 10.9995 10.1489 10.7443C10.4423 10.4885 10.7091 10.2794 10.7408 10.2794C10.7726 10.2794 11.0255 10.4763 11.3038 10.7171C11.5816 10.9579 12.043 11.3119 12.3288 11.5036C12.6147 11.6954 13.0564 11.9558 13.3105 12.0834C13.5646 12.2105 14.0324 12.401 14.35 12.5073C14.6676 12.613 15.174 12.7423 15.476 12.7949C15.9022 12.8688 16.2492 12.8838 17.0352 12.8607C17.835 12.837 18.1716 12.8012 18.6521 12.6874C18.9853 12.6083 19.5183 12.4472 19.8359 12.3288C20.1535 12.211 20.6992 11.9685 21.0485 11.7901C21.3979 11.6116 21.9176 11.3125 22.2035 11.1243C22.4893 10.9366 22.8658 10.6698 23.0408 10.5324C23.2152 10.3943 23.4034 10.2806 23.4594 10.28C23.5149 10.2794 23.6835 10.3811 23.8348 10.5052C23.9855 10.6299 24.3689 10.9048 24.6866 11.1162C25.0042 11.3275 25.6018 11.6659 26.0147 11.868C26.4276 12.0701 27.038 12.3254 27.3718 12.4351C27.705 12.5448 28.1987 12.6828 28.4689 12.7417C28.8576 12.826 29.2058 12.848 30.1436 12.8474C31.1946 12.8468 31.3886 12.8312 31.876 12.71C32.1774 12.6343 32.5868 12.5113 32.7855 12.4362C32.9835 12.3618 33.3606 12.1931 33.6228 12.0621C33.8844 11.931 34.2938 11.6936 34.5323 11.5354C34.7702 11.3766 35.082 11.1525 35.2247 11.0371C35.3673 10.9221 35.6208 10.7044 35.7877 10.5537C35.9546 10.4024 36.1301 10.2794 36.1781 10.2794C36.2254 10.2794 36.4789 10.4752 36.7411 10.7154C37.0027 10.9551 37.4774 11.3293 37.795 11.547C38.1126 11.7647 38.6323 12.0719 38.9499 12.2307C39.2675 12.3895 39.722 12.5881 39.9605 12.6724C40.1984 12.7567 40.6465 12.8763 40.9566 12.9381C41.3123 13.0097 41.7581 13.0512 42.1693 13.0518C42.5261 13.0518 43.0395 13.0143 43.3097 12.9681C43.5794 12.9219 43.9952 12.8145 44.2337 12.729C44.4716 12.6441 44.8487 12.483 45.071 12.3716C45.2933 12.2601 45.6439 12.0563 45.8506 11.9188C46.0567 11.782 46.3749 11.5516 46.558 11.4072L46.89 11.1456C46.8918 9.1603 46.8727 8.84558 46.8184 8.7913C46.7786 8.75088 46.7064 8.71797 46.659 8.71797C46.6111 8.71739 46.3772 8.80689 46.1393 8.91661C45.9008 9.02633 45.4331 9.20765 45.0999 9.3191C44.7661 9.43055 44.2204 9.58069 43.8872 9.6523C43.3785 9.76144 43.099 9.78281 42.1548 9.78512C41.2644 9.78743 40.9254 9.76548 40.5379 9.6806C40.2677 9.62169 39.8132 9.49523 39.5274 9.39995C39.2415 9.30409 38.7738 9.10891 38.4879 8.96512C38.2021 8.82191 37.7603 8.56609 37.5062 8.3969C37.2522 8.2277 36.8167 7.89335 36.539 7.6537C36.2607 7.41463 35.9944 7.21887 35.9471 7.21887C35.8992 7.21887 35.6849 7.35169 35.4707 7.51453C35.2559 7.67737 34.8597 7.9407 34.5901 8.09892C34.3198 8.25772 33.9173 8.47889 33.695 8.59034C33.4727 8.70237 33.0569 8.88427 32.771 8.99457C32.4852 9.10544 32.0434 9.25847 31.7894 9.33585C31.5353 9.41265 31.0346 9.52641 30.6777 9.58878C30.2631 9.66096 29.7613 9.70196 29.2918 9.70196C28.8749 9.70254 28.3171 9.66154 28.007 9.60899C27.705 9.55702 27.2245 9.43864 26.9387 9.34451C26.6528 9.25096 26.2238 9.0835 25.9858 8.97262C25.7474 8.86175 25.3056 8.60594 25.0042 8.4044C24.7021 8.20287 24.254 7.86621 24.008 7.65717C23.7615 7.44755 23.5085 7.27662 23.445 7.27662C23.3815 7.27662 23.1147 7.46082 22.8531 7.68661C22.5909 7.9124 22.1688 8.23463 21.9147 8.40209C21.6606 8.57013 21.2576 8.80458 21.0197 8.92296C20.7812 9.04134 20.3267 9.2244 20.0091 9.32892C19.6915 9.43344 19.1845 9.56048 18.883 9.61072C18.5805 9.66096 18.0036 9.70196 17.5982 9.70196C17.1351 9.70196 16.6205 9.66038 16.2123 9.58993C15.8548 9.52872 15.2115 9.36299 14.7831 9.22209C14.354 9.08061 13.7823 8.86291 13.5126 8.73817C13.2424 8.61344 12.7746 8.36629 12.4732 8.18901C12.1712 8.01173 11.7231 7.72068 11.4771 7.54225C11.2305 7.36439 10.9839 7.21945 10.9285 7.2206C10.8725 7.22176 10.6842 7.35631 10.5098 7.51973Z" fill="white"/>
<path d="M10.5093 0.318183C10.3187 0.492577 9.94854 0.794013 9.68695 0.988041C9.42478 1.18207 9.04134 1.43442 8.83519 1.54933C8.62846 1.66425 8.22596 1.85885 7.94012 1.98185C7.65428 2.10485 7.12763 2.28098 6.77076 2.37338C6.37866 2.47443 5.85144 2.56105 5.44259 2.59108C5.06897 2.6188 4.49093 2.61995 4.15774 2.59454C3.82396 2.56856 3.29154 2.49522 2.97394 2.43112C2.65633 2.36702 2.09099 2.20995 1.71795 2.08118C1.34433 1.95298 0.883519 1.7705 0.692956 1.67522C0.502393 1.57994 0.308942 1.50198 0.2639 1.50198C0.218281 1.50198 0.140323 1.54067 0.0906613 1.5886C0.0138587 1.66136 0 1.8525 0 2.80127V3.92733C0.604027 4.40836 0.922209 4.63876 1.09718 4.74964C1.27157 4.86051 1.62267 5.05511 1.87676 5.18158C2.13084 5.30862 2.49464 5.46569 2.6852 5.53037C2.87577 5.59562 3.23957 5.69263 3.49365 5.74576C3.78816 5.80697 4.22761 5.8422 4.70633 5.8422C5.17927 5.8422 5.62738 5.80697 5.919 5.74634C6.17308 5.69437 6.60791 5.57483 6.88625 5.48186C7.16401 5.38889 7.63175 5.19255 7.92568 5.0453C8.21903 4.89804 8.68043 4.63241 8.95068 4.45397C9.22036 4.27612 9.59744 4.0024 9.788 3.84533C9.97857 3.68884 10.2575 3.44803 10.4088 3.3106C10.5595 3.17316 10.7091 3.06113 10.7408 3.06113C10.7726 3.06113 10.9608 3.20781 11.1595 3.3874C11.3575 3.56699 11.7283 3.86843 11.9824 4.05726C12.2364 4.24609 12.6389 4.50941 12.8774 4.64338C13.1153 4.77678 13.5311 4.9812 13.8014 5.09785C14.071 5.2145 14.5521 5.37618 14.8697 5.45645C15.1873 5.53729 15.733 5.63258 16.0824 5.6678C16.5553 5.71631 16.9012 5.71631 17.4394 5.66665C17.8361 5.63027 18.4211 5.53787 18.7387 5.46107C19.0563 5.38427 19.5108 5.25145 19.7492 5.16599C19.9872 5.08052 20.4682 4.87321 20.8175 4.70517C21.1669 4.53713 21.6866 4.25186 21.9725 4.07112C22.2583 3.89037 22.6932 3.58894 22.9397 3.40184C23.1857 3.21416 23.426 3.06113 23.4739 3.06113C23.5212 3.06113 23.6708 3.15584 23.8059 3.27191C23.9405 3.38798 24.3239 3.66458 24.6577 3.88633C24.9909 4.10807 25.6278 4.4661 26.0725 4.68207C26.5171 4.89804 27.1148 5.15155 27.4006 5.24626C27.6865 5.34038 28.1929 5.47031 28.5267 5.53383C28.8599 5.59793 29.3929 5.6678 29.7105 5.68917C30.0495 5.71227 30.538 5.70014 30.8943 5.6603C31.2275 5.62334 31.6565 5.55693 31.8471 5.51247C32.0377 5.468 32.3882 5.36521 32.6267 5.28437C32.8646 5.20294 33.2677 5.03606 33.5217 4.91364C33.7758 4.79064 34.2563 4.50768 34.5901 4.2842C34.9232 4.0613 35.4043 3.69345 35.6584 3.46767C35.9124 3.2413 36.1394 3.05767 36.1636 3.05882C36.1873 3.05998 36.4472 3.27017 36.7411 3.52541C37.0345 3.78123 37.5478 4.1739 37.8816 4.39911C38.2148 4.62375 38.6698 4.89862 38.8922 5.01007C39.1145 5.1221 39.517 5.2988 39.7872 5.40332C40.0569 5.50727 40.5506 5.64875 40.8844 5.71746C41.3181 5.80639 41.6957 5.84162 42.2126 5.84046C42.6093 5.83989 43.129 5.8012 43.3675 5.755C43.6054 5.70823 43.9692 5.6141 44.1759 5.54538C44.3821 5.47609 44.7332 5.33287 44.9555 5.22662C45.1778 5.12037 45.5676 4.89862 45.8217 4.73347C46.0758 4.56831 46.42 4.31885 46.5869 4.18026L46.89 3.92733C46.8918 1.94201 46.8727 1.62729 46.8184 1.57301C46.7786 1.53259 46.692 1.50025 46.6273 1.50083C46.562 1.50141 46.4841 1.52566 46.454 1.55511C46.4234 1.58514 46.1133 1.72546 45.764 1.86809C45.4146 2.01015 44.8816 2.19321 44.5802 2.27463C44.2782 2.35547 43.7977 2.46346 43.5119 2.51312C43.211 2.56625 42.6514 2.60552 42.1837 2.60667C41.6998 2.6084 41.1431 2.57144 40.7978 2.51543C40.4802 2.46346 39.9212 2.3214 39.5562 2.19956C39.1907 2.07829 38.7103 1.88715 38.4879 1.7757C38.2656 1.66483 37.8106 1.38996 37.4774 1.16532C37.1436 0.940689 36.6822 0.586703 36.4524 0.378816C36.222 0.170352 35.9944 0.000578027 35.9471 0.000578027C35.8992 0.000578027 35.7889 0.0617883 35.7017 0.136859C35.6139 0.212506 35.283 0.44407 34.9654 0.652535C34.6478 0.860421 34.0368 1.19997 33.6084 1.40728C33.1793 1.61401 32.5689 1.87329 32.2513 1.98243C31.9337 2.09215 31.4204 2.23652 31.1108 2.3035C30.8007 2.37049 30.255 2.45076 29.8982 2.48136C29.5043 2.51485 29.0204 2.51659 28.6711 2.4854C28.3534 2.45769 27.8724 2.38262 27.6027 2.31909C27.3325 2.255 26.9167 2.13315 26.6788 2.04711C26.4403 1.96164 26.0638 1.80111 25.8415 1.69024C25.6192 1.57994 25.2294 1.35184 24.9753 1.1838C24.7212 1.01634 24.2985 0.694112 24.0369 0.468324C23.7747 0.242535 23.5085 0.0583244 23.445 0.0583244C23.3815 0.0583244 23.128 0.234451 22.882 0.449844C22.6354 0.665238 22.2393 0.974181 22.0013 1.13587C21.7629 1.29756 21.3344 1.54818 21.0485 1.69197C20.7627 1.83633 20.3336 2.01997 20.0957 2.10023C19.8572 2.18108 19.4674 2.28849 19.2295 2.3393C18.991 2.39012 18.5366 2.45538 18.219 2.48425C17.8615 2.51659 17.3932 2.51543 16.9919 2.48136C16.6344 2.45076 16.1147 2.37684 15.8369 2.31678C15.5586 2.25673 15.0458 2.11236 14.6964 1.99629C14.3471 1.88022 13.7621 1.64173 13.3971 1.46618C13.0316 1.29063 12.5252 1.02096 12.2711 0.867351C12.017 0.713746 11.6272 0.45562 11.4049 0.293352C11.1826 0.131663 10.9678 0 10.9279 0C10.8875 0 10.6992 0.143211 10.5093 0.318183Z" fill="white"/>
</svg>
