<svg width="48" height="40" viewBox="0 0 48 40" fill="none" xmlns="http://www.w3.org/2000/svg">
<path fill-rule="evenodd" clip-rule="evenodd" d="M46.3223 0.00671883C46.5099 0.0241198 46.7943 0.0937248 46.9479 0.169129C47.1071 0.244533 47.3289 0.401142 47.4483 0.517149C47.5621 0.633156 47.727 0.865171 47.8123 1.03338C47.9716 1.335 47.9716 1.3524 48 3.86394H44.3602V2.67487C44.3602 1.63081 44.3716 1.4452 44.4739 1.17839C44.5365 1.01018 44.6673 0.772362 44.7697 0.650556C44.872 0.522948 45.0711 0.35474 45.2133 0.273535C45.3554 0.19233 45.5829 0.0879245 45.7251 0.0473222C45.873 0.00671988 46.1289 -0.0106822 46.3223 0.00671883ZM1.58104 2.58787C1.63791 2.58787 1.64929 5.71425 1.64929 33.5326L2.05877 33.6544C2.28626 33.724 6.14787 34.8319 18.7962 38.4339L20.3318 38.4281L37.5071 32.767L37.5242 17.6745C37.5299 7.61675 37.5526 2.58787 37.5924 2.58787C37.6265 2.58787 37.9962 2.86628 39.1848 3.83494L39.1564 33.9909L38.5877 34.1591C38.2749 34.2519 34.0777 35.6033 20.5024 40H18.6256L0 34.7507V3.83494L0.750712 3.2143C1.16588 2.87208 1.54123 2.59367 1.58104 2.58787ZM35.8749 2.59367C35.8806 2.58786 35.8863 9.19445 35.8863 31.9665L28.1972 34.3273C23.9659 35.6266 20.4682 36.6938 20.4341 36.6938C20.3773 36.6938 20.3602 34.1591 20.3602 24.2231C20.3602 14.5249 20.3772 11.7408 20.4284 11.706C20.4682 11.6828 23.9545 9.62367 28.1801 7.12953C32.4 4.63538 35.8635 2.59367 35.8749 2.59367ZM3.29858 2.64587C3.3327 2.64587 6.8019 4.67599 18.6597 11.6654V24.1767C18.654 36.0616 18.6483 36.688 18.5573 36.6706C18.5005 36.659 15.0313 35.5976 3.24171 31.9665V17.3033C3.24171 7.57035 3.25877 2.64587 3.29858 2.64587ZM44.3602 5.31402H48V31.4445L47.1071 34.6463C46.6123 36.4096 46.1972 37.8539 46.1801 37.8539C46.163 37.8539 45.7479 36.427 44.3602 31.5025V5.31402Z" fill="white"/>
</svg>
