<svg width="30" height="40" viewBox="0 0 30 40" fill="none" xmlns="http://www.w3.org/2000/svg">
<path fill-rule="evenodd" clip-rule="evenodd" d="M0.0576958 0.11599C-0.0483522 0.224689 -0.0331079 0.363877 0.317513 2.51864C0.522319 3.77597 1.13408 7.48964 1.67692 10.7705C2.21975 14.0514 3.03831 19.0025 3.49564 21.773C3.95297 24.5435 4.42025 27.377 4.53425 28.0696C4.65355 28.7901 4.78147 29.3713 4.83516 29.4283C4.91403 29.5125 5.37601 29.5324 7.92381 29.5609L10.9203 29.594C11.198 32.7788 11.2802 33.8147 11.2822 33.9519L11.2862 34.2005C9.43698 34.2005 8.90011 34.2224 8.90011 34.2502C8.90011 34.2774 10.1826 35.5824 11.7502 37.15L14.6002 40C19.0118 35.5824 20.2797 34.2774 20.2632 34.2502C20.2473 34.2224 19.7117 34.2005 19.0741 34.2005H17.9142C17.9142 33.8923 17.9719 33.1539 18.0428 32.3612C18.113 31.5679 18.1952 30.6134 18.2251 30.2396L18.2787 29.5596C23.6249 29.5622 24.3367 29.5437 24.4269 29.4787C24.5077 29.421 24.5727 29.2116 24.639 28.7987C24.6913 28.4706 24.7795 27.9039 24.8345 27.5394C24.8895 27.1748 24.9783 26.5929 25.032 26.2469C25.0857 25.9002 25.2494 24.8418 25.3959 23.894C25.5424 22.9461 25.9169 20.5302 26.227 18.5253C26.5372 16.5203 26.972 13.7167 27.1934 12.2949C27.4141 10.8732 27.6229 9.51582 27.658 9.2792C27.6932 9.04192 28.006 7.01375 28.3526 4.77216C28.7 2.52991 29.0022 0.606462 29.0247 0.4971C29.0559 0.346645 29.0314 0.261143 28.9253 0.14913L28.7841 0C0.939221 0 0.164407 0.0059652 0.0576958 0.11599ZM1.39058 2.1541C1.30376 1.71665 1.24477 1.33621 1.25868 1.30903C1.27327 1.28186 7.24841 1.25932 27.7899 1.25932L27.7581 1.40845C27.7402 1.49064 27.6063 2.30323 27.4598 3.21458C27.3134 4.12593 27.141 5.16454 27.0774 5.52179C26.9714 6.11964 26.9508 6.16868 26.8289 6.12958C26.756 6.10572 26.4431 6.07059 26.1329 6.05137C25.8028 6.03148 25.4052 6.0507 25.1719 6.09843C24.9531 6.14283 24.4315 6.31384 24.012 6.47755C23.5931 6.64126 22.9965 6.86263 22.6864 6.96934C22.3768 7.07606 21.8698 7.2338 21.5596 7.32063C21.2501 7.40679 20.7576 7.52875 20.466 7.59105C20.1293 7.6633 19.5009 7.71632 18.7427 7.73687C17.7273 7.76471 17.4264 7.74814 16.7212 7.62817C16.2658 7.55062 15.5725 7.39818 15.1801 7.28948C14.7884 7.18078 13.7896 6.82618 12.9598 6.50141C12.1306 6.17664 11.2133 5.84789 10.9217 5.771C10.63 5.69478 10.1382 5.60132 9.82803 5.56288C9.43764 5.51516 9.09232 5.51516 8.70127 5.56355C8.32679 5.60928 7.71635 5.77564 6.87857 6.05932C6.18594 6.29395 5.39589 6.54714 5.12215 6.62137C4.84907 6.69561 4.35661 6.80033 4.02853 6.85402C3.70044 6.9077 3.18611 6.96802 2.33839 7.02568L2.27277 6.67771C2.23632 6.48616 2.05868 5.56885 1.87708 4.6396C1.69613 3.71036 1.47741 2.59155 1.39058 2.1541ZM11.0821 16.2717C11.377 15.7978 12.2804 14.4046 13.091 13.1751C14.2429 11.428 14.5816 10.9581 14.6439 11.021C14.6877 11.0655 15.4062 12.1458 16.2406 13.4217C17.0751 14.6976 17.954 16.055 18.1932 16.4374C18.4332 16.8199 18.7347 17.3872 18.8633 17.6968C18.9919 18.0063 19.1503 18.4842 19.2153 18.7572C19.2895 19.0714 19.3326 19.5102 19.3313 19.9503C19.3306 20.403 19.2895 20.7967 19.2133 21.077C19.149 21.3143 19.0118 21.6868 18.9077 21.9055C18.8043 22.1243 18.573 22.4968 18.3947 22.7341C18.2164 22.9713 17.9533 23.2583 17.8101 23.3723C17.667 23.4863 17.4005 23.6686 17.2183 23.7766C17.036 23.8847 16.6635 24.0577 16.3898 24.1604C15.9344 24.3327 15.8019 24.3506 14.799 24.3751C13.9473 24.397 13.6033 24.3791 13.2415 24.2949C12.9863 24.2353 12.5243 24.065 12.2141 23.9158C11.7661 23.6998 11.5493 23.5407 11.1536 23.137C10.8806 22.8573 10.5598 22.4663 10.4418 22.2674C10.3238 22.0686 10.1448 21.6822 10.0454 21.4084C9.87642 20.9465 9.86382 20.8404 9.86714 19.9171C9.87045 19.0277 9.88901 18.8673 10.0454 18.3927C10.1415 18.1011 10.2933 17.6981 10.3835 17.4979C10.4729 17.2978 10.7871 16.7456 11.0821 16.2717Z" fill="white"/>
</svg>
