<svg width="90" height="40" viewBox="0 0 90 40" fill="none" xmlns="http://www.w3.org/2000/svg">
<path fill-rule="evenodd" clip-rule="evenodd" d="M10.3681 0.00453711C11.0931 0.028886 11.2412 0.0613512 11.6466 0.272375C11.9039 0.402236 12.2858 0.678192 12.4963 0.872983C12.7536 1.11647 12.9796 1.44924 13.1667 1.84694C13.4396 2.43131 13.4474 2.48001 13.4474 3.34845C13.4474 4.20878 13.4396 4.27371 13.1823 4.8175C13.0186 5.15838 12.7536 5.53985 12.5197 5.77522C12.3014 5.99436 11.8961 6.28655 11.6154 6.42453C11.1477 6.6599 11.0619 6.67614 10.2512 6.67614C9.44825 6.67614 9.3625 6.6599 8.87137 6.41641C8.56735 6.2622 8.17757 5.97813 7.95149 5.74276C7.73322 5.5155 7.45258 5.10157 7.31226 4.79315C7.07059 4.27371 7.055 4.20066 7.055 3.30787C7.055 2.46378 7.07839 2.33392 7.26548 1.9281C7.38242 1.68461 7.60849 1.32749 7.7722 1.12459C7.9359 0.929795 8.22434 0.661955 8.41923 0.523978C8.61412 0.386001 8.94933 0.207445 9.15981 0.126282C9.47163 0.0126534 9.72109 -0.0116955 10.3681 0.00453711ZM82.3603 0.00453711C83.0541 0.0207697 83.2023 0.0532349 83.6466 0.272375C83.9272 0.410352 84.317 0.686306 84.5119 0.881097C84.7068 1.084 84.9563 1.40866 85.0732 1.60345C85.1823 1.80636 85.3382 2.21217 85.4084 2.49624C85.5019 2.87771 85.5253 3.19424 85.4942 3.63252C85.4552 4.0708 85.3772 4.38734 85.2057 4.75257C85.081 5.02852 84.8003 5.45057 84.5899 5.68595C84.356 5.94567 84.0052 6.22162 83.6778 6.39206C83.1633 6.66802 83.1087 6.67614 82.2824 6.67614C81.4794 6.67614 81.3937 6.66802 80.9026 6.41641C80.6141 6.27032 80.1932 5.97813 79.9749 5.76711C79.7488 5.53985 79.4838 5.17462 79.3512 4.89055C79.2265 4.62271 79.0862 4.1682 79.0394 3.87601C78.9771 3.48643 78.9771 3.21047 79.0394 2.80466C79.0862 2.50436 79.2187 2.06608 79.3356 1.8307C79.4448 1.59533 79.702 1.2301 79.8969 1.01096C80.0996 0.791816 80.4114 0.515862 80.6063 0.402234C80.8012 0.288605 81.0974 0.150629 81.269 0.0938153C81.456 0.0288849 81.9004 -0.00357919 82.3603 0.00453711ZM38.1204 1.95245C38.7596 1.96868 38.9311 2.00926 39.3287 2.21217C39.586 2.34203 39.9757 2.63422 40.194 2.86147C40.4123 3.08873 40.6929 3.48643 40.8177 3.75427C41.0204 4.20067 41.0437 4.32241 41.0437 5.09346C41.0437 5.89697 41.0282 5.98625 40.7943 6.49758C40.6462 6.806 40.3811 7.21181 40.1706 7.42283C39.968 7.63386 39.5704 7.91793 39.2897 8.05591C38.8298 8.28316 38.7129 8.29939 38.0035 8.29939C37.2863 8.29939 37.1771 8.28316 36.7172 8.04779C36.4366 7.90981 36.039 7.61762 35.8363 7.39848C35.6258 7.17934 35.3452 6.76541 35.2126 6.48134C34.9866 5.99436 34.9632 5.88885 34.9632 5.14215C34.9632 4.39545 34.9866 4.27371 35.2049 3.79485C35.3374 3.51078 35.5479 3.14554 35.6804 2.98322C35.8129 2.82901 36.1013 2.5774 36.3352 2.42319C36.5691 2.26898 36.8965 2.09043 37.068 2.03361C37.2551 1.9768 37.6838 1.94433 38.1204 1.95245ZM56.5959 1.95245C57.2508 1.96868 57.3989 2.00114 57.8432 2.2284C58.155 2.39073 58.4981 2.64234 58.7241 2.90206C58.9268 3.12931 59.1919 3.51889 59.3088 3.77861C59.5037 4.20066 59.5193 4.33053 59.5193 5.13404C59.5193 5.92944 59.4959 6.07553 59.3166 6.47323C59.2074 6.72483 58.958 7.09818 58.7709 7.31732C58.5448 7.57704 58.233 7.81241 57.851 8.0072C57.3053 8.28316 57.2274 8.29939 56.5258 8.29939C55.9255 8.29939 55.6838 8.25881 55.3097 8.1046C54.9744 7.96662 54.7094 7.77183 54.3742 7.41472C54.1091 7.14688 53.8207 6.74106 53.7194 6.51381C53.618 6.29467 53.5011 5.88885 53.4543 5.62102C53.3919 5.2639 53.3919 4.99606 53.4621 4.60648C53.5089 4.32241 53.6414 3.90036 53.7427 3.67311C53.8441 3.45397 54.1013 3.08873 54.3118 2.8777C54.5145 2.65856 54.8653 2.38261 55.0758 2.2771C55.2941 2.16347 55.5513 2.04173 55.6605 2.00115C55.7696 1.96868 56.1906 1.94433 56.5959 1.95245ZM10.2122 8.02344C13.385 8.02344 14.1724 8.03967 14.6167 8.14518C14.9207 8.21011 15.4119 8.40491 15.7081 8.56723C16.0121 8.73767 16.4643 9.08668 16.7293 9.35451C17.0022 9.6467 17.314 10.0769 17.4855 10.4096C17.6414 10.7262 17.8207 11.2213 17.8831 11.5053C17.9844 11.9517 18.0078 12.7877 18.0078 21.5695L18.2651 21.4072C18.4054 21.3179 18.6236 21.2449 18.7484 21.2449C18.8809 21.2449 19.107 21.3261 19.2473 21.4316C19.4266 21.5533 19.7306 21.9754 20.1438 22.6896C20.4946 23.2821 20.9 23.9395 21.0481 24.1424C21.1962 24.3534 21.4456 24.5888 21.5938 24.67C21.8354 24.7998 22.0693 24.8161 23.5816 24.8161C25.0628 24.8161 25.3356 24.7998 25.5695 24.6781C25.7176 24.5969 25.9671 24.3615 26.1152 24.1505C26.2633 23.9395 26.6765 23.2821 27.0195 22.6896C27.4405 21.9754 27.7367 21.5533 27.916 21.4316C28.0641 21.3261 28.2902 21.2449 28.4149 21.2449C28.5474 21.253 28.7345 21.3098 28.8437 21.3666C28.9528 21.4316 29.0697 21.4884 29.1009 21.4884C29.1321 21.4884 29.1555 21.4478 29.1555 21.391C29.1555 21.3342 29.7479 19.2807 30.4729 16.8215C31.1979 14.3704 31.8605 12.2115 31.9463 12.0329C32.032 11.8543 32.2659 11.481 32.4608 11.205C32.6947 10.8723 32.9909 10.5801 33.3105 10.369C33.5756 10.1905 33.9731 10.0038 34.1836 9.96324C34.4331 9.90642 35.8753 9.88207 41.9013 9.92265L42.369 10.158C42.6574 10.296 43.0082 10.5638 43.2655 10.8479C43.4994 11.0995 43.819 11.5459 43.9593 11.8381C44.1386 12.179 44.6921 13.9321 45.5418 16.8215C46.602 20.417 46.8592 21.3829 46.8515 21.7562C46.8515 22.0159 46.7969 22.3325 46.7345 22.4623C46.6722 22.6003 46.524 22.787 46.4071 22.8763C46.2902 22.9655 46.0485 23.0792 45.877 23.1279C45.7055 23.1684 45.456 23.1847 45.3157 23.1603C45.1754 23.136 44.9493 23.0142 44.8168 22.8925C44.6843 22.7708 44.5128 22.5435 44.4348 22.3812C44.3569 22.227 43.819 20.4008 43.2265 18.323C42.634 16.2534 42.0961 14.484 42.026 14.4028C41.9558 14.3217 41.8233 14.2649 41.7064 14.2811C41.5816 14.2973 41.4881 14.3785 41.4491 14.5084C41.3945 14.6707 41.7765 16.2209 45.0273 28.509L41.7064 28.5496V33.5248C41.7064 36.5603 41.6752 38.6138 41.6284 38.8004C41.5894 38.9709 41.4413 39.2387 41.301 39.401C41.1607 39.5634 40.9034 39.7663 40.7319 39.8474C40.5604 39.9286 40.272 39.9935 40.0927 39.9935C39.9056 39.9935 39.6249 39.9367 39.469 39.8718C39.3053 39.7987 39.0715 39.6445 38.9545 39.5228C38.8298 39.4092 38.6739 39.1981 38.6037 39.0602C38.4868 38.841 38.4712 38.2972 38.4322 28.5496H37.5747L37.5591 33.6872C37.5357 38.2972 37.5201 38.841 37.411 39.0602C37.333 39.1981 37.1771 39.4092 37.0602 39.5228C36.9355 39.6445 36.7016 39.7987 36.5457 39.8718C36.382 39.9367 36.1091 39.9935 35.9376 39.9935C35.7661 39.9935 35.4933 39.9367 35.3374 39.8718C35.1737 39.7987 34.9398 39.6445 34.8229 39.5228C34.6981 39.4092 34.5422 39.1981 34.4721 39.0602C34.3551 38.841 34.3395 38.2972 34.3006 28.5496L30.9874 28.509L32.8116 21.6101C34.2538 16.1641 34.6202 14.6707 34.5656 14.5084C34.5188 14.3785 34.4253 14.2973 34.3006 14.2811C34.1836 14.2649 34.0589 14.3217 33.9809 14.4028C33.9108 14.484 33.3729 16.2534 32.7882 18.323C32.1958 20.4008 31.6501 22.227 31.5721 22.3812C31.5019 22.5435 31.3304 22.7708 31.1979 22.8925C31.0576 23.0142 30.8393 23.136 30.699 23.1603C30.5587 23.1847 30.2936 23.1684 30.1143 23.1197C29.9272 23.0711 29.6544 22.925 29.2334 22.5435L29.1867 22.7302C29.1555 22.8276 28.5552 24.0044 26.544 27.7785L26.5206 28.4278C26.4972 29.0365 26.5518 29.2719 27.877 34.3527L26.505 34.3933L26.4894 36.7876C26.466 39.0764 26.4582 39.1819 26.3023 39.401C26.2087 39.5309 26.045 39.7013 25.9281 39.7906C25.7956 39.8961 25.5617 39.9611 25.3123 39.9773C25.0004 40.0016 24.8367 39.9611 24.6029 39.815C24.4314 39.7176 24.2209 39.5066 24.1351 39.3442C23.9792 39.0845 23.9714 38.9141 23.9324 34.3933H23.2308L23.2152 36.7308C23.1997 38.7761 23.1763 39.0926 23.0593 39.328C22.9814 39.4741 22.8099 39.6689 22.6696 39.7663C22.5292 39.8637 22.2564 39.9611 22.0615 39.9773C21.8666 40.0016 21.5938 39.9611 21.4379 39.8961C21.2897 39.8393 21.0637 39.6445 20.6973 39.1575L20.6583 34.3933H19.9957C19.5201 34.3933 19.333 34.3689 19.333 34.2959C19.333 34.2391 19.6371 33.046 20.0035 31.6337C20.6271 29.2476 20.6739 29.0365 20.6193 27.7785L17.8909 22.6328L17.657 22.8681C17.5323 22.9899 17.3452 23.136 17.2516 23.1847C17.1503 23.2334 16.9242 23.274 16.7449 23.274C16.5578 23.274 16.285 23.209 16.1369 23.1279C15.9887 23.0386 15.7938 22.8763 15.7081 22.7545C15.56 22.5435 15.5522 22.373 15.5132 18.0471C15.4742 13.6967 15.4742 13.5506 15.3183 13.3802C15.2248 13.2747 15.0689 13.2098 14.913 13.2098C14.7337 13.2098 14.6167 13.2666 14.5388 13.3964C14.4374 13.5588 14.4218 15.0522 14.4218 25.8955C14.4218 33.9225 14.3984 38.3297 14.3439 38.5569C14.2971 38.7436 14.1334 39.0602 13.9775 39.2549C13.8138 39.4497 13.5409 39.6851 13.3694 39.7744C13.1589 39.888 12.9095 39.9448 12.5899 39.9448C12.2702 39.9448 12.0286 39.888 11.8103 39.7744C11.6388 39.6851 11.3971 39.5066 11.2802 39.3767C11.1555 39.2468 10.9996 39.0358 10.9294 38.8978C10.8125 38.6787 10.7969 37.9482 10.7813 31.2685C10.7657 24.3291 10.7579 23.8746 10.6254 23.7528C10.5474 23.6798 10.4149 23.5986 10.3291 23.5661C10.2356 23.5337 10.0953 23.5743 9.74448 23.8421V31.025C9.74448 35.5945 9.72109 38.3378 9.66652 38.5569C9.61975 38.7436 9.45604 39.0602 9.30013 39.2549C9.13642 39.4497 8.86358 39.6851 8.69207 39.7744C8.48159 39.888 8.23213 39.9448 7.91252 39.9448C7.5929 39.9448 7.35123 39.888 7.13296 39.7744C6.96146 39.6851 6.712 39.4822 6.57168 39.3361C6.43915 39.1819 6.26765 38.8978 6.19749 38.6949C6.08835 38.3703 6.08055 36.9824 6.08055 25.9523C6.08055 15.0603 6.07276 13.5588 5.96362 13.3964C5.88566 13.2666 5.76873 13.2098 5.59723 13.2098C5.43352 13.2098 5.2854 13.2747 5.18406 13.3802C5.03595 13.5506 5.02815 13.6967 4.95019 22.5029L4.77869 22.7708C4.67735 22.9168 4.53703 23.0548 4.46687 23.0711C4.34994 23.1116 4.10048 24.3697 2.85318 31.2929C2.04244 35.7893 1.34084 39.5634 1.28627 39.6689C1.2317 39.7825 1.13816 39.9042 1.06799 39.9367C0.997835 39.9692 0.810741 39.9935 0.662625 39.9935C0.475531 39.9935 0.327414 39.9367 0.19489 39.7906C0.0857514 39.6851 0 39.5309 0 39.4497C0 39.3686 0.662625 35.6351 1.48116 31.1468C2.91555 23.2171 2.95453 22.9899 2.81421 22.8276C2.73625 22.7383 2.63491 22.5841 2.58034 22.4867C2.51797 22.3568 2.49459 20.7985 2.49459 17.1299C2.49459 12.7634 2.51018 11.8787 2.61152 11.4647C2.68168 11.1969 2.84539 10.7424 2.98571 10.4502C3.14942 10.1174 3.43006 9.71975 3.78086 9.35451C4.16284 8.96493 4.49805 8.70521 4.87224 8.51042C5.17627 8.36432 5.62841 8.19388 5.88566 8.13707C6.22867 8.05591 7.39801 8.03156 10.2122 8.02344ZM82.1654 8.02344C84.5977 8.01532 86.1958 8.04779 86.492 8.1046C86.7492 8.1533 87.2404 8.33186 87.5834 8.5023C87.9576 8.69709 88.3707 8.98116 88.6202 9.23277C88.8463 9.46003 89.1659 9.87395 89.3452 10.1499C89.5167 10.4259 89.735 10.9128 89.8285 11.2213C90 11.7813 90 11.8624 90 17.065C90 21.9348 89.9922 22.3649 89.8675 22.6084C89.7895 22.7545 89.618 22.9493 89.4777 23.0467C89.3296 23.1522 89.0645 23.2415 88.8307 23.2658C88.5708 23.2875 88.3577 23.255 88.1914 23.1684C88.0511 23.0954 87.8406 22.9006 87.5054 22.438L87.4664 17.9416C87.4275 13.5588 87.4275 13.437 87.2715 13.3234C87.1858 13.2584 86.9987 13.2179 86.8428 13.226C86.6089 13.2503 86.5544 13.2909 86.4764 13.5344C86.4062 13.7535 86.3828 16.8296 86.3828 26.1796C86.3751 36.3493 86.3595 38.5813 86.2737 38.8004C86.2113 38.9465 86.0632 39.19 85.9385 39.3361C85.8138 39.4903 85.5877 39.677 85.4396 39.75C85.2915 39.8312 85.0264 39.9124 84.8549 39.9448C84.6834 39.9692 84.3872 39.953 84.1923 39.9124C83.9974 39.8718 83.6934 39.7257 83.5141 39.5958C83.327 39.4579 83.1009 39.19 82.8281 38.6543L82.7891 31.2523C82.7501 24.2885 82.7423 23.8421 82.6098 23.7041C82.5396 23.623 82.3681 23.5661 82.2356 23.5661C82.1109 23.5743 81.9472 23.6392 81.8692 23.7122C81.7523 23.8421 81.7367 24.4265 81.6977 31.301C81.6587 38.4109 81.6509 38.7598 81.5106 38.9871C81.4327 39.117 81.2923 39.3118 81.1988 39.4173C81.113 39.5228 80.9104 39.6689 80.7622 39.75C80.6141 39.8312 80.3491 39.9124 80.1776 39.9448C80.0061 39.9692 79.7098 39.953 79.5149 39.9124C79.3201 39.8718 79.016 39.7257 78.8367 39.5958C78.6185 39.4335 78.4392 39.1981 78.1117 38.492V26.139C78.1117 15.3362 78.0961 13.7454 77.9948 13.4938C77.8935 13.2585 77.8389 13.2098 77.6284 13.2179C77.4881 13.2179 77.3322 13.2422 77.2854 13.2747C77.2386 13.3072 77.1607 13.4208 77.1139 13.5182C77.0437 13.648 77.0204 14.9223 77.0281 22.3406L76.8489 22.6247C76.7475 22.787 76.5448 22.998 76.3967 23.0954C76.2174 23.2171 76.0147 23.2821 75.7965 23.2821C75.6094 23.2821 75.3365 23.2171 75.1806 23.136C75.0169 23.0548 74.8064 22.8681 74.5258 22.4217V17.1056C74.5258 12.4387 74.5414 11.7407 74.6505 11.343C74.7207 11.0995 74.8844 10.6775 75.0169 10.4096C75.1572 10.1174 75.469 9.70351 75.8042 9.35451C76.1083 9.04609 76.537 8.68898 76.7475 8.56723C76.9658 8.44549 77.4023 8.27504 77.722 8.18576C78.2676 8.03967 78.5717 8.02344 82.1654 8.02344ZM60.4547 9.92265L60.9537 10.2067C61.2265 10.3691 61.6163 10.6775 61.8112 10.9047C62.0061 11.1239 62.2945 11.5297 62.4426 11.7975C62.6297 12.1384 63.0896 13.5669 64.0251 16.7403C65.1477 20.5144 65.3504 21.2855 65.3582 21.7319C65.3582 22.1052 65.3192 22.3325 65.2178 22.5029C65.1477 22.6409 64.9996 22.8113 64.8904 22.8925C64.7891 22.9737 64.5474 23.0792 64.3603 23.136C64.0485 23.2253 63.9706 23.2171 63.6431 23.0711C63.3703 22.9574 63.2144 22.8194 63.0507 22.5435C62.9026 22.3 62.4816 20.9608 61.7566 18.4042C61.1563 16.3345 60.634 14.5489 60.5873 14.4515C60.5327 14.346 60.4236 14.2649 60.3222 14.2649C60.2209 14.2649 60.0883 14.3217 60.026 14.3947C59.9636 14.4759 59.9168 14.6301 59.9246 14.7437C59.9324 14.8655 60.7354 17.9497 61.702 21.6101C62.6687 25.2706 63.4794 28.3304 63.495 28.4116C63.534 28.5414 63.4171 28.5577 60.2209 28.5901L60.1429 38.8167L59.9324 39.2062C59.7609 39.5147 59.6284 39.6364 59.2698 39.8069C58.9112 39.9773 58.7319 40.0179 58.4201 39.9935C58.1317 39.9692 57.9212 39.888 57.6795 39.7095C57.5002 39.5796 57.2741 39.3442 57.1884 39.1819C57.0325 38.9059 57.0247 38.768 56.9467 28.5901L56.0502 28.5496L56.058 38.6543L55.832 39.1007C55.6527 39.4741 55.5357 39.5877 55.1927 39.7825C54.8419 39.9692 54.686 40.0098 54.3274 39.9854C53.9922 39.9611 53.8051 39.8961 53.5479 39.7095C53.3686 39.5796 53.1425 39.3442 53.0567 39.1819C52.9008 38.9059 52.893 38.768 52.8151 28.5901L49.5019 28.5496L49.5487 28.3304C49.5721 28.2087 50.3828 25.1407 51.3417 21.5127C52.3006 17.8847 53.0879 14.8168 53.0879 14.695C53.0879 14.5733 53.0489 14.4272 52.9944 14.3704C52.9398 14.3136 52.8229 14.2649 52.7371 14.2649C52.6514 14.2649 52.5422 14.3054 52.4877 14.3623C52.4331 14.4272 51.9342 16.0748 51.3729 18.0389C50.8116 20.0031 50.2971 21.7968 50.2269 22.0159C50.1568 22.2432 49.9697 22.5597 49.8216 22.7302C49.6657 22.9006 49.4162 23.0792 49.2681 23.1279C49.12 23.1766 48.8705 23.1928 48.7224 23.1603C48.5743 23.1279 48.317 23.0142 48.1611 22.9087C47.9506 22.7626 47.8337 22.6003 47.7401 22.3244C47.6466 22.0646 47.6232 21.8049 47.6544 21.529C47.6778 21.3098 48.2702 19.1752 48.9796 16.7809C49.689 14.3947 50.3673 12.2196 50.4998 11.9517C50.6245 11.6839 50.9363 11.2375 51.1858 10.9534C51.443 10.6693 51.7705 10.3609 51.9186 10.2635C52.0667 10.1743 52.3317 10.0525 52.5032 9.9957C52.7371 9.91454 53.7583 9.8983 60.4547 9.92265ZM23.7375 17.7955C24.1429 17.8198 24.408 17.8929 24.7744 18.0795C25.0784 18.2337 25.3512 18.4529 25.5227 18.672C25.6709 18.8587 25.8502 19.1428 25.9281 19.297C26.0217 19.4918 26.0762 19.8327 26.1074 20.3115C26.1386 20.9608 26.1152 21.0988 25.9515 21.4884C25.8424 21.74 25.6163 22.0971 25.4526 22.2919C25.2811 22.4867 24.9459 22.7383 24.712 22.86C24.3456 23.0467 24.1819 23.0711 23.5816 23.0711C22.9814 23.0711 22.8177 23.0467 22.4513 22.86C22.2174 22.7383 21.89 22.4948 21.7341 22.3081C21.5704 22.1296 21.3599 21.8211 21.2663 21.6345C21.1494 21.3991 21.0871 21.0907 21.0637 20.6362C21.0403 20.1817 21.0637 19.8732 21.1494 19.581C21.2196 19.3619 21.3989 19.0048 21.5548 18.7938C21.7029 18.5827 21.9991 18.3068 22.2018 18.185C22.4045 18.0633 22.7085 17.9172 22.88 17.8604C23.0671 17.8036 23.4179 17.7711 23.7375 17.7955ZM70.1213 17.7955C70.5266 17.8198 70.7917 17.8929 71.1581 18.0795C71.4621 18.2337 71.735 18.4529 71.9065 18.672C72.0546 18.8587 72.2339 19.1428 72.3118 19.297C72.4054 19.4918 72.4599 19.8327 72.4911 20.3115C72.5223 20.9608 72.4989 21.0988 72.3352 21.4884C72.2261 21.74 72 22.0971 71.8363 22.2919C71.6648 22.4867 71.3296 22.7383 71.0957 22.86C70.7293 23.0467 70.5656 23.0711 69.9654 23.0711C69.4275 23.0711 69.1858 23.0386 68.9129 22.9087C68.7181 22.8113 68.414 22.5922 68.2269 22.4217C68.0398 22.2432 67.7826 21.878 67.6579 21.6101C67.463 21.2043 67.4318 21.0257 67.4318 20.5144C67.4318 20.1817 67.4708 19.784 67.5097 19.6216C67.5487 19.4674 67.6968 19.159 67.845 18.9317C67.9853 18.7126 68.2815 18.4042 68.492 18.2581C68.7025 18.112 69.0299 17.9416 69.2248 17.8766C69.4508 17.8036 69.7783 17.7711 70.1213 17.7955ZM70.1602 24.1992C72.0234 24.2154 72.6938 24.2479 72.9277 24.3372C73.0992 24.4021 73.3954 24.6132 73.5903 24.8161C73.9177 25.1569 74.0269 25.4004 75.0948 28.1843C75.7263 29.84 76.2486 31.2847 76.2486 31.3903C76.2486 31.5039 76.1628 31.723 76.0693 31.8772C75.9524 32.0639 75.7731 32.21 75.5782 32.2749C75.4067 32.3399 75.1728 32.3723 75.0559 32.3399C74.8922 32.2993 74.7986 32.1857 74.6661 31.9016C74.5803 31.6906 74.1984 30.6354 73.832 29.5641C73.4578 28.4927 73.1226 27.6324 73.0836 27.6405C73.0368 27.6486 72.99 29.7589 72.9667 33.4193C72.9277 39.1251 72.9277 39.1738 72.764 39.401C72.6704 39.5309 72.5067 39.7013 72.3898 39.7906C72.2261 39.9124 72.0546 39.9529 71.6804 39.9529C71.2984 39.9529 71.1347 39.9205 70.9632 39.7825C70.8463 39.6932 70.667 39.4903 70.5656 39.3361C70.3941 39.0683 70.3941 39.0277 70.3941 36.6253C70.3941 34.8316 70.3707 34.1417 70.2928 33.9875C70.2304 33.8576 70.1213 33.7764 69.9809 33.7683C69.8406 33.7521 69.7393 33.8008 69.6535 33.9307C69.5522 34.0849 69.5366 34.515 69.5366 36.5847C69.5444 39.0277 69.5366 39.0683 69.3651 39.3361C69.2638 39.4903 69.0845 39.6932 68.9675 39.7825C68.796 39.9205 68.6323 39.9529 68.2503 39.9529C67.8761 39.9529 67.7046 39.9124 67.5487 39.7906C67.4318 39.7013 67.2681 39.539 67.1901 39.4254C67.1044 39.3199 67.003 39.0764 66.9641 38.8978C66.9251 38.7112 66.8939 36.2357 66.8861 33.0784C66.8861 29.0933 66.8627 27.5837 66.8003 27.5999C66.7536 27.6081 66.3872 28.6956 65.9896 30.0105C65.4049 31.9665 65.2334 32.4454 65.0619 32.5915C64.9372 32.7051 64.7579 32.77 64.5864 32.77C64.4383 32.77 64.22 32.7213 64.1031 32.6645C63.9861 32.5996 63.8458 32.4535 63.7912 32.3399C63.7367 32.2181 63.6899 32.0314 63.6899 31.9178C63.6899 31.8123 63.7445 31.5445 63.8146 31.3334C63.8848 31.1224 64.2746 30.0673 64.68 28.9959C65.0853 27.9246 65.6232 26.6098 65.8805 26.0741C66.1299 25.5384 66.4495 24.9784 66.5899 24.8242C66.7302 24.67 66.9329 24.4914 67.042 24.4184C67.1511 24.3534 67.346 24.2723 67.4708 24.2398C67.6033 24.2073 68.8116 24.1911 70.1602 24.1992Z" fill="white"/>
</svg>
