<svg width="54" height="40" viewBox="0 0 54 40" fill="none" xmlns="http://www.w3.org/2000/svg">
<path fill-rule="evenodd" clip-rule="evenodd" d="M39.1413 7.50695C39.0155 7.6594 36.4058 10.9643 33.3413 14.8522L27.77 21.9206C27.7667 37.9635 27.783 39.7876 27.8488 39.8534C27.914 39.9185 29.1491 39.9355 33.798 39.9348C38.4038 39.9335 39.6813 39.9159 39.7432 39.8521C39.8051 39.7883 39.8227 36.2202 39.8214 23.6307C39.8207 13.0033 39.7986 7.44637 39.7556 7.36037C39.7172 7.28285 39.6253 7.23008 39.5302 7.23008C39.4214 7.23008 39.2976 7.31868 39.1413 7.50695ZM36.4357 13.4841C37.226 12.4985 37.9217 11.6561 37.9817 11.6112C38.0422 11.5662 38.1139 11.5297 38.1419 11.5297C38.1693 11.5297 38.2507 11.5591 38.3224 11.5949C38.4488 11.6581 38.4527 11.7245 38.4514 13.5981C38.4494 15.3434 38.4383 15.548 38.3374 15.6522C38.2357 15.7571 38.0794 15.7682 36.71 15.7662C35.4527 15.7649 35.1791 15.748 35.0976 15.6665C35.0442 15.6125 34.9999 15.503 34.9993 15.4222C34.9986 15.3284 35.5133 14.634 36.4357 13.4841ZM34.4768 18.3864C34.4787 17.3512 34.4892 17.2522 34.609 17.1323C34.7328 17.0085 34.826 17.002 36.4657 17.002C37.4866 17.002 38.2455 17.0287 38.3224 17.0672C38.4455 17.1291 38.4527 17.1981 38.454 18.3538C38.4546 19.2261 38.4325 19.5988 38.3758 19.6567C38.3159 19.718 37.8533 19.7375 36.5015 19.7369C34.8918 19.7349 34.695 19.7232 34.5908 19.6229C34.4879 19.5232 34.4748 19.3805 34.4768 18.3864ZM30.6599 20.9434C30.9478 20.5851 31.5452 19.845 31.9876 19.2984C32.5257 18.6346 32.8345 18.305 32.9191 18.305C32.9888 18.305 33.0892 18.3493 33.1432 18.4027C33.2266 18.4861 33.241 18.8698 33.241 21.0411C33.241 23.5167 33.2377 23.5838 33.1107 23.647C33.0331 23.6854 32.2638 23.7121 31.2214 23.7121C29.7446 23.7121 29.4468 23.6965 29.3648 23.6144C29.2996 23.5492 29.267 23.3864 29.267 23.1258C29.267 22.744 29.2775 22.7219 29.7022 22.1649C29.9413 21.8515 30.3719 21.3017 30.6599 20.9434ZM34.467 22.3655C34.4566 21.3277 34.467 21.2027 34.5745 21.0952C34.684 20.9857 34.8351 20.976 36.4429 20.976C37.4787 20.976 38.2455 21.0027 38.3224 21.0411C38.4455 21.103 38.4527 21.1714 38.4527 22.344C38.4527 23.5167 38.4455 23.5851 38.3224 23.647C38.2455 23.6854 37.4905 23.7121 36.482 23.7127C35.0657 23.7127 34.7465 23.6965 34.6253 23.615C34.4833 23.5199 34.4781 23.4802 34.467 22.3655ZM29.2566 26.2723C29.2455 25.1629 29.2527 25.0821 29.37 25.0202C29.4455 24.9798 30.1934 24.9531 31.2703 24.9518C32.7634 24.9505 33.0612 24.9655 33.1432 25.0476C33.2227 25.1271 33.241 25.3623 33.241 26.3179C33.241 27.4613 33.2371 27.4932 33.0944 27.589C32.9713 27.6717 32.6657 27.6847 31.17 27.6704C29.6736 27.6561 29.383 27.6378 29.3309 27.5557C29.297 27.5023 29.2638 26.9245 29.2566 26.2723ZM34.467 26.3394C34.4566 25.3017 34.467 25.1766 34.5745 25.0691C34.684 24.9597 34.837 24.9499 36.4918 24.9486C37.8572 24.9479 38.3093 24.9675 38.3725 25.03C38.4331 25.0912 38.4546 25.4339 38.454 26.3342C38.4527 27.4899 38.4455 27.559 38.3224 27.6209C38.2455 27.6593 37.4905 27.686 36.482 27.6867C35.0657 27.6867 34.7465 27.6704 34.6253 27.589C34.4833 27.4938 34.4781 27.4541 34.467 26.3394ZM29.2527 30.256C29.2436 29.3179 29.2592 29.0645 29.3322 29.002C29.3986 28.9453 29.925 28.9238 31.2507 28.9225C32.6397 28.9218 33.0976 28.9414 33.1608 29.0039C33.2208 29.0645 33.2429 29.4 33.2429 30.2593C33.2429 31.0925 33.2201 31.4554 33.1641 31.5134C33.1042 31.5746 32.6325 31.5948 31.2573 31.5961C29.8683 31.5968 29.4104 31.5772 29.3472 31.5147C29.2879 31.4547 29.2618 31.1049 29.2527 30.256ZM34.4729 30.2476C34.4696 29.2919 34.4853 29.1134 34.5765 29.0261C34.6683 28.9381 34.9387 28.9232 36.4866 28.9212C37.8807 28.9186 38.308 28.9375 38.3699 29.0026C38.4292 29.0645 38.4462 29.415 38.4201 31.5622L36.5309 31.5798C34.7875 31.5955 34.6351 31.5883 34.5589 31.4821C34.5002 31.4 34.4755 31.0424 34.4729 30.2476ZM29.2527 34.23C29.2436 33.2919 29.2592 33.0384 29.3322 32.9759C29.3986 32.9192 29.925 32.8977 31.2507 32.8964C32.6397 32.8958 33.0976 32.9153 33.1608 32.9779C33.2208 33.0384 33.2429 33.3739 33.2429 34.2332C33.2429 35.0664 33.2201 35.4293 33.1641 35.4873C33.1042 35.5485 32.6325 35.5687 31.2573 35.57C29.8683 35.5707 29.4104 35.5511 29.3472 35.4886C29.2879 35.4287 29.2618 35.0788 29.2527 34.23ZM34.4729 34.2287C34.469 33.542 34.4937 33.1042 34.54 33.0235C34.609 32.9042 34.7028 32.8977 36.4514 32.8964C37.8494 32.8958 38.3093 32.9153 38.3725 32.9779C38.4325 33.0384 38.4546 33.3739 38.4546 34.2332C38.4546 35.0664 38.4318 35.4293 38.3758 35.4873C38.3159 35.5485 37.8416 35.5687 36.4527 35.5687C34.6742 35.5687 34.6064 35.5642 34.5439 35.4384C34.5081 35.3668 34.4761 34.8228 34.4729 34.2287Z" fill="white"/>
<path d="M41.2266 23.875C41.2058 23.9284 41.1888 24.544 41.1888 25.243C41.1888 26.4482 41.1953 26.5166 41.3191 26.5785C41.4032 26.6202 43.5445 26.6437 47.3451 26.6437C51.1451 26.6437 53.2871 26.6202 53.3712 26.5785C53.495 26.5166 53.5015 26.4476 53.5021 25.2268C53.5034 24.2743 53.4819 23.9186 53.4207 23.8574C53.3555 23.7922 52.0878 23.7753 47.3015 23.7759C41.9966 23.7772 41.2605 23.789 41.2266 23.875Z" fill="white"/>
<path fill-rule="evenodd" clip-rule="evenodd" d="M41.254 27.6339C41.1764 27.6997 41.1647 28.6482 41.1745 33.7739C41.1843 38.5661 41.2038 39.8528 41.2689 39.9185C41.3347 39.9837 42.5947 40.0006 47.3484 40C52.0585 39.9987 53.3621 39.9811 53.4239 39.9172C53.4852 39.8547 53.5034 38.4475 53.5034 33.7772C53.5034 28.9746 53.4865 27.7017 53.4207 27.6359C53.3555 27.5707 52.0956 27.5538 47.3419 27.5544C42.7732 27.5557 41.323 27.5746 41.254 27.6339ZM42.6794 30.3362C42.6768 29.6411 42.7022 29.1948 42.7484 29.1147C42.8175 28.9948 42.9119 28.9889 44.725 28.9876C46.1758 28.987 46.6481 29.0065 46.7113 29.0691C46.7719 29.1297 46.7927 29.4554 46.7907 30.2919C46.7881 31.2808 46.7732 31.4476 46.6754 31.5479C46.5732 31.6541 46.407 31.6639 44.7393 31.6606C43.1035 31.6573 42.9035 31.645 42.7992 31.5446C42.697 31.4456 42.6826 31.299 42.6794 30.3362ZM48.0833 30.3029C48.0774 29.628 48.0969 29.056 48.1269 29.0326C48.1569 29.0085 49.0337 28.9883 50.0761 28.9876C51.5191 28.987 51.9901 29.0065 52.0533 29.0691C52.1139 29.1297 52.1354 29.4671 52.1347 30.3407C52.1334 31.4639 52.1262 31.5336 52.0031 31.5948C51.9256 31.6332 51.1562 31.6599 50.1139 31.6599C49.0715 31.6599 48.3021 31.6332 48.2246 31.5948C48.1021 31.5336 48.0937 31.4586 48.0833 30.3029ZM42.6755 34.2222C42.665 33.2476 42.6761 33.1238 42.7829 33.0169C42.8924 32.9068 43.0461 32.8977 44.7491 32.8977C46.3041 32.8977 46.6116 32.9134 46.6937 32.9954C46.7732 33.0749 46.7914 33.3095 46.7927 34.2495C46.7934 35.071 46.7706 35.4293 46.7145 35.4873C46.6546 35.5485 46.1673 35.5687 44.7263 35.5687C42.8826 35.5687 42.8155 35.5642 42.7523 35.4384C42.7165 35.3668 42.682 34.8195 42.6755 34.2222ZM48.08 34.23C48.0709 33.2919 48.0865 33.0384 48.1595 32.9759C48.2259 32.9192 48.7595 32.8977 50.1106 32.8964C51.5262 32.8958 51.9901 32.9153 52.0533 32.9779C52.1132 33.0384 52.1354 33.3739 52.1354 34.2332C52.1354 35.0664 52.1125 35.4293 52.0565 35.4873C51.9966 35.5485 51.5184 35.5687 50.1171 35.57C48.7015 35.5707 48.2376 35.5511 48.1745 35.4886C48.1152 35.4287 48.0891 35.0788 48.08 34.23Z" fill="white"/>
<path fill-rule="evenodd" clip-rule="evenodd" d="M14.1837 0.118058C14.0684 0.232716 14.0645 0.933041 14.0762 19.9225C14.084 32.8919 14.1101 39.6521 14.1531 39.7381C14.2176 39.8671 14.2834 39.8684 20.1466 39.8684C26.0097 39.8684 26.0755 39.8671 26.14 39.7381C26.183 39.6521 26.2058 32.9095 26.2071 19.9173C26.2091 1.11089 26.2039 0.221641 26.0931 0.114149C25.985 0.00991539 25.5765 0.00209783 20.14 0.000143444C14.57 -0.00115948 14.2971 0.00405207 14.1837 0.118058ZM16.0977 6.96428C16.0912 6.15517 16.1101 5.47308 16.1401 5.44963C16.17 5.42553 16.8332 5.40598 19.0352 5.40598L19.0065 8.56558L17.6059 8.58187C16.5433 8.59359 16.1935 8.57796 16.1576 8.51672C16.1309 8.47177 16.1042 7.7734 16.0977 6.96428ZM21.3518 8.56558L21.3342 6.98578L21.3166 5.40598H24.1856V8.59815L21.3518 8.56558ZM16.1218 13.8424C16.1114 13.0542 16.1199 12.3428 16.1401 12.2613L16.1772 12.1134L19.0065 12.1486L19.0391 15.3082L16.1401 15.2756L16.1218 13.8424ZM21.3081 13.7558C21.3023 12.9017 21.3218 12.1832 21.3518 12.1597C21.3817 12.1356 22.0312 12.1161 24.1856 12.1161V15.3082H21.3192L21.3081 13.7558ZM16.0919 20.4515C16.0834 19.2639 16.099 18.9675 16.1726 18.9043C16.2371 18.8489 16.6469 18.8268 17.57 18.8274C18.2886 18.8274 18.9127 18.8496 18.957 18.8763C19.0189 18.9128 19.0345 19.2958 19.0065 22.0509L17.6384 22.0658C16.626 22.0769 16.2482 22.06 16.1863 22.0007C16.1225 21.9401 16.099 21.5584 16.0919 20.4515ZM21.3413 20.5212C21.3355 19.6802 21.3426 18.9538 21.3576 18.9076C21.3778 18.8418 21.6821 18.8274 24.1531 18.8587V22.0509H21.3518L21.3413 20.5212ZM16.1296 27.2639C16.1238 26.4404 16.1309 25.729 16.1453 25.6828C16.1661 25.617 16.4762 25.6026 19.0065 25.6339L19.0391 28.7935L16.1401 28.7609L16.1296 27.2639ZM21.3192 28.7935V27.1974V25.6013H24.1856V28.7935H21.3192ZM16.0919 33.9368C16.0834 32.7401 16.0984 32.4528 16.1739 32.3883C16.2417 32.3303 16.6306 32.3134 19.0065 32.344V35.5362L17.6384 35.5511C16.626 35.5622 16.2482 35.5453 16.1863 35.486C16.1225 35.4254 16.099 35.0436 16.0919 33.9368ZM21.3413 34.0065C21.3355 33.1655 21.3426 32.4391 21.3576 32.3928C21.3778 32.327 21.6821 32.3127 24.1531 32.344V35.5362H21.3518L21.3413 34.0065Z" fill="white"/>
<path d="M3.07627 24.587C1.42351 26.7525 0.0730265 28.5779 0.0756324 28.6424C0.0775868 28.7075 0.116023 28.7981 0.161625 28.8437C0.227423 28.9088 1.50234 28.9258 6.31925 28.9251C12.3284 28.9238 12.3948 28.9225 12.4593 28.7935C12.4951 28.7218 12.5244 28.6339 12.5244 28.5981C12.5244 28.5622 11.2157 26.8398 9.61696 24.7707C8.01762 22.7017 6.63261 20.9271 6.5388 20.8281C6.44499 20.7284 6.30297 20.6483 6.22414 20.6489C6.11144 20.6496 5.43587 21.4952 3.07627 24.587Z" fill="white"/>
<path d="M0.112114 30.0854C-0.00124043 30.1987 -0.00645202 30.4326 0.00331993 34.9551C0.0117889 38.6905 0.0319838 39.7231 0.0964787 39.7883C0.159671 39.8508 0.645011 39.8703 2.14989 39.8697L4.12057 39.8684C4.12057 34.2945 4.13295 33.9283 4.22285 33.8424C4.30884 33.7603 4.62285 33.7446 6.19352 33.7433C7.61567 33.7427 8.08146 33.7622 8.144 33.8248C8.2085 33.8893 8.22674 34.5681 8.22544 36.8879L8.22478 39.8684C11.8091 39.8684 12.3218 39.8488 12.3818 39.787C12.443 39.7244 12.4612 38.5876 12.4599 34.901C12.4593 30.1622 12.4573 30.0958 12.329 30.0313C12.245 29.9889 10.0736 29.9661 6.21502 29.9661C0.504295 29.9661 0.225469 29.9714 0.112114 30.0854Z" fill="white"/>
</svg>
