<svg width="41" height="40" viewBox="0 0 41 40" fill="none" xmlns="http://www.w3.org/2000/svg">
<path d="M13.1781 6.89172C13.1537 6.82344 13.9363 6.01427 16.5539 3.40127C18.7888 1.17096 19.9965 0 20.0637 0C20.131 0 21.3274 1.16076 23.5689 3.40127C26.1024 5.93376 26.9646 6.82548 26.9447 6.89172C26.9187 6.97631 26.5468 6.98089 20.0637 6.98089C13.5827 6.98089 13.2087 6.97631 13.1781 6.89172Z" fill="white"/>
<path d="M2.12641e-05 20C-0.00660294 19.9725 1.53531 18.4071 3.42677 16.5223C5.31824 14.638 6.8948 13.0955 6.92996 13.0955C6.96512 13.0955 7.00537 13.1302 7.01913 13.172C7.0334 13.2143 7.04461 16.2869 7.04461 20C7.04461 23.7136 7.0334 26.7862 7.01913 26.828C7.00537 26.8703 6.96512 26.9045 6.92996 26.9045C6.8948 26.9045 5.32435 25.3626 3.43951 23.4777C1.55467 21.5929 0.00715502 20.028 2.12641e-05 20Z" fill="white"/>
<path d="M33.0298 20.0127C33.0308 16.2925 33.0451 13.2143 33.0619 13.172C33.0782 13.1302 33.1297 13.0955 33.1766 13.0955C33.2229 13.0955 34.7919 14.6262 36.6624 16.4968C38.533 18.3674 40.0637 19.9327 40.0637 19.9745C40.0637 20.0168 38.5177 21.599 36.6278 23.4904C33.5195 26.6018 33.1837 26.9228 33.1093 26.8535C33.0349 26.7842 33.0278 26.1707 33.0298 20.0127Z" fill="white"/>
<path d="M12.8015 15.5032C12.8021 14.319 12.8158 13.3162 12.8326 13.2739C12.8586 13.2066 13.707 13.1975 20.0428 13.1975C26.3796 13.1975 27.226 13.2066 27.2484 13.2739C27.2627 13.3162 27.2744 14.319 27.2749 15.5032C27.2754 17.1261 27.2601 17.6718 27.2138 17.7197C27.1649 17.7702 25.6617 17.7839 20.0408 17.7845C14.3694 17.785 12.9167 17.7722 12.8652 17.7208C12.8153 17.6708 12.801 17.1735 12.8015 15.5032Z" fill="white"/>
<path d="M12.7914 24.507C12.7837 22.7032 12.7944 22.3287 12.8535 22.2777C12.908 22.2308 14.587 22.2166 20.0739 22.2166C26.3832 22.2166 27.226 22.2257 27.2484 22.293C27.2627 22.3353 27.2739 23.3325 27.2739 24.5096C27.2739 25.6866 27.2627 26.6843 27.2484 26.7261C27.226 26.7939 26.3832 26.8025 20.0765 26.8036C14.3761 26.8041 12.9167 26.7913 12.8652 26.7399C12.8158 26.6899 12.799 26.1789 12.7914 24.507Z" fill="white"/>
<path d="M16.5605 36.5987C14.6492 34.6879 13.1593 33.1587 13.1593 33.1083C13.1593 33.0237 13.521 33.0191 20.0382 33.0191C25.4961 33.0191 26.9218 33.0324 26.9386 33.0828C26.9503 33.118 25.4196 34.6884 23.5373 36.5732C21.6551 38.4581 20.0805 40 20.0382 40C19.9965 40 18.4311 38.4693 16.5605 36.5987Z" fill="white"/>
</svg>
