<svg width="90" height="38" viewBox="0 0 90 38" fill="none" xmlns="http://www.w3.org/2000/svg">
<path fill-rule="evenodd" clip-rule="evenodd" d="M10.3681 0.00431025C11.0931 0.0274417 11.2412 0.0582836 11.6466 0.258756C11.9039 0.382124 12.2858 0.644282 12.4963 0.829334C12.7536 1.06065 12.9796 1.37678 13.1667 1.75459C13.4396 2.30975 13.4474 2.35601 13.4474 3.18103C13.4474 3.99834 13.4396 4.06002 13.1823 4.57662C13.0186 4.90046 12.7536 5.26286 12.5197 5.48646C12.3014 5.69465 11.8961 5.97222 11.6154 6.1033C11.1477 6.3269 11.0619 6.34233 10.2512 6.34233C9.44825 6.34233 9.3625 6.32691 8.87137 6.09559C8.56735 5.94909 8.17757 5.67923 7.95149 5.45562C7.73322 5.23973 7.45258 4.84649 7.31226 4.5535C7.07059 4.06003 7.055 3.99063 7.055 3.14248C7.055 2.34059 7.07839 2.21722 7.26548 1.8317C7.38242 1.60038 7.60849 1.26112 7.7722 1.06836C7.9359 0.883305 8.22434 0.628857 8.41923 0.497779C8.61412 0.366701 8.94933 0.197072 9.15981 0.119967C9.47163 0.0120207 9.72109 -0.0111107 10.3681 0.00431025ZM82.3603 0.00431025C83.0541 0.0197312 83.2022 0.0505731 83.6466 0.258756C83.9272 0.389834 84.317 0.651991 84.5119 0.837042C84.7068 1.0298 84.9563 1.33823 85.0732 1.52328C85.1823 1.71604 85.3382 2.10156 85.4084 2.37143C85.5019 2.73382 85.5253 3.03453 85.4942 3.4509C85.4552 3.86726 85.3772 4.16797 85.2057 4.51494C85.081 4.7771 84.8003 5.17804 84.5899 5.40165C84.356 5.64838 84.0052 5.91054 83.6778 6.07246C83.1633 6.33462 83.1087 6.34233 82.2824 6.34233C81.4794 6.34233 81.3937 6.33462 80.9026 6.09559C80.6141 5.9568 80.1932 5.67923 79.9749 5.47875C79.7488 5.26286 79.4838 4.91589 79.3512 4.64602C79.2265 4.39158 79.0862 3.95979 79.0394 3.68221C78.9771 3.31211 78.9771 3.04995 79.0394 2.66443C79.0862 2.37914 79.2187 1.96277 79.3356 1.73917C79.4448 1.51556 79.702 1.16859 79.8969 0.960408C80.0996 0.752225 80.4114 0.490069 80.6063 0.382122C80.8012 0.274175 81.0975 0.143098 81.269 0.0891245C81.456 0.0274407 81.9004 -0.00340023 82.3603 0.00431025ZM38.1204 1.85483C38.7596 1.87025 38.9311 1.9088 39.3287 2.10156C39.586 2.22493 39.9757 2.50251 40.194 2.7184C40.4123 2.93429 40.6929 3.31211 40.8177 3.56656C41.0204 3.99063 41.0437 4.10629 41.0437 4.83879C41.0437 5.60212 41.0281 5.68694 40.7943 6.1727C40.6462 6.4657 40.3811 6.85122 40.1706 7.05169C39.968 7.25216 39.5704 7.52203 39.2897 7.65311C38.8298 7.869 38.7129 7.88442 38.0035 7.88442C37.2863 7.88442 37.1771 7.869 36.7172 7.6454C36.4366 7.51432 36.039 7.23674 35.8363 7.02856C35.6258 6.82037 35.3452 6.42714 35.2126 6.15727C34.9866 5.69465 34.9632 5.59441 34.9632 4.88504C34.9632 4.17568 34.9866 4.06003 35.2049 3.60511C35.3374 3.33524 35.5479 2.98827 35.6804 2.83406C35.8129 2.68756 36.1013 2.44853 36.3352 2.30203C36.5691 2.15554 36.8965 1.9859 37.068 1.93193C37.2551 1.87796 37.6838 1.84712 38.1204 1.85483ZM56.5959 1.85483C57.2508 1.87025 57.3989 1.90109 57.8432 2.11698C58.155 2.27119 58.4981 2.51022 58.7241 2.75695C58.9268 2.97285 59.1919 3.34295 59.3088 3.58968C59.5037 3.99063 59.5193 4.114 59.5193 4.87734C59.5193 5.63296 59.4959 5.77175 59.3166 6.14957C59.2075 6.38859 58.958 6.74327 58.7709 6.95145C58.5448 7.19819 58.233 7.42179 57.851 7.60684C57.3053 7.869 57.2274 7.88442 56.5258 7.88442C55.9255 7.88442 55.6838 7.84587 55.3097 7.69937C54.9744 7.56829 54.7094 7.38324 54.3742 7.04398C54.1091 6.78954 53.8207 6.40401 53.7194 6.18812C53.618 5.97993 53.5011 5.59441 53.4543 5.33997C53.3919 5.0007 53.3919 4.74626 53.4621 4.37616C53.5089 4.10629 53.6414 3.70534 53.7427 3.48945C53.8441 3.28127 54.1013 2.93429 54.3118 2.73382C54.5145 2.52563 54.8653 2.26348 55.0758 2.16325C55.2941 2.0553 55.5513 1.93964 55.6605 1.90109C55.7696 1.87025 56.1906 1.84712 56.5959 1.85483ZM10.2122 7.62227C13.385 7.62227 14.1724 7.63769 14.6167 7.73792C14.9207 7.79961 15.4119 7.98466 15.7081 8.13887C16.0121 8.30079 16.4643 8.63234 16.7293 8.88679C17.0022 9.16436 17.314 9.57302 17.4855 9.88915C17.6414 10.1899 17.8207 10.6602 17.8831 10.9301C17.9844 11.3541 18.0078 12.1483 18.0078 20.4911L18.2651 20.3369C18.4054 20.252 18.6236 20.1826 18.7484 20.1826C18.8809 20.1826 19.107 20.2597 19.2473 20.36C19.4266 20.4756 19.7306 20.8766 20.1438 21.5551C20.4946 22.118 20.9 22.7425 21.0481 22.9353C21.1962 23.1357 21.4456 23.3594 21.5938 23.4365C21.8354 23.5598 22.0693 23.5753 23.5816 23.5753C25.0628 23.5753 25.3356 23.5598 25.5695 23.4442C25.7176 23.3671 25.9671 23.1435 26.1152 22.943C26.2633 22.7425 26.6765 22.118 27.0195 21.5551C27.4405 20.8766 27.7367 20.4756 27.916 20.36C28.0641 20.2597 28.2902 20.1826 28.4149 20.1826C28.5474 20.1904 28.7345 20.2443 28.8437 20.2983C28.9528 20.36 29.0697 20.414 29.1009 20.414C29.1321 20.414 29.1555 20.3754 29.1555 20.3214C29.1555 20.2675 29.7479 18.3167 30.4729 15.9804C31.1979 13.6519 31.8605 11.6009 31.9463 11.4312C32.032 11.2616 32.2659 10.9069 32.4608 10.6448C32.6947 10.3286 32.9909 10.0511 33.3105 9.85059C33.5756 9.68096 33.9731 9.50363 34.1836 9.46507C34.4331 9.4111 35.8753 9.38797 41.9013 9.42652L42.369 9.65012C42.6574 9.7812 43.0082 10.0356 43.2655 10.3055C43.4994 10.5445 43.819 10.9686 43.9593 11.2462C44.1386 11.57 44.6921 13.2355 45.5418 15.9804C46.602 19.3962 46.8592 20.3137 46.8515 20.6684C46.8515 20.9151 46.7969 21.2158 46.7345 21.3392C46.6722 21.4703 46.524 21.6476 46.4071 21.7324C46.2902 21.8173 46.0485 21.9252 45.877 21.9715C45.7055 22.01 45.456 22.0254 45.3157 22.0023C45.1754 21.9792 44.9493 21.8635 44.8168 21.7479C44.6843 21.6322 44.5128 21.4163 44.4348 21.2621C44.3569 21.1156 43.819 19.3808 43.2265 17.4069C42.634 15.4407 42.0961 13.7598 42.026 13.6827C41.9558 13.6056 41.8233 13.5516 41.7064 13.567C41.5816 13.5825 41.4881 13.6596 41.4491 13.7829C41.3945 13.9371 41.7765 15.4099 45.0273 27.0835L41.7064 27.1221V31.8486C41.7064 34.7323 41.6752 36.6831 41.6284 36.8604C41.5894 37.0223 41.4413 37.2768 41.301 37.431C41.1607 37.5852 40.9034 37.778 40.7319 37.8551C40.5604 37.9322 40.272 37.9939 40.0927 37.9939C39.9056 37.9939 39.6249 37.9399 39.469 37.8782C39.3053 37.8088 39.0715 37.6623 38.9545 37.5466C38.8298 37.4387 38.6739 37.2382 38.6037 37.1071C38.4868 36.899 38.4712 36.3824 38.4322 27.1221H37.5747L37.5591 32.0028C37.5357 36.3824 37.5201 36.899 37.411 37.1071C37.333 37.2382 37.1771 37.4387 37.0602 37.5466C36.9355 37.6623 36.7016 37.8088 36.5457 37.8782C36.382 37.9399 36.1091 37.9939 35.9376 37.9939C35.7661 37.9939 35.4933 37.9399 35.3374 37.8782C35.1737 37.8088 34.9398 37.6623 34.8229 37.5466C34.6981 37.4387 34.5422 37.2382 34.4721 37.1071C34.3551 36.899 34.3395 36.3824 34.3006 27.1221L30.9874 27.0835L32.8116 20.5296C34.2538 15.3559 34.6202 13.9371 34.5656 13.7829C34.5188 13.6596 34.4253 13.5825 34.3006 13.567C34.1836 13.5516 34.0589 13.6056 33.9809 13.6827C33.9108 13.7598 33.3729 15.4407 32.7882 17.4069C32.1958 19.3808 31.6501 21.1156 31.5721 21.2621C31.5019 21.4163 31.3304 21.6322 31.1979 21.7479C31.0576 21.8635 30.8393 21.9792 30.699 22.0023C30.5587 22.0254 30.2936 22.01 30.1143 21.9638C29.9272 21.9175 29.6544 21.7787 29.2334 21.4163L29.1867 21.5937C29.1555 21.6862 28.5552 22.8042 26.544 26.3896L26.5206 27.0064C26.4972 27.5847 26.5518 27.8083 27.877 32.6351L26.505 32.6736L26.4894 34.9482C26.466 37.1226 26.4582 37.2228 26.3023 37.431C26.2087 37.5544 26.045 37.7163 25.9281 37.8011C25.7956 37.9013 25.5617 37.963 25.3123 37.9784C25.0004 38.0016 24.8367 37.963 24.6029 37.8242C24.4314 37.7317 24.2209 37.5312 24.1351 37.377C23.9792 37.1303 23.9714 36.9684 23.9324 32.6736H23.2308L23.2152 34.8942C23.1997 36.8373 23.1763 37.138 23.0593 37.3616C22.9814 37.5004 22.8099 37.6854 22.6696 37.778C22.5292 37.8705 22.2564 37.963 22.0615 37.9784C21.8666 38.0016 21.5938 37.963 21.4379 37.9013C21.2897 37.8473 21.0637 37.6623 20.6973 37.1997L20.6583 32.6736H19.9957C19.5201 32.6736 19.333 32.6505 19.333 32.5811C19.333 32.5271 19.6371 31.3937 20.0035 30.0521C20.6271 27.7852 20.6739 27.5847 20.6193 26.3896L17.8909 21.5011L17.657 21.7247C17.5323 21.8404 17.3452 21.9792 17.2516 22.0254C17.1503 22.0717 16.9242 22.1103 16.7449 22.1103C16.5578 22.1103 16.285 22.0486 16.1369 21.9715C15.9887 21.8867 15.7938 21.7324 15.7081 21.6168C15.56 21.4163 15.5522 21.2544 15.5132 17.1447C15.4742 13.0119 15.4742 12.8731 15.3183 12.7112C15.2248 12.6109 15.0689 12.5493 14.913 12.5493C14.7337 12.5493 14.6167 12.6032 14.5388 12.7266C14.4374 12.8808 14.4218 14.2995 14.4218 24.6007C14.4218 32.2264 14.3984 36.4132 14.3439 36.6291C14.2971 36.8064 14.1334 37.1071 13.9775 37.2922C13.8138 37.4773 13.5409 37.7008 13.3694 37.7857C13.1589 37.8936 12.9095 37.9476 12.5899 37.9476C12.2702 37.9476 12.0286 37.8936 11.8103 37.7857C11.6388 37.7008 11.3971 37.5312 11.2802 37.4079C11.1555 37.2845 10.9996 37.084 10.9294 36.9529C10.8125 36.7448 10.7969 36.0508 10.7813 29.7051C10.7657 23.1126 10.7579 22.6808 10.6254 22.5652C10.5474 22.4958 10.4149 22.4187 10.3291 22.3878C10.2356 22.357 10.0953 22.3955 9.74448 22.65V29.4738C9.74448 33.8148 9.72109 36.4209 9.66652 36.6291C9.61975 36.8064 9.45604 37.1071 9.30013 37.2922C9.13642 37.4773 8.86358 37.7008 8.69207 37.7857C8.48159 37.8936 8.23213 37.9476 7.91252 37.9476C7.5929 37.9476 7.35123 37.8936 7.13296 37.7857C6.96146 37.7008 6.712 37.5081 6.57168 37.3693C6.43915 37.2228 6.26765 36.9529 6.19749 36.7602C6.08835 36.4518 6.08055 35.1333 6.08055 24.6547C6.08055 14.3073 6.07276 12.8808 5.96362 12.7266C5.88566 12.6032 5.76873 12.5493 5.59723 12.5493C5.43352 12.5493 5.2854 12.6109 5.18406 12.7112C5.03595 12.8731 5.02815 13.0119 4.95019 21.3778L4.77869 21.6322C4.67735 21.771 4.53703 21.9021 4.46687 21.9175C4.34994 21.9561 4.10048 23.1512 2.85318 29.7282C2.04244 33.9998 1.34084 37.5852 1.28627 37.6854C1.2317 37.7934 1.13815 37.909 1.06799 37.9399C0.997835 37.9707 0.810741 37.9939 0.662624 37.9939C0.475531 37.9939 0.327414 37.9399 0.19489 37.8011C0.0857514 37.7009 0 37.5544 0 37.4772C0 37.4001 0.662624 33.8533 1.48116 29.5894C2.91555 22.0563 2.95453 21.8404 2.81421 21.6862C2.73625 21.6014 2.63491 21.4549 2.58034 21.3623C2.51797 21.239 2.49459 19.7586 2.49459 16.2734C2.49459 12.1252 2.51018 11.2847 2.61152 10.8915C2.68168 10.6371 2.84539 10.2053 2.98571 9.9277C3.14942 9.61157 3.43006 9.23376 3.78086 8.88679C4.16284 8.51668 4.49805 8.26995 4.87224 8.0849C5.17627 7.94611 5.62841 7.78419 5.88566 7.73022C6.22867 7.65311 7.39801 7.62998 10.2122 7.62227ZM82.1654 7.62227C84.5977 7.61456 86.1958 7.6454 86.492 7.69937C86.7492 7.74563 87.2404 7.91527 87.5834 8.07719C87.9576 8.26224 88.3707 8.53211 88.6202 8.77113C88.8463 8.98702 89.1659 9.38025 89.3452 9.64241C89.5167 9.90457 89.735 10.3672 89.8285 10.6602C90 11.1922 90 11.2693 90 16.2117C90 20.838 89.9922 21.2467 89.8675 21.478C89.7895 21.6168 89.618 21.8018 89.4777 21.8944C89.3296 21.9946 89.0645 22.0794 88.8307 22.1026C88.5708 22.1231 88.3577 22.0923 88.1914 22.01C88.0511 21.9406 87.8406 21.7556 87.5054 21.3161L87.4664 17.0445C87.4275 12.8808 87.4275 12.7652 87.2715 12.6572C87.1858 12.5955 86.9987 12.557 86.8428 12.5647C86.6089 12.5878 86.5544 12.6264 86.4764 12.8577C86.4062 13.0659 86.3829 15.9881 86.3829 24.8706C86.3751 34.5318 86.3595 36.6522 86.2737 36.8604C86.2113 36.9992 86.0632 37.2305 85.9385 37.3693C85.8138 37.5158 85.5877 37.6931 85.4396 37.7625C85.2915 37.8396 85.0264 37.9167 84.8549 37.9476C84.6834 37.9707 84.3872 37.9553 84.1923 37.9167C83.9974 37.8782 83.6934 37.7394 83.5141 37.616C83.327 37.485 83.1009 37.2305 82.8281 36.7216L82.7891 29.6897C82.7501 23.0741 82.7423 22.65 82.6098 22.5189C82.5396 22.4418 82.3681 22.3878 82.2356 22.3878C82.1109 22.3955 81.9472 22.4572 81.8692 22.5266C81.7523 22.65 81.7367 23.2051 81.6977 29.7359C81.6587 36.4903 81.6509 36.8219 81.5106 37.0377C81.4327 37.1611 81.2923 37.3462 81.1988 37.4464C81.113 37.5466 80.9104 37.6854 80.7622 37.7625C80.6141 37.8396 80.3491 37.9167 80.1776 37.9476C80.0061 37.9707 79.7098 37.9553 79.5149 37.9167C79.3201 37.8782 79.016 37.7394 78.8367 37.616C78.6185 37.4618 78.4392 37.2382 78.1117 36.5674V24.8321C78.1117 14.5694 78.0961 13.0582 77.9948 12.8191C77.8935 12.5955 77.8389 12.5493 77.6284 12.557C77.4881 12.557 77.3322 12.5801 77.2854 12.611C77.2386 12.6418 77.1607 12.7497 77.1139 12.8423C77.0437 12.9656 77.0204 14.1762 77.0282 21.2236L76.8489 21.4934C76.7475 21.6476 76.5448 21.8481 76.3967 21.9406C76.2174 22.0563 76.0147 22.118 75.7964 22.118C75.6094 22.118 75.3365 22.0563 75.1806 21.9792C75.0169 21.9021 74.8064 21.7247 74.5258 21.3007V16.2503C74.5258 11.8168 74.5414 11.1537 74.6505 10.7759C74.7207 10.5445 74.8844 10.1436 75.0169 9.88915C75.1572 9.61157 75.469 9.21834 75.8042 8.88679C76.1083 8.59379 76.537 8.25453 76.7475 8.13887C76.9658 8.02321 77.4023 7.86129 77.722 7.77648C78.2676 7.63769 78.5717 7.62227 82.1654 7.62227ZM60.4547 9.42652L60.9537 9.69639C61.2265 9.8506 61.6163 10.1436 61.8112 10.3595C62.0061 10.5677 62.2945 10.9532 62.4426 11.2076C62.6297 11.5315 63.0896 12.8885 64.0251 15.9033C65.1477 19.4887 65.3504 20.2212 65.3582 20.6453C65.3582 21 65.3192 21.2158 65.2178 21.3778C65.1477 21.5088 64.9996 21.6708 64.8904 21.7479C64.7891 21.825 64.5474 21.9252 64.3603 21.9792C64.0485 22.064 63.9706 22.0563 63.6431 21.9175C63.3703 21.8096 63.2144 21.6785 63.0507 21.4163C62.9026 21.185 62.4816 19.9128 61.7566 17.484C61.1563 15.5178 60.634 13.8215 60.5873 13.729C60.5327 13.6287 60.4236 13.5516 60.3222 13.5516C60.2209 13.5516 60.0883 13.6056 60.026 13.675C59.9636 13.7521 59.9168 13.8986 59.9246 14.0065C59.9324 14.1222 60.7354 17.0522 61.702 20.5296C62.6687 24.007 63.4794 26.9139 63.495 26.991C63.534 27.1144 63.4171 27.1298 60.2209 27.1606L60.1429 36.8758L59.9324 37.2459C59.7609 37.5389 59.6284 37.6546 59.2698 37.8165C58.9112 37.9784 58.7319 38.017 58.4201 37.9939C58.1317 37.9707 57.9212 37.8936 57.6795 37.724C57.5002 37.6006 57.2741 37.377 57.1884 37.2228C57.0325 36.9606 57.0247 36.8296 56.9467 27.1606L56.0502 27.1221L56.058 36.7216L55.832 37.1457C55.6527 37.5004 55.5357 37.6083 55.1927 37.7934C54.8419 37.9707 54.686 38.0093 54.3274 37.9861C53.9922 37.963 53.8051 37.9013 53.5479 37.724C53.3686 37.6006 53.1425 37.377 53.0567 37.2228C52.9008 36.9606 52.893 36.8296 52.8151 27.1606L49.5019 27.1221L49.5487 26.9139C49.5721 26.7982 50.3829 23.8837 51.3417 20.4371C52.3006 16.9905 53.0879 14.0759 53.0879 13.9603C53.0879 13.8446 53.0489 13.7058 52.9944 13.6519C52.9398 13.5979 52.8229 13.5516 52.7371 13.5516C52.6514 13.5516 52.5422 13.5902 52.4877 13.6441C52.4331 13.7058 51.9342 15.2711 51.3729 17.137C50.8116 19.0029 50.2971 20.707 50.2269 20.9151C50.1568 21.131 49.9697 21.4317 49.8216 21.5937C49.6657 21.7556 49.4162 21.9252 49.2681 21.9715C49.12 22.0177 48.8705 22.0332 48.7224 22.0023C48.5743 21.9715 48.317 21.8635 48.1611 21.7633C47.9506 21.6245 47.8337 21.4703 47.7402 21.2081C47.6466 20.9614 47.6232 20.7147 47.6544 20.4525C47.6778 20.2443 48.2702 18.2165 48.9796 15.9419C49.689 13.675 50.3673 11.6086 50.4998 11.3541C50.6245 11.0997 50.9363 10.6756 51.1858 10.4057C51.443 10.1359 51.7705 9.84288 51.9186 9.75035C52.0667 9.66554 52.3317 9.54989 52.5033 9.49591C52.7371 9.41881 53.7583 9.40339 60.4547 9.42652ZM23.7375 16.9057C24.1429 16.9288 24.408 16.9982 24.7744 17.1756C25.0784 17.3221 25.3512 17.5302 25.5227 17.7384C25.6709 17.9158 25.8502 18.1856 25.9281 18.3321C26.0217 18.5172 26.0762 18.841 26.1074 19.2959C26.1386 19.9128 26.1152 20.0439 25.9515 20.414C25.8424 20.653 25.6163 20.9922 25.4526 21.1773C25.2811 21.3623 24.9459 21.6014 24.712 21.717C24.3456 21.8944 24.1819 21.9175 23.5816 21.9175C22.9814 21.9175 22.8177 21.8944 22.4513 21.717C22.2174 21.6014 21.89 21.3701 21.7341 21.1927C21.5704 21.0231 21.3599 20.7301 21.2663 20.5527C21.1494 20.3291 21.0871 20.0361 21.0637 19.6044C21.0403 19.1726 21.0637 18.8796 21.1494 18.602C21.2196 18.3938 21.3989 18.0545 21.5548 17.8541C21.7029 17.6536 21.9991 17.3914 22.2018 17.2758C22.4045 17.1601 22.7085 17.0213 22.88 16.9674C23.0671 16.9134 23.4179 16.8826 23.7375 16.9057ZM70.1213 16.9057C70.5266 16.9288 70.7917 16.9982 71.1581 17.1756C71.4621 17.3221 71.735 17.5302 71.9065 17.7384C72.0546 17.9158 72.2339 18.1856 72.3118 18.3321C72.4054 18.5172 72.4599 18.841 72.4911 19.2959C72.5223 19.9128 72.4989 20.0439 72.3352 20.414C72.2261 20.653 72 20.9922 71.8363 21.1773C71.6648 21.3623 71.3296 21.6014 71.0957 21.717C70.7293 21.8944 70.5656 21.9175 69.9654 21.9175C69.4275 21.9175 69.1858 21.8867 68.9129 21.7633C68.7181 21.6708 68.414 21.4626 68.2269 21.3007C68.0398 21.131 67.7826 20.7841 67.6579 20.5296C67.463 20.1441 67.4318 19.9745 67.4318 19.4887C67.4318 19.1726 67.4708 18.7948 67.5097 18.6405C67.5487 18.494 67.6968 18.201 67.845 17.9852C67.9853 17.777 68.2815 17.484 68.492 17.3452C68.7025 17.2064 69.0299 17.0445 69.2248 16.9828C69.4508 16.9134 69.7783 16.8826 70.1213 16.9057ZM70.1602 22.9893C72.0234 23.0047 72.6938 23.0355 72.9277 23.1203C73.0992 23.182 73.3954 23.3825 73.5903 23.5753C73.9177 23.8991 74.0269 24.1304 75.0948 26.7751C75.7263 28.348 76.2486 29.7205 76.2486 29.8207C76.2486 29.9287 76.1628 30.1369 76.0693 30.2834C75.9524 30.4607 75.7731 30.5995 75.5782 30.6612C75.4067 30.7229 75.1728 30.7537 75.0559 30.7229C74.8922 30.6843 74.7986 30.5764 74.6661 30.3065C74.5803 30.106 74.1983 29.1037 73.832 28.0859C73.4578 27.0681 73.1226 26.2508 73.0836 26.2585C73.0368 26.2662 72.99 28.2709 72.9667 31.7484C72.9277 37.1688 72.9277 37.2151 72.764 37.431C72.6704 37.5544 72.5067 37.7163 72.3898 37.8011C72.2261 37.9167 72.0546 37.9553 71.6804 37.9553C71.2984 37.9553 71.1347 37.9245 70.9632 37.7934C70.8463 37.7086 70.667 37.5158 70.5656 37.3693C70.3941 37.1149 70.3941 37.0763 70.3941 34.794C70.3941 33.09 70.3707 32.4346 70.2928 32.2881C70.2304 32.1647 70.1213 32.0876 69.9809 32.0799C69.8406 32.0645 69.7393 32.1108 69.6535 32.2341C69.5522 32.3806 69.5366 32.7893 69.5366 34.7555C69.5444 37.0763 69.5366 37.1149 69.3651 37.3693C69.2638 37.5158 69.0845 37.7086 68.9675 37.7934C68.796 37.9245 68.6323 37.9553 68.2503 37.9553C67.8761 37.9553 67.7046 37.9167 67.5487 37.8011C67.4318 37.7163 67.2681 37.5621 67.1901 37.4541C67.1044 37.3539 67.003 37.1226 66.9641 36.9529C66.9251 36.7756 66.8939 34.4239 66.8861 31.4245C66.8861 27.6387 66.8627 26.2045 66.8003 26.2199C66.7536 26.2277 66.3872 27.2609 65.9896 28.51C65.4049 30.3682 65.2334 30.8231 65.0619 30.9619C64.9372 31.0698 64.7579 31.1315 64.5864 31.1315C64.4383 31.1315 64.22 31.0853 64.1031 31.0313C63.9861 30.9696 63.8458 30.8308 63.7912 30.7229C63.7367 30.6072 63.6899 30.4299 63.6899 30.3219C63.6899 30.2217 63.7445 29.9672 63.8146 29.7668C63.8848 29.5663 64.2746 28.5639 64.68 27.5461C65.0853 26.5284 65.6232 25.2793 65.8805 24.7704C66.1299 24.2615 66.4495 23.7295 66.5899 23.583C66.7302 23.4365 66.9329 23.2668 67.042 23.1974C67.1511 23.1358 67.346 23.0586 67.4708 23.0278C67.6033 22.997 68.8116 22.9815 70.1602 22.9893Z" fill="white"/>
</svg>
