<svg width="79" height="40" viewBox="0 0 79 40" fill="none" xmlns="http://www.w3.org/2000/svg">
<path d="M16.6367 0.169753C17.0877 0.12137 17.6043 0.0672473 17.7847 0.0483859C17.9652 0.0303445 18.759 0.029522 19.5479 0.0459233C20.3376 0.0631446 21.3151 0.134491 21.721 0.205836C22.127 0.276362 23.0495 0.484659 23.7712 0.668353C24.4928 0.852046 25.4892 1.15055 25.9854 1.33178C26.4815 1.51301 27.3491 1.89188 27.9125 2.17481C28.4767 2.45691 29.3255 2.94402 29.7986 3.25647C30.2726 3.56891 31.0476 4.13639 31.5208 4.51608C31.994 4.89659 32.8271 5.65023 33.3725 6.19147C33.917 6.73271 34.7084 7.58147 35.1315 8.07761C35.5538 8.57375 36.2296 9.42251 36.633 9.96375C37.0373 10.505 37.7254 11.4825 38.1633 12.1369C38.6012 12.7905 39.2917 13.8795 39.6993 14.5561C40.106 15.2327 40.799 16.4504 41.2377 17.2623C41.6772 18.0742 42.2956 19.2551 42.6113 19.8865C42.9278 20.518 43.4264 21.4586 43.7208 21.9777C44.0144 22.4959 44.5311 23.3447 44.8697 23.8638C45.2076 24.3821 45.8202 25.2481 46.2319 25.7877C46.6427 26.3265 47.4037 27.2097 47.922 27.7484C48.4411 28.288 49.1972 29.0064 49.6031 29.3451C50.0091 29.6846 50.7291 30.2176 51.2023 30.5309C51.6763 30.8442 52.6538 31.3887 53.3754 31.7413C54.0971 32.0931 55.1304 32.531 55.6716 32.7131C56.2128 32.8951 57.0067 33.1174 57.4347 33.2068C57.8636 33.2962 58.6386 33.4118 59.1569 33.4635C59.6997 33.5176 60.4485 33.534 60.92 33.502C61.371 33.4708 62.091 33.379 62.5191 33.297C62.948 33.215 63.5934 33.0493 63.9542 32.928C64.3151 32.8074 64.9244 32.5614 65.3073 32.381C65.6911 32.2014 66.3185 31.8455 66.7014 31.5904C67.0852 31.3346 67.7323 30.7925 68.1398 30.3858C68.5597 29.9659 69.1165 29.2902 69.4265 28.8252C69.7266 28.3741 70.1014 27.7279 70.2589 27.3901C70.4155 27.0514 70.6738 26.3871 70.8329 25.914C70.9912 25.44 71.1946 24.6839 71.2856 24.2328C71.3758 23.7818 71.4873 23.1175 71.5316 22.7567C71.5767 22.3959 71.6382 21.5652 71.6694 20.9116C71.703 20.1825 71.6866 19.2624 71.6259 18.5334C71.5718 17.879 71.4537 16.9384 71.3643 16.4422C71.2749 15.9461 71.0576 15.0973 70.8805 14.5561C70.7042 14.0149 70.4262 13.2948 70.263 12.957C70.1006 12.6183 69.7627 12.0278 69.5134 11.6449C69.2444 11.2316 68.7048 10.5936 68.1882 10.0786C67.7093 9.60129 67.0401 9.02478 66.7014 8.79844C66.3636 8.57211 65.7543 8.2203 65.3483 8.01611C64.9424 7.81273 64.2782 7.52817 63.8722 7.38466C63.4663 7.24115 62.7651 7.03367 62.3141 6.92296C61.8631 6.81307 61.0791 6.66792 60.5715 6.60068C60.0647 6.53343 59.243 6.47849 58.7468 6.47849C58.1572 6.47849 57.5545 6.53754 57.0042 6.64906C56.5425 6.74337 55.7487 6.94593 55.2411 7.1001C54.7343 7.25427 53.9962 7.51997 53.6009 7.68972C53.2065 7.85948 52.5701 8.18258 52.1863 8.40646C51.8034 8.63033 51.1203 9.08957 50.6692 9.42579C50.2182 9.76202 49.3743 10.5001 48.7946 11.0667C48.214 11.6326 47.3988 12.5018 46.9814 12.998C46.5648 13.4941 45.9752 14.2322 45.6709 14.6381C45.3675 15.044 45.0395 15.4213 44.9419 15.4754C44.8443 15.5303 44.6541 15.5779 44.5188 15.5812C44.3793 15.5845 44.1711 15.5057 44.0366 15.3991C43.9062 15.2966 43.67 14.9719 43.5109 14.6791C43.3526 14.3855 42.7499 13.3342 42.1717 12.3419C41.3427 10.9183 41.1204 10.473 41.1188 10.2303C41.1163 9.99902 41.1901 9.82598 41.4165 9.53322C41.5821 9.31918 42.0389 8.77466 42.4325 8.32363C42.8253 7.8726 43.6585 7.00333 44.2842 6.39156C44.9091 5.7798 45.7718 4.9991 46.1999 4.65631C46.6288 4.31353 47.4037 3.75015 47.922 3.4049C48.4411 3.05965 49.4555 2.48479 50.1772 2.12724C50.9759 1.73197 51.9707 1.3203 52.7194 1.0751C53.3959 0.853683 54.4481 0.560105 55.0566 0.423155C55.6659 0.285384 56.5236 0.13449 56.9632 0.0869264C57.4036 0.0393628 58.1785 0 58.6853 0C59.193 0 60.0327 0.0385411 60.551 0.0852847C61.0701 0.132028 61.9188 0.24438 62.4371 0.334587C62.9562 0.424794 63.7492 0.590446 64.2002 0.703615C64.6513 0.816783 65.4082 1.03902 65.8814 1.19811C66.3554 1.3572 67.3329 1.77544 68.0545 2.12806C68.7762 2.48069 69.6988 2.98913 70.1047 3.25729C70.5106 3.52545 71.129 3.97238 71.4783 4.25038C71.8285 4.5292 72.4 5.04256 72.7494 5.39273C73.0996 5.7429 73.6113 6.30546 73.8868 6.64332C74.1632 6.98119 74.6109 7.58967 74.8824 7.9956C75.1538 8.40154 75.5622 9.08383 75.7902 9.51272C76.0173 9.94079 76.37 10.6977 76.5733 11.1938C76.7759 11.69 77.0703 12.5387 77.2269 13.08C77.3836 13.6212 77.5869 14.4511 77.6788 14.9251C77.7706 15.3983 77.9018 16.229 77.9691 16.7703C78.0363 17.3115 78.1167 18.3817 78.147 19.1484C78.1798 19.9775 78.1643 21.0912 78.1085 21.8957C78.056 22.6395 77.9576 23.6358 77.8887 24.1098C77.8198 24.583 77.6698 25.3949 77.555 25.914C77.441 26.4322 77.1835 27.3548 76.9834 27.9641C76.7841 28.5726 76.3486 29.6247 76.0165 30.3013C75.6836 30.9778 75.1637 31.9004 74.8602 32.3514C74.5568 32.8025 74.0959 33.4298 73.836 33.7456C73.5768 34.0613 72.9815 34.6911 72.5132 35.1454C72.0458 35.5989 71.3126 36.2295 70.8838 36.5469C70.4557 36.8634 69.7914 37.3112 69.4076 37.5408C69.0247 37.7712 68.3235 38.1427 67.8495 38.3666C67.3764 38.5897 66.6014 38.9021 66.1274 39.0596C65.6542 39.2178 64.8424 39.4409 64.3233 39.5565C63.805 39.6713 63.085 39.8017 62.7241 39.846C62.3633 39.8911 61.6072 39.9526 61.043 39.9829C60.4337 40.0166 59.5366 39.9993 58.8288 39.9411C58.1753 39.8878 57.16 39.755 56.5737 39.6467C55.9873 39.5385 55.1017 39.3359 54.6055 39.1957C54.1094 39.0555 53.3533 38.8111 52.9244 38.652C52.4963 38.4921 51.4073 38 50.5052 37.558C49.5679 37.098 48.3911 36.4403 47.758 36.0229C47.1495 35.621 46.2639 34.9822 45.7899 34.6033C45.3167 34.2245 44.4909 33.4897 43.9554 32.969C43.4191 32.449 42.6466 31.6355 42.2373 31.1624C41.8281 30.6884 41.1639 29.8585 40.7612 29.3172C40.3578 28.776 39.7608 27.9272 39.4352 27.4311C39.1088 26.9349 38.5553 26.0304 38.2059 25.4219C37.8558 24.8126 37.3293 23.8351 37.0365 23.2488C36.7438 22.6624 36.1886 21.5922 35.8031 20.8706C35.4185 20.1489 34.7904 19.023 34.4082 18.3694C34.0261 17.715 33.3626 16.6448 32.9337 15.9912C32.5057 15.3368 31.8775 14.4331 31.5388 13.9821C31.2001 13.531 30.6605 12.8496 30.3399 12.4682C30.0201 12.0861 29.4067 11.4218 28.9778 10.9921C28.5489 10.5616 27.9215 9.98507 27.5837 9.71117C27.2458 9.43727 26.6931 9.02642 26.3544 8.79926C26.0165 8.57129 25.4441 8.23588 25.0833 8.05383C24.7225 7.87096 24.2247 7.64052 23.9762 7.54047C23.7285 7.44124 23.3038 7.28953 23.0331 7.20343C22.7625 7.11814 22.0802 6.93444 21.516 6.79585C20.837 6.62938 20.1867 6.53016 19.5889 6.50063C19.0927 6.47603 18.2628 6.49981 17.7437 6.55393C17.2255 6.60724 16.4505 6.72697 16.0216 6.81964C15.5935 6.91231 14.8735 7.1083 14.4225 7.25509C13.9715 7.40188 13.2892 7.67086 12.9054 7.85291C12.5224 8.03415 11.8582 8.41712 11.4293 8.7025C11.0004 8.98788 10.3189 9.55372 9.91214 9.96211C9.50621 10.3689 8.98465 10.979 8.75258 11.3169C8.5205 11.6555 8.16377 12.264 7.95876 12.67C7.75456 13.0759 7.45688 13.7951 7.29861 14.2691C7.13951 14.7423 6.91728 15.591 6.80493 16.1552C6.69258 16.7186 6.55645 17.6969 6.50233 18.3284C6.44246 19.0328 6.42442 20.0308 6.45558 20.9116C6.48346 21.7005 6.56301 22.7157 6.63108 23.1668C6.69996 23.6178 6.85085 24.3189 6.96648 24.7249C7.08211 25.1308 7.35109 25.832 7.56431 26.283C7.77834 26.734 8.14901 27.3983 8.38929 27.7591C8.62957 28.1199 9.03304 28.6718 9.28726 28.9859C9.54066 29.3 10.0253 29.7937 10.3632 30.0823C10.7019 30.371 11.2365 30.7818 11.5523 30.9967C11.868 31.2107 12.4773 31.5617 12.9054 31.7766C13.3343 31.9914 13.9616 32.2686 14.2995 32.3933C14.6382 32.5179 15.3574 32.7246 15.8986 32.8525C16.8236 33.0706 16.9934 33.0846 18.7278 33.087C20.1965 33.0887 20.7402 33.0583 21.393 32.9353C21.844 32.85 22.4903 32.6926 22.8281 32.5843C23.1668 32.4761 23.8409 32.1948 24.3272 31.9595C24.8127 31.7241 25.2096 31.5035 25.2088 31.4699C25.2071 31.4363 24.6995 30.9524 24.0787 30.3956C23.4587 29.838 22.9019 29.2754 22.8404 29.145C22.7797 29.0138 22.7494 28.8145 22.7732 28.7022C22.797 28.589 22.8839 28.4119 22.9659 28.3077C23.0914 28.1494 24.0631 27.8534 28.9581 26.4831C32.1719 25.5835 34.9396 24.8462 35.1086 24.8446C35.3382 24.8421 35.4743 24.8995 35.6449 25.0701C35.8327 25.2579 35.8728 25.3694 35.8704 25.6884C35.8687 25.9025 35.4423 28.689 34.9232 31.8799C34.4041 35.0708 33.9613 37.7466 33.9391 37.8254C33.917 37.9041 33.7981 38.0443 33.6734 38.1353C33.5381 38.2354 33.3249 38.301 33.1404 38.2994C32.8616 38.2969 32.714 38.1895 31.5618 37.1488C30.8631 36.5174 30.2726 36.0007 30.2497 36.0007C30.2275 36.0007 29.8126 36.2607 29.3271 36.578C28.8425 36.8962 27.9847 37.3899 27.4205 37.6761C26.8571 37.9623 26.0264 38.333 25.5753 38.5011C25.1243 38.6684 24.4231 38.8931 24.0172 38.9997C23.6113 39.1071 22.8183 39.2695 22.2541 39.3605C21.6907 39.4515 20.6755 39.559 19.9989 39.6C19.283 39.6426 18.2555 39.6434 17.5387 39.6016C16.8622 39.5623 15.8478 39.4524 15.2836 39.3564C14.7202 39.2613 13.8156 39.0555 13.2744 38.8988C12.7332 38.7422 11.8844 38.4486 11.3883 38.2452C10.8921 38.0427 10.136 37.69 9.70713 37.4629C9.27906 37.2349 8.52214 36.7773 8.026 36.4452C7.52986 36.1139 6.75491 35.5333 6.30387 35.1552C5.85284 34.7772 5.23041 34.1949 4.91961 33.8604C4.6088 33.5266 4.14383 32.9763 3.88633 32.6385C3.62801 32.2998 3.18518 31.6724 2.90143 31.2444C2.61851 30.8155 2.13304 29.9487 1.82223 29.3172C1.51225 28.6858 1.1137 27.7263 0.938205 27.1851C0.762712 26.6438 0.543756 25.85 0.451909 25.4219C0.359242 24.993 0.220651 24.1631 0.142746 23.5768C0.0361375 22.778 0.00087436 21.9137 5.42978e-05 20.1325C-0.00158583 18.339 0.0336774 17.4919 0.140285 16.6883C0.218191 16.1019 0.376463 15.1605 0.492092 14.5971C0.6069 14.0329 0.883261 13.0185 1.10468 12.3419C1.32691 11.6654 1.74105 10.6321 2.02643 10.0458C2.31099 9.45942 2.70544 8.72136 2.90225 8.40564C3.09825 8.08991 3.51976 7.48225 3.83877 7.055C4.15695 6.62856 4.71295 5.96841 5.07378 5.58872C5.43461 5.20822 6.09886 4.60055 6.54989 4.23808C7.00092 3.87561 7.68404 3.3762 8.06701 3.12772C8.45079 2.88006 9.16999 2.46921 9.66613 2.21417C10.1623 1.95995 10.9561 1.60158 11.4293 1.41871C11.9033 1.23583 12.6963 0.972592 13.1924 0.834002C13.6885 0.695411 14.4823 0.509258 14.9555 0.419871C15.4295 0.330485 16.1856 0.218137 16.6367 0.169753Z" fill="white"/>
</svg>
