<svg width="47" height="40" viewBox="0 0 47 40" fill="none" xmlns="http://www.w3.org/2000/svg">
<path d="M13.6539 0.184547C13.7426 0.135037 13.8854 0.0734367 13.9706 0.0475302C14.0558 0.0216237 14.3068 0.00838379 14.5284 0.0181707C14.7898 0.0302604 15.0126 0.0774663 15.1617 0.153459C15.2883 0.217937 15.4893 0.377406 15.6079 0.50809C15.742 0.655469 15.8376 0.827027 15.86 0.961165C15.8802 1.08033 15.8842 1.28068 15.8687 1.40733C15.8531 1.53802 15.7455 1.78729 15.6205 1.98303C15.4991 2.17301 15.2383 2.66524 15.0408 3.07686C14.8428 3.48849 14.605 4.05843 14.5117 4.3434C14.4185 4.62837 14.2935 5.08202 14.2337 5.35087C14.1479 5.74005 14.1266 6.06474 14.1295 6.93405C14.1335 7.95822 14.1439 8.06127 14.2924 8.54601C14.3793 8.83098 14.5647 9.28463 14.7034 9.55348C14.8422 9.82291 15.0667 10.1885 15.2026 10.3664C15.3384 10.5437 15.6274 10.8937 15.8439 11.1436C16.0609 11.3928 16.4121 11.8563 16.6251 12.1729C16.8376 12.4895 17.1168 12.9691 17.2457 13.238C17.3741 13.5074 17.5451 13.9346 17.6251 14.1879C17.7057 14.4412 17.8157 14.8816 17.8692 15.1666C17.9458 15.5707 17.9607 15.8747 17.9371 16.5482C17.917 17.1113 17.8698 17.5523 17.6948 18.2178L16.1836 18.2322C15.3528 18.2402 14.6723 18.2402 14.6718 18.2322C14.6712 18.2247 14.7242 18.0623 14.7892 17.8723C14.8543 17.6824 14.9481 17.2938 14.9976 17.0088C15.0615 16.6421 15.0759 16.3479 15.0477 16.0013C15.0258 15.7325 14.9452 15.2984 14.8692 15.037C14.7927 14.7762 14.6367 14.3744 14.5221 14.1447C14.4075 13.9156 14.2026 13.5592 14.0661 13.3531C13.9303 13.1476 13.5831 12.7072 13.2953 12.3744C13.0068 12.0422 12.6574 11.6018 12.5181 11.3957C12.3788 11.1902 12.1473 10.8016 12.004 10.5322C11.8606 10.2633 11.6649 9.80967 11.5699 9.5247C11.4743 9.23973 11.3563 8.81889 11.3074 8.58918C11.2584 8.36006 11.1934 7.89374 11.1635 7.55293C11.1283 7.15684 11.1289 6.68592 11.1646 6.24321C11.1957 5.86325 11.274 5.2933 11.3385 4.97667C11.4035 4.66004 11.5734 4.05152 11.7161 3.62378C11.8589 3.19661 12.1393 2.5098 12.3396 2.09817C12.54 1.68655 12.8128 1.18166 12.9458 0.975558C13.0788 0.770033 13.2561 0.528239 13.3402 0.437854C13.4237 0.348045 13.5653 0.234057 13.6539 0.184547Z" fill="white"/>
<path d="M22.4414 0.439581C22.5543 0.318685 22.7753 0.16958 22.9336 0.10798C23.1478 0.0245032 23.3251 0.000899769 23.6245 0.0164437C23.8824 0.029109 24.1104 0.0786183 24.2577 0.154035C24.3844 0.218513 24.5738 0.358408 24.678 0.465489C24.7822 0.571993 24.9031 0.77579 24.9463 0.917988C25.0044 1.11027 25.0102 1.24383 24.9682 1.43612C24.9371 1.57889 24.7983 1.87653 24.6602 2.09817C24.5214 2.31982 24.2785 2.77347 24.1202 3.10565C23.9618 3.4384 23.7413 3.98244 23.6314 4.31462C23.5208 4.64737 23.3833 5.13959 23.3263 5.40844C23.2462 5.78322 23.2226 6.14073 23.2255 6.93405C23.2284 7.8166 23.248 8.03882 23.3562 8.43087C23.4259 8.68417 23.6107 9.15049 23.7667 9.46713C23.9227 9.78376 24.1748 10.2017 24.3268 10.3957C24.4788 10.5897 24.7805 10.9524 24.9975 11.2017C25.214 11.451 25.5295 11.862 25.6976 12.1153C25.8663 12.3687 26.108 12.7705 26.2347 13.0077C26.3619 13.2454 26.5588 13.7118 26.6734 14.0439C26.7879 14.3767 26.9221 14.8689 26.9716 15.1378C27.0211 15.4072 27.0614 15.9253 27.0614 16.2892C27.0614 16.6703 27.02 17.1711 26.9641 17.4694C26.91 17.7543 26.8426 18.0462 26.762 18.2465H25.2652C24.442 18.2465 23.7684 18.2402 23.7684 18.2322C23.7678 18.2247 23.8231 18.0623 23.8899 17.8723C23.9572 17.6824 24.047 17.3329 24.0896 17.0951C24.1328 16.858 24.1685 16.5212 24.1702 16.3467C24.1714 16.1729 24.1334 15.8039 24.0856 15.5264C24.0378 15.2495 23.9192 14.8223 23.8214 14.5765C23.7235 14.3312 23.5226 13.9265 23.3752 13.6772C23.2272 13.4285 22.8991 12.9777 22.6458 12.6755C22.3925 12.3738 22.0597 11.9685 21.9066 11.7757C21.7535 11.5828 21.5076 11.2305 21.3602 10.9927C21.2134 10.7555 20.993 10.3278 20.8709 10.0428C20.7494 9.75785 20.5704 9.22706 20.4742 8.86264C20.3211 8.28234 20.2964 8.07681 20.271 7.19311C20.2491 6.40959 20.2653 6.04517 20.3424 5.55237C20.3971 5.20407 20.5065 4.67328 20.5854 4.37219C20.6637 4.07167 20.826 3.56621 20.9463 3.24957C21.0661 2.93294 21.2601 2.46662 21.3769 2.21331C21.4938 1.96 21.735 1.50693 21.9135 1.20584C22.0914 0.905322 22.3292 0.560478 22.4414 0.439581Z" fill="white"/>
<path d="M31.6578 0.330775C31.7677 0.245572 31.9606 0.137341 32.0873 0.0901331C32.2139 0.0435015 32.4603 0.00262694 32.6342 0.000324141C32.8086 -0.00255436 33.0418 0.0256535 33.1523 0.0636497C33.2634 0.10107 33.4545 0.198364 33.5772 0.280113C33.6998 0.361863 33.8673 0.54551 33.9502 0.687708C34.0567 0.872507 34.0999 1.02967 34.0999 1.23462C34.0999 1.48217 34.0538 1.59962 33.7735 2.06939C33.5944 2.37048 33.3262 2.87537 33.1776 3.192C33.0291 3.50864 32.8236 4.02677 32.72 4.3434C32.6163 4.66004 32.4845 5.13959 32.4263 5.40844C32.3475 5.77344 32.3204 6.14707 32.3198 6.87648C32.3187 7.70664 32.3383 7.93404 32.4494 8.3733C32.5213 8.65827 32.6935 9.12459 32.8316 9.40956C32.9704 9.69453 33.1984 10.0831 33.3394 10.2731C33.4799 10.4631 33.7959 10.8517 34.0418 11.1367C34.287 11.4216 34.6439 11.8879 34.8345 12.1729C35.0251 12.4579 35.253 12.8338 35.3411 13.0077C35.4292 13.1821 35.5841 13.5316 35.6848 13.7849C35.7856 14.0382 35.9168 14.4527 35.9773 14.706C36.0371 14.9593 36.112 15.413 36.1442 15.7135C36.1811 16.0669 36.1822 16.4642 36.1477 16.8361C36.1177 17.1527 36.0469 17.6 35.8869 18.2483L34.3757 18.2477C33.5449 18.2471 32.8645 18.2339 32.8645 18.2178C32.8645 18.2022 32.914 18.0664 32.9744 17.9155C33.0349 17.7653 33.1287 17.4089 33.1828 17.1239C33.2548 16.7468 33.2726 16.4573 33.2479 16.0589C33.2289 15.7584 33.1609 15.3243 33.097 15.0946C33.0326 14.8655 32.9007 14.5028 32.804 14.2886C32.7073 14.075 32.462 13.6542 32.2594 13.3531C32.0567 13.0526 31.6941 12.5863 31.4528 12.3168C31.2122 12.048 30.876 11.6202 30.7062 11.3669C30.5363 11.1136 30.2876 10.6865 30.1535 10.417C30.0193 10.1482 29.8397 9.72043 29.754 9.46713C29.6682 9.21382 29.5496 8.78665 29.4903 8.51722C29.4045 8.12862 29.3826 7.79069 29.3826 6.87648C29.3832 6.02041 29.4085 5.60015 29.4816 5.23573C29.5358 4.96688 29.6474 4.51323 29.7298 4.22826C29.8121 3.94329 29.971 3.46431 30.0833 3.16322C30.1949 2.8627 30.4419 2.30542 30.6313 1.92546C30.8213 1.5455 31.085 1.06652 31.2174 0.860418C31.3504 0.654893 31.5484 0.416554 31.6578 0.330775Z" fill="white"/>
<path d="M0.103694 20.3576C0.171627 20.2678 0.284464 20.1723 0.354699 20.1452C0.424359 20.1181 10.8526 20.1009 46.5759 20.1176L46.7521 20.3191C46.9127 20.5021 46.9259 20.547 46.8966 20.8084C46.8793 20.9667 46.7952 21.4071 46.7095 21.7871C46.6243 22.1671 46.4654 22.7888 46.356 23.1688C46.2466 23.5487 46.0273 24.2096 45.8684 24.6368C45.71 25.0646 45.3364 25.9062 45.0388 26.5078C44.7406 27.1094 44.3215 27.8803 44.1067 28.2205C43.892 28.5602 43.5563 29.0657 43.36 29.3432C43.1637 29.6201 42.7769 30.1319 42.4999 30.4802C42.223 30.8285 41.5028 31.6074 40.8989 32.2107C40.2956 32.814 39.4908 33.5544 39.1108 33.8555C38.7308 34.1566 38.1609 34.5866 37.8443 34.8117C37.5276 35.0362 36.9318 35.4243 36.5201 35.6735C36.1085 35.9228 35.409 36.3108 34.9658 36.5354C34.5225 36.7599 33.8621 37.0725 33.4977 37.2291C33.1339 37.3863 32.5185 37.6286 31.4258 38.0218L31.4252 39.605L31.0896 39.9792L23.8168 39.9965C19.1381 40.0074 16.472 39.9936 16.3419 39.9568C16.2313 39.9251 16.0886 39.8439 16.0252 39.7754C15.9262 39.6683 15.9061 39.5469 15.8525 38.1531L15.0753 37.8802C14.6482 37.7305 14.0132 37.4905 13.6649 37.3471C13.3166 37.2032 12.7081 36.9286 12.312 36.7363C11.9165 36.5434 11.2688 36.2003 10.8727 35.9729C10.4772 35.7461 9.88138 35.3776 9.54862 35.1548C9.21644 34.932 8.69831 34.5636 8.39722 34.3368C8.09671 34.1099 7.65515 33.7582 7.41565 33.555C7.17674 33.3523 6.74899 32.9741 6.46575 32.7145C6.18251 32.4548 5.66035 31.924 5.30514 31.5343C4.94993 31.1445 4.43699 30.5406 4.16526 30.1923C3.89352 29.844 3.45484 29.2355 3.19059 28.8394C2.92635 28.4439 2.52912 27.7962 2.30805 27.4002C2.08755 27.0047 1.76401 26.3697 1.59015 25.9897C1.41629 25.6097 1.14398 24.9494 0.984514 24.5217C0.825621 24.0945 0.614915 23.4595 0.515895 23.1112C0.41745 22.7629 0.271798 22.193 0.192351 21.8447C0.112329 21.4964 0.0323068 21.056 0.0133087 20.866C-0.0154763 20.5701 -0.00281045 20.4975 0.103694 20.3576Z" fill="white"/>
</svg>
