<svg width="57" height="40" viewBox="0 0 57 40" fill="none" xmlns="http://www.w3.org/2000/svg">
<path d="M42.2085 0.457703C42.2647 0.353296 42.4121 0.207127 42.5358 0.13376C42.6927 0.039511 42.8451 -0.000558489 43.042 5.87429e-06C43.2383 0.000570237 43.3952 0.0428969 43.5622 0.140532C43.7787 0.267513 43.8372 0.355553 44.1887 1.08471L46.9727 6.86943C49.2753 11.6552 49.3692 11.8623 49.3692 12.1744C49.3698 12.4199 49.3377 12.5469 49.2387 12.6965C49.1628 12.811 48.9918 12.9504 48.8304 13.0295C48.6071 13.1384 48.5048 13.1576 48.3006 13.1271C48.1611 13.1062 47.9587 13.03 47.8507 12.9583C47.6741 12.841 47.4317 12.3669 45.4823 8.31759C44.2877 5.83721 43.2906 3.80776 43.2658 3.80776C43.2411 3.80776 40.8092 11.8454 37.8621 21.6698C32.5466 39.3869 32.5016 39.5331 32.3031 39.7153C32.1929 39.8158 32.0078 39.927 31.892 39.962C31.7761 39.997 31.5922 40.0099 31.4842 39.9919C31.3757 39.9733 31.2002 39.9005 31.0933 39.8299C30.987 39.7588 30.8498 39.6121 30.7879 39.5037C30.7036 39.3547 30.3048 37.1339 29.1659 30.4739C28.3352 25.6159 27.644 21.6286 27.6294 21.6134C27.6153 21.5976 27.594 21.5976 27.5827 21.6134C27.5715 21.6286 26.567 23.4956 25.351 25.7615C24.1351 28.0274 23.0817 29.9761 23.0097 30.093C22.9371 30.2103 22.7791 30.3543 22.6542 30.4175C22.5305 30.4795 22.328 30.5303 22.2043 30.5303C22.0805 30.5303 21.9096 30.5033 21.8246 30.47C21.7397 30.4367 21.6104 30.3543 21.5378 30.2865C21.4653 30.2188 21.3708 30.0935 21.3269 30.0083C21.283 29.922 20.823 26.8778 20.2904 23.1513C19.7639 19.4649 19.3202 16.3857 19.3044 16.3084C19.2864 16.2215 19.2566 16.1888 19.2268 16.2237C19.1998 16.2548 18.4012 18.0325 17.4518 20.1743C16.5025 22.316 15.6808 24.1446 15.6256 24.2377C15.5705 24.3308 15.4147 24.4634 15.0334 24.6593L0.804165 24.6615L0.551638 24.5345C0.41272 24.464 0.240619 24.3178 0.170316 24.2095C0.0994514 24.1006 0.0263364 23.9228 0.00833892 23.8144C-0.010221 23.7055 0.00327706 23.5215 0.0381472 23.4053C0.0724548 23.2884 0.160192 23.1236 0.232745 23.0384C0.304735 22.9526 0.456588 22.8386 0.570197 22.7845C0.762545 22.6919 1.21304 22.6857 14.1898 22.6823L16.4901 17.4778C17.7555 14.6153 18.85 12.1648 18.9226 12.0333C19.0114 11.8719 19.1329 11.754 19.2938 11.6738C19.4748 11.583 19.6087 11.5587 19.846 11.5751C20.0738 11.5903 20.2116 11.6355 20.3522 11.7421C20.458 11.8228 20.5873 11.9876 20.6396 12.109C20.6987 12.2472 21.1053 14.9432 21.729 19.3277C22.2763 23.1767 22.7335 26.3383 22.7453 26.3541C22.7571 26.3693 22.7763 26.3693 22.7886 26.3541C22.8004 26.3383 23.7909 24.4973 24.9888 22.2624C26.1873 20.0275 27.2278 18.1036 27.3009 17.9874C27.3746 17.8706 27.536 17.7249 27.6598 17.6629C27.7846 17.6002 27.9972 17.55 28.1378 17.55C28.2767 17.55 28.4606 17.5844 28.5456 17.6267C28.6305 17.6691 28.7649 17.7774 28.8437 17.8666C28.9224 17.9563 29.009 18.0929 29.0354 18.1708C29.0613 18.2481 29.7058 21.9509 30.4662 26.3986C31.2272 30.8464 31.8751 34.486 31.906 34.4865C31.937 34.4871 34.2446 26.8733 37.0342 17.5675C39.8238 8.26115 42.1522 0.56211 42.2085 0.457703Z" fill="white"/>
<path d="M44.8698 17.2007C45.0706 17.1013 45.4126 16.9743 45.6291 16.919C45.9008 16.8496 46.1882 16.8225 46.5571 16.8321C47.0532 16.8451 47.1257 16.8626 47.5695 17.0771C47.8321 17.204 48.2117 17.432 48.4131 17.5833C48.6139 17.7351 49.0121 18.0878 49.8169 18.8762L50.3383 18.3728C50.6251 18.0963 51.0368 17.7436 51.2533 17.5901C51.4698 17.4366 51.8619 17.2063 52.1251 17.0788C52.5469 16.8745 52.6594 16.8451 53.0812 16.827C53.3832 16.8141 53.7145 16.8395 53.9811 16.897C54.2128 16.9467 54.5924 17.0816 54.8247 17.1967C55.1396 17.353 55.3685 17.5274 55.7285 17.8869C56.0929 18.2509 56.2662 18.4778 56.44 18.8198C56.5659 19.0681 56.7201 19.4361 56.7819 19.6381C56.8438 19.8396 56.9248 20.2589 56.9613 20.5693C57.0125 20.9994 57.0125 21.2612 56.9636 21.6698C56.9276 21.9644 56.8472 22.3584 56.7836 22.5446C56.7206 22.7308 56.5986 23.0226 56.5125 23.1936C56.4265 23.3641 56.2403 23.6564 56.0997 23.8426C55.9591 24.0289 54.4878 25.5397 49.8175 30.2199L46.6482 27.0313C43.9835 24.35 43.443 23.7794 43.2529 23.4476C43.1291 23.2303 42.9638 22.8748 42.8856 22.6575C42.8074 22.4402 42.7124 22.0463 42.6741 21.7827C42.632 21.4949 42.6185 21.0998 42.6393 20.7951C42.6584 20.5157 42.7383 20.0648 42.8159 19.7933C42.8935 19.5213 43.0307 19.1533 43.1201 18.975C43.209 18.7961 43.4053 18.4868 43.556 18.2876C43.7062 18.0878 43.9812 17.8023 44.1668 17.6527C44.3524 17.5032 44.6685 17.2994 44.8698 17.2007Z" fill="white"/>
</svg>
