<svg width="48" height="39" viewBox="0 0 48 39" fill="none" xmlns="http://www.w3.org/2000/svg">
<path fill-rule="evenodd" clip-rule="evenodd" d="M46.3223 0.00655086C46.5099 0.0235168 46.7943 0.0913817 46.9479 0.164901C47.1071 0.23842 47.3289 0.391114 47.4483 0.50422C47.5621 0.617327 47.727 0.843542 47.8123 1.00755C47.9716 1.30162 47.9716 1.31859 48 3.76734H44.3602V2.608C44.3602 1.59004 44.3716 1.40907 44.4739 1.14893C44.5365 0.984923 44.6673 0.753053 44.7697 0.634292C44.872 0.509875 45.0711 0.345871 45.2133 0.266697C45.3554 0.187522 45.5829 0.0857264 45.7251 0.0461391C45.873 0.00655189 46.1289 -0.0104151 46.3223 0.00655086ZM1.58104 2.52317C1.63791 2.52317 1.64929 5.57139 1.64929 32.6943L2.05877 32.8131C2.28626 32.8809 6.14787 33.9611 18.7962 37.4731L20.3318 37.4674L37.5071 31.9478L37.5242 17.2327C37.5299 7.42633 37.5526 2.52317 37.5924 2.52317C37.6265 2.52317 37.9962 2.79462 39.1848 3.73906L39.1564 33.1411L38.5877 33.3051C38.2749 33.3956 34.0777 34.7133 20.5024 39H18.6256L0 33.8819V3.73906L0.750712 3.13395C1.16588 2.80028 1.54123 2.52883 1.58104 2.52317ZM35.8749 2.52882C35.8806 2.52317 35.8863 8.96458 35.8863 31.1674L28.1972 33.4691C23.9659 34.7359 20.4682 35.7765 20.4341 35.7765C20.3773 35.7765 20.3602 33.3051 20.3602 23.6175C20.3602 14.1618 20.3772 11.4473 20.4284 11.4133C20.4682 11.3907 23.9545 9.38308 28.1801 6.95129C32.4 4.5195 35.8635 2.52882 35.8749 2.52882ZM3.29858 2.57972C3.3327 2.57972 6.8019 4.55909 18.6597 11.3738V23.5723C18.654 35.16 18.6483 35.7708 18.5573 35.7538C18.5005 35.7425 15.0313 34.7076 3.24171 31.1674V16.8707C3.24171 7.38109 3.25877 2.57972 3.29858 2.57972ZM44.3602 5.18117H48V30.6584L47.1071 33.7801C46.6123 35.4994 46.1972 36.9075 46.1801 36.9075C46.163 36.9075 45.7479 35.5163 44.3602 30.715V5.18117Z" fill="white"/>
</svg>
