<svg width="30" height="40" viewBox="0 0 30 40" fill="none" xmlns="http://www.w3.org/2000/svg">
<path fill-rule="evenodd" clip-rule="evenodd" d="M20.0874 0.0285787C20.053 0.0561792 20.0307 0.811835 20.0374 1.70698L20.0493 3.33616C22.9116 3.33243 23.7672 3.34958 23.7978 3.37122C23.8291 3.39285 22.9496 4.31709 21.8448 5.42484C20.7393 6.53259 19.8158 7.43893 19.7934 7.43893C19.7703 7.43893 19.4324 7.22036 19.0423 6.95405C18.6529 6.687 18.0233 6.31924 17.6436 6.13648C17.2647 5.95373 16.685 5.70607 16.3568 5.58522C16.0286 5.46512 15.3572 5.27117 14.8649 5.1548C14.0167 4.95414 13.8802 4.9437 12.254 4.9437C10.7726 4.94444 10.4369 4.96682 9.79239 5.10706C9.38211 5.19583 8.69434 5.39202 8.26317 5.54121C7.83275 5.69115 7.1778 5.96491 6.80855 6.14991C6.4393 6.33566 5.86865 6.66164 5.54042 6.87498C5.2122 7.08833 4.74225 7.43147 4.49608 7.63661C4.24992 7.84174 3.80085 8.25874 3.49799 8.56309C3.19513 8.86818 2.75576 9.36872 2.52228 9.6768C2.28805 9.98414 1.91581 10.5384 1.69501 10.9076C1.47346 11.2769 1.15121 11.9147 0.978145 12.325C0.805083 12.7352 0.581295 13.3559 0.480591 13.705C0.380632 14.0533 0.244867 14.6576 0.179223 15.0477C0.113579 15.4371 0.0389833 16.1256 0.0128748 16.5769C-0.0132338 17.0282 0.00168559 17.7496 0.0456971 18.1807C0.0889627 18.6111 0.179969 19.2325 0.247106 19.5607C0.314242 19.889 0.470893 20.476 0.594722 20.8662C0.719297 21.2556 0.986351 21.9269 1.18925 22.3581C1.39215 22.7885 1.77035 23.4599 2.03069 23.85C2.29029 24.2394 2.75129 24.8436 3.05564 25.1927C3.35924 25.5411 3.89186 26.0662 4.23873 26.3587C4.5856 26.6518 5.15476 27.083 5.50313 27.3165C5.85224 27.5507 6.47287 27.905 6.88315 28.105C7.29343 28.3041 7.99836 28.5883 8.44966 28.736C8.90097 28.8837 9.58128 29.062 9.96172 29.1314L10.6525 29.2582L10.6502 32.8015L6.88315 32.8388V36.3448L10.6502 36.3821L10.6875 40H14.1935L14.2308 36.3821L17.9979 36.3448V32.8388L14.2308 32.8015L14.2681 29.2067C15.5982 28.8711 16.2188 28.6846 16.506 28.5764C16.7932 28.4682 17.3303 28.2288 17.6995 28.0453C18.0688 27.8618 18.5559 27.5932 18.7812 27.4493C19.0072 27.3053 19.46 26.9771 19.7882 26.7205C20.1164 26.4631 20.6729 25.9558 21.0235 25.5926C21.3749 25.2285 21.815 24.7302 22.0015 24.4841C22.1887 24.2379 22.4856 23.8015 22.6624 23.5143C22.8392 23.2271 23.1271 22.69 23.3024 22.3208C23.4777 21.9515 23.7217 21.3473 23.8447 20.9781C23.9678 20.6088 24.1401 19.971 24.2274 19.5607C24.3334 19.0617 24.4005 18.4067 24.4288 17.584C24.4564 16.7903 24.4393 16.0876 24.3796 15.6072C24.3281 15.1969 24.2065 14.5419 24.1081 14.1526C24.0096 13.7624 23.7798 13.0575 23.5963 12.586C23.4136 12.1138 23.0436 11.3589 22.7743 10.9076C22.505 10.4563 22.2857 10.0699 22.2857 10.0498C22.2864 10.0289 23.1682 9.13001 24.2453 8.05136C25.3225 6.9727 26.2296 6.11709 26.2617 6.14916C26.2937 6.18124 26.3191 6.97196 26.3176 7.90515L26.3154 9.60221L29.6349 9.56491V0.0166431C22.2842 -0.0131952 20.1217 0.000978277 20.0874 0.0285787ZM10.6517 8.26173C10.9591 8.2125 11.2612 8.16177 11.3231 8.14984C11.3843 8.13715 11.7707 8.12373 12.1809 8.11925C12.5912 8.11478 13.2454 8.16252 13.6356 8.22592C14.025 8.28933 14.7135 8.46463 15.1648 8.61606C15.6161 8.76674 16.2703 9.05468 16.6194 9.25609C16.9678 9.45675 17.3877 9.7253 17.5518 9.85211C17.716 9.97893 18.0285 10.2348 18.2471 10.4205C18.4649 10.6063 18.8364 10.9934 19.0721 11.2806C19.3086 11.5678 19.6047 11.9535 19.7308 12.1385C19.8569 12.3235 20.097 12.7427 20.2641 13.0709C20.4312 13.3991 20.6483 13.9027 20.7468 14.1899C20.8452 14.4771 20.9885 14.9977 21.0646 15.3461C21.1645 15.8041 21.2026 16.2905 21.2033 17.0991C21.2041 17.8756 21.1653 18.4008 21.0765 18.8148C21.0064 19.143 20.8781 19.6294 20.7908 19.8964C20.7043 20.1635 20.5163 20.6334 20.3745 20.9408C20.2321 21.2489 19.9367 21.7688 19.7181 22.097C19.4995 22.4252 19.0908 22.9422 18.8095 23.245C18.5276 23.5487 18.0121 24.0104 17.6637 24.2722C17.3146 24.5341 16.7104 24.9115 16.321 25.1122C15.9309 25.3121 15.3349 25.5627 14.9969 25.6702C14.6583 25.7768 14.0876 25.9148 13.7288 25.9767C13.3693 26.0387 12.6897 26.0886 12.2182 26.0886C11.746 26.0879 11.0747 26.0379 10.7263 25.9775C10.3772 25.9171 9.82371 25.7806 9.49549 25.6739C9.16727 25.5665 8.66375 25.3688 8.37656 25.233C8.08936 25.098 7.62911 24.8407 7.35385 24.6609C7.07933 24.4818 6.6243 24.1335 6.34382 23.8873C6.06259 23.6411 5.65008 23.2279 5.42629 22.969C5.2025 22.7094 4.8437 22.2231 4.62812 21.8874C4.41328 21.551 4.1149 20.9908 3.9657 20.6424C3.81651 20.294 3.61063 19.6898 3.50843 19.2997C3.36521 18.7529 3.31374 18.3351 3.28464 17.4721C3.25704 16.6448 3.27868 16.1689 3.3667 15.6445C3.43234 15.2543 3.57258 14.6673 3.67926 14.3391C3.78593 14.0108 3.99778 13.4909 4.14921 13.1828C4.30064 12.8755 4.59156 12.372 4.7967 12.0639C5.00109 11.7565 5.48746 11.1822 5.87685 10.7883C6.26699 10.3944 6.83764 9.90358 7.14572 9.69844C7.45306 9.49256 7.95658 9.19791 8.26466 9.04349C8.572 8.88983 9.10909 8.67051 9.4582 8.55788C9.80656 8.44524 10.3436 8.31171 10.6517 8.26173Z" fill="white"/>
<path d="M6.69741 16.2412L6.69815 14.8232V13.4058L17.8495 13.4439L17.8868 16.2412H6.69741Z" fill="white"/>
<path d="M6.72202 19.6376C6.71456 18.9006 6.72277 18.2538 6.73918 18.2009C6.7638 18.1233 7.83872 18.1084 17.8502 18.1427V20.9773H6.73545L6.72202 19.6376Z" fill="white"/>
</svg>
