<svg width="40" height="40" viewBox="0 0 40 40" fill="none" xmlns="http://www.w3.org/2000/svg">
<path fill-rule="evenodd" clip-rule="evenodd" d="M19.3419 8.61076C19.2138 8.62165 18.8871 8.65588 18.6159 8.68647C18.3452 8.71707 17.8551 8.80056 17.5268 8.87213C17.1991 8.94318 16.6504 9.09512 16.3081 9.20921C15.9659 9.3233 15.3591 9.57637 14.9598 9.77188C14.5605 9.96739 13.989 10.2879 13.6892 10.4844C13.39 10.6815 12.9347 11.0181 12.678 11.2333C12.4213 11.4485 11.9763 11.867 11.6896 12.1636C11.4023 12.4603 10.9941 12.9363 10.7825 13.2215C10.571 13.5068 10.2282 14.0316 10.0202 14.3884C9.81278 14.7446 9.52808 15.3166 9.38754 15.6589C9.247 16.0012 9.05149 16.5613 8.95244 16.9035C8.85391 17.2458 8.72219 17.8173 8.65996 18.1741C8.58891 18.5817 8.53653 19.1589 8.51786 19.7299C8.49919 20.3008 8.51216 20.8583 8.55209 21.2338C8.58735 21.5615 8.67396 22.1102 8.74397 22.4525C8.8145 22.7947 8.97733 23.3895 9.10594 23.7749C9.23404 24.1597 9.48866 24.7783 9.67121 25.1491C9.85323 25.5199 10.1462 26.0447 10.322 26.316C10.4973 26.5867 10.8194 27.0301 11.0372 27.3008C11.2555 27.5715 11.6336 27.9915 11.8778 28.2342C12.1221 28.4769 12.4955 28.8156 12.7076 28.9872C12.9197 29.1583 13.2448 29.4068 13.43 29.5385C13.6156 29.6697 14.0004 29.9119 14.2856 30.0757C14.5709 30.2391 15.0376 30.4766 15.3228 30.6026C15.608 30.7286 16.1214 30.9226 16.4637 31.0336C16.806 31.1451 17.378 31.2955 17.7343 31.3681C18.091 31.4407 18.7445 31.5283 19.1863 31.5625C19.8138 31.6118 20.1664 31.6118 20.7939 31.563C21.2363 31.5288 21.8778 31.4433 22.2201 31.3732C22.5623 31.3032 23.041 31.1866 23.2832 31.114C23.5259 31.0413 23.9459 30.8961 24.2166 30.7914C24.4879 30.6866 24.9546 30.475 25.2538 30.3215C25.5536 30.1675 26.0203 29.8947 26.291 29.7148C26.5622 29.5348 26.9823 29.2278 27.2245 29.0328C27.4672 28.8379 27.8753 28.4665 28.132 28.2083C28.3887 27.95 28.7486 27.5528 28.9317 27.3251C29.1147 27.098 29.4269 26.667 29.625 26.3678C29.8231 26.0681 30.1332 25.5199 30.3142 25.1491C30.4952 24.7783 30.7483 24.1597 30.8764 23.7749C31.0045 23.3895 31.1559 22.8647 31.2129 22.608C31.27 22.3513 31.3524 21.867 31.3965 21.532C31.4411 21.1964 31.4769 20.5492 31.4769 20.0929C31.4769 19.6365 31.4411 18.9888 31.3975 18.6538C31.354 18.3183 31.2575 17.7877 31.1834 17.474C31.1087 17.1602 30.9562 16.6349 30.8442 16.3072C30.7322 15.9789 30.504 15.4307 30.3376 15.0885C30.1711 14.7462 29.9097 14.2675 29.7567 14.0254C29.6037 13.7827 29.3393 13.3979 29.1686 13.1697C28.998 12.9415 28.578 12.466 28.2357 12.1133C27.8934 11.7612 27.4153 11.3147 27.1726 11.1218C26.9304 10.9289 26.4984 10.6182 26.2132 10.431C25.928 10.2443 25.3798 9.93887 24.9945 9.75321C24.6097 9.56756 24.0144 9.32226 23.6721 9.20869C23.3298 9.09512 22.7817 8.94317 22.4534 8.87109C22.1257 8.79901 21.6704 8.71707 21.4422 8.68906C21.214 8.66106 20.7006 8.62735 20.3013 8.61439C19.902 8.60142 19.4705 8.59987 19.3419 8.61076ZM19.2537 12.8321C19.3294 12.6864 19.4518 12.5541 19.5789 12.48C19.7334 12.3897 19.8454 12.3648 20.0451 12.3762C20.2297 12.3866 20.3604 12.4307 20.4859 12.5251C20.5839 12.5987 20.7047 12.7444 20.7545 12.8492C20.8375 13.0224 20.8442 13.2324 20.8193 17.3262L20.6767 17.5165C20.5984 17.6213 20.4584 17.7447 20.3656 17.7914C20.2532 17.8474 20.1106 17.8683 19.9377 17.8541C19.7718 17.8401 19.6147 17.7867 19.5001 17.7048C19.402 17.6348 19.2802 17.4838 19.2293 17.3697C19.1453 17.182 19.136 16.9673 19.1319 13.0655L19.2537 12.8321ZM16.7225 15.0314C16.9792 14.8644 17.3878 14.6409 17.63 14.5346C17.8727 14.4283 18.1004 14.3401 18.1356 14.3386C18.1854 14.3365 18.2005 14.587 18.2005 16.5141L17.8763 16.7168C17.6985 16.8283 17.3884 17.0908 17.1882 17.3003C16.988 17.5098 16.7391 17.8209 16.6343 17.9921C16.5301 18.1632 16.3683 18.5252 16.2744 18.7959C16.1157 19.2559 16.1043 19.3347 16.1022 19.9886C16.1007 20.5814 16.1188 20.7484 16.222 21.0777C16.2884 21.2918 16.4393 21.6533 16.5571 21.8815C16.7183 22.1952 16.8848 22.4115 17.239 22.7678C17.6357 23.166 17.784 23.276 18.2005 23.4808C18.4717 23.6136 18.8451 23.7629 19.0302 23.8127C19.2708 23.877 19.5607 23.9024 20.0415 23.9014C20.6664 23.8998 20.7519 23.8874 21.2083 23.7297C21.4795 23.6359 21.841 23.4741 22.0121 23.3693C22.1832 23.2651 22.484 23.0276 22.6806 22.8414C22.8766 22.6557 23.1317 22.3638 23.2474 22.1926C23.363 22.0215 23.5134 21.7534 23.5819 21.5963C23.6503 21.4396 23.7509 21.1243 23.8054 20.8962C23.865 20.6462 23.9039 20.2962 23.9039 20.0146C23.9034 19.7579 23.8718 19.3964 23.8329 19.2107C23.794 19.0256 23.6944 18.7103 23.6114 18.5106C23.5279 18.311 23.3677 18.0092 23.2546 17.8396C23.1416 17.67 22.9093 17.3926 22.7381 17.2235C22.567 17.0544 22.2802 16.8195 21.7746 16.4881L21.7787 14.336L21.9213 14.3645C22.0002 14.3801 22.2973 14.5061 22.5826 14.644C22.8678 14.782 23.2878 15.034 23.516 15.2036C23.7442 15.3732 24.1062 15.6968 24.3209 15.9224C24.535 16.148 24.8192 16.4959 24.9525 16.6956C25.0853 16.8952 25.288 17.2572 25.4026 17.4994C25.5167 17.7421 25.6702 18.1622 25.7428 18.4329C25.816 18.7041 25.8995 19.1708 25.928 19.47C25.9632 19.8388 25.9627 20.1821 25.9269 20.5332C25.8974 20.8184 25.8294 21.2384 25.7755 21.4666C25.7216 21.6948 25.5873 22.0915 25.4768 22.3482C25.3669 22.6049 25.1428 23.0193 24.98 23.2687C24.8166 23.5182 24.5107 23.9035 24.3001 24.1244C24.0891 24.3453 23.7333 24.6591 23.5093 24.8209C23.2847 24.9832 22.8911 25.2207 22.6344 25.3488C22.3777 25.4769 21.9696 25.6392 21.7269 25.7097C21.4847 25.7797 21.1113 25.8658 20.8971 25.9011C20.6529 25.941 20.2292 25.955 19.7562 25.9384C19.1692 25.9182 18.8907 25.8829 18.4857 25.7756C18.2005 25.6999 17.7457 25.5324 17.4744 25.4027C17.2037 25.2731 16.8303 25.0662 16.6447 24.9427C16.4596 24.8193 16.1354 24.5585 15.9249 24.3629C15.7138 24.1674 15.4016 23.821 15.231 23.5928C15.0604 23.3647 14.7954 22.9213 14.6419 22.6075C14.4868 22.2896 14.3033 21.8073 14.2275 21.5185C14.1243 21.1249 14.0849 20.8251 14.0647 20.2739C14.0481 19.8258 14.0621 19.3788 14.1015 19.107C14.1368 18.8648 14.2239 18.4795 14.296 18.2514C14.3681 18.0232 14.504 17.6731 14.5983 17.4735C14.6927 17.2738 14.8913 16.9238 15.0402 16.6956C15.1885 16.4674 15.5225 16.0681 15.7828 15.8078C16.0504 15.5402 16.4585 15.2026 16.7225 15.0314Z" fill="white"/>
<path d="M33.9661 10.8614C32.7257 11.5745 31.6449 12.2222 31.5645 12.3005C31.4842 12.3794 31.3939 12.5251 31.3633 12.6252C31.3327 12.7247 31.3166 12.9244 31.3275 13.0691C31.341 13.2485 31.3898 13.388 31.481 13.5099C31.5547 13.6079 31.7061 13.7344 31.8181 13.791C31.9441 13.8547 32.1205 13.8931 32.2807 13.8916C32.5234 13.8895 32.6883 13.8039 34.8218 12.5769C36.0768 11.8551 37.1368 11.2379 37.1767 11.2058C37.2172 11.1736 37.2924 11.0538 37.3442 10.9397C37.3961 10.8257 37.4391 10.6213 37.4396 10.486C37.4402 10.3501 37.408 10.1753 37.3676 10.097C37.3276 10.0182 37.2281 9.89168 37.1472 9.81493C37.0663 9.73817 36.9361 9.65053 36.8573 9.62045C36.779 9.58986 36.6042 9.56496 36.4683 9.56496C36.2412 9.56496 36.0472 9.66557 33.9661 10.8614Z" fill="white"/>
<path d="M33.7068 19.1527C33.6073 19.2061 33.4605 19.3285 33.3817 19.4249C33.3023 19.5214 33.2235 19.6936 33.2064 19.8076C33.1893 19.9217 33.1898 20.1022 33.2079 20.2095C33.2266 20.3205 33.3122 20.4849 33.4086 20.5938C33.5015 20.6981 33.6705 20.8262 33.7846 20.878C33.976 20.9646 34.1927 20.9724 36.5591 20.974C38.3575 20.9755 39.1806 20.9584 39.3076 20.9164C39.4077 20.8837 39.5773 20.7722 39.6846 20.669C39.7925 20.5658 39.9061 20.3999 39.9377 20.3003C39.9698 20.2002 39.9823 20.0021 39.9662 19.8595C39.946 19.6796 39.891 19.5442 39.7873 19.4187C39.7048 19.3186 39.5576 19.1962 39.4596 19.1464C39.2972 19.0635 39.0499 19.0557 36.585 19.0552C34.0455 19.0552 33.878 19.0609 33.7068 19.1527Z" fill="white"/>
<path d="M31.9696 26.1168C31.884 26.149 31.7455 26.2242 31.662 26.2843C31.578 26.3445 31.4676 26.4871 31.4167 26.6012C31.3654 26.7153 31.3234 26.8957 31.3229 27.0031C31.3218 27.1099 31.3581 27.2847 31.4022 27.392C31.4468 27.4989 31.523 27.629 31.5708 27.6814C31.619 27.7338 32.6738 28.3576 33.9143 29.0676C35.1553 29.7781 36.2521 30.3744 36.3516 30.3931C36.4517 30.4123 36.6384 30.4004 36.7665 30.3672C36.9143 30.3288 37.0704 30.2355 37.1918 30.1131C37.3105 29.9933 37.4065 29.831 37.4443 29.6868C37.492 29.5053 37.4915 29.4016 37.4412 29.2201C37.4018 29.0764 37.3043 28.9162 37.1886 28.8031C37.0849 28.7025 36.0083 28.0537 34.7959 27.3614C33.014 26.3445 32.5473 26.0992 32.3585 26.081C32.2304 26.0691 32.0551 26.0852 31.9696 26.1168Z" fill="white"/>
<path d="M26.7188 31.3509C26.6265 31.3769 26.4746 31.4764 26.3817 31.5719C26.2863 31.6709 26.1821 31.8555 26.1411 31.9997C26.1012 32.1392 26.081 32.3238 26.0955 32.4094C26.11 32.495 26.6639 33.5098 27.3266 34.6653C27.9894 35.8202 28.5972 36.8703 28.6765 36.9989C28.7647 37.141 28.8995 37.2707 29.0214 37.3308C29.1313 37.3853 29.3144 37.4413 29.4285 37.4553C29.5804 37.4745 29.7044 37.448 29.8921 37.3567C30.0565 37.2769 30.1965 37.1586 30.281 37.028C30.3739 36.8853 30.419 36.7365 30.4304 36.5353L30.447 36.247C28.3731 32.6417 27.7301 31.5812 27.6507 31.5174C27.5735 31.4547 27.4283 31.3795 27.3282 31.3499C27.2286 31.3203 27.0886 31.2975 27.017 31.2996C26.946 31.3017 26.8117 31.325 26.7188 31.3509Z" fill="white"/>
<path d="M19.679 33.2412C19.5649 33.2827 19.416 33.3693 19.3481 33.4336C19.2802 33.4974 19.1816 33.6436 19.1287 33.7577C19.0401 33.9501 19.0333 34.1477 19.0312 36.5322C19.0302 37.9438 19.0463 39.1806 19.067 39.2807C19.0888 39.3886 19.1889 39.5493 19.3139 39.6769C19.4482 39.8143 19.6079 39.916 19.7568 39.959C19.9445 40.013 20.0358 40.0135 20.2235 39.9616C20.3521 39.9258 20.5357 39.8226 20.6316 39.7314C20.7281 39.6401 20.8385 39.4897 20.8779 39.3974C20.936 39.261 20.9495 38.7175 20.9495 36.584C20.9495 34.491 20.935 33.904 20.88 33.7707C20.8422 33.6779 20.7255 33.5259 20.6207 33.4336C20.5165 33.3408 20.3438 33.2417 20.2364 33.2132C20.1296 33.1847 20.0072 33.1624 19.9642 33.1639C19.9217 33.165 19.7931 33.1997 19.679 33.2412Z" fill="white"/>
<path d="M12.7817 31.3411C12.6961 31.3608 12.5463 31.4225 12.4483 31.478C12.2979 31.5636 12.0614 31.9432 10.9283 33.9133L9.58616 36.247C9.61572 36.8304 9.6458 36.9185 9.77804 37.0845C9.86516 37.1939 10.0171 37.3246 10.1151 37.3744C10.2126 37.4247 10.3978 37.4646 10.5258 37.4641C10.6545 37.4636 10.8588 37.4169 10.9796 37.3604C11.1108 37.2997 11.2508 37.1794 11.325 37.0637C11.3934 36.9564 11.9691 35.9591 12.6038 34.8468C13.2386 33.7344 13.8039 32.719 13.8604 32.5909C13.9506 32.3845 13.9553 32.3269 13.9014 32.0982C13.8671 31.9556 13.7826 31.7627 13.7126 31.6704C13.6431 31.5776 13.5217 31.4697 13.4429 31.4308C13.3646 31.3919 13.2189 31.3478 13.1188 31.3323C13.0192 31.3172 12.8673 31.3214 12.7817 31.3411Z" fill="white"/>
<path d="M7.25665 26.2299C7.1296 26.2968 6.10383 26.8823 4.97693 27.531C3.85055 28.1792 2.88442 28.7492 2.83048 28.7964C2.77655 28.8441 2.68995 28.9763 2.63705 29.0904C2.58467 29.2045 2.54163 29.3912 2.54163 29.5053C2.54163 29.6194 2.58778 29.8118 2.64431 29.9331C2.71795 30.0908 2.81752 30.1934 2.99332 30.2941C3.16912 30.3947 3.31433 30.4356 3.49895 30.4367C3.74424 30.4382 3.88063 30.3682 6.01255 29.1423C7.25198 28.4292 8.33169 27.7929 8.41103 27.7291C8.50715 27.651 8.58321 27.5127 8.63921 27.3142C8.7087 27.0658 8.71234 26.9813 8.65892 26.8086C8.62417 26.6945 8.5552 26.5426 8.50594 26.4715C8.45667 26.4 8.31354 26.2895 8.18752 26.2257C8.05165 26.1567 7.8634 26.1096 7.72338 26.109C7.57507 26.1085 7.40186 26.1536 7.25665 26.2299Z" fill="white"/>
<path d="M0.542982 19.1371C0.457415 19.1817 0.343325 19.2574 0.289392 19.3056C0.235458 19.3534 0.148854 19.4861 0.0959579 19.6002C0.0435803 19.7143 0.000536949 19.8948 1.83585e-05 20.0021C-0.00101882 20.1089 0.042024 20.2837 0.0954388 20.3911C0.148335 20.4979 0.265018 20.6493 0.354734 20.7281C0.443931 20.8064 0.604695 20.8941 0.711524 20.9226C0.832874 20.9553 1.89132 20.9698 3.52488 20.9615L6.14376 20.9485C6.4575 20.7473 6.60375 20.5959 6.67116 20.4818C6.73858 20.3672 6.79614 20.1815 6.79977 20.0669C6.8034 19.9528 6.78059 19.7776 6.74843 19.678C6.7168 19.5779 6.61464 19.4218 6.52129 19.3311C6.42794 19.2398 6.28741 19.1407 6.20858 19.1107C6.11472 19.0744 5.15169 19.0557 3.38226 19.0557C1.04913 19.0562 0.678335 19.0666 0.542982 19.1371Z" fill="white"/>
<path d="M3.21372 9.61994C3.11415 9.6469 2.94302 9.74492 2.83308 9.83722C2.68476 9.96324 2.61734 10.0721 2.5686 10.2656C2.524 10.4429 2.51829 10.5902 2.55096 10.7323C2.57689 10.8464 2.64172 11.0098 2.6941 11.0953C2.7667 11.2125 3.35634 11.5766 5.08946 12.5733L7.38837 13.8957C8.02105 13.8957 8.09884 13.875 8.26116 13.7531C8.36592 13.6743 8.49816 13.5343 8.5552 13.4419C8.624 13.3292 8.65857 13.1823 8.65892 13.0011C8.65892 12.8321 8.61951 12.6501 8.5552 12.5214C8.49816 12.4074 8.36436 12.258 8.25701 12.1895C8.15018 12.1211 7.10004 11.5143 5.92336 10.8412C4.47079 10.0099 3.72194 9.60956 3.5897 9.59452C3.48287 9.58156 3.31381 9.59349 3.21372 9.61994Z" fill="white"/>
<path d="M10.3962 2.53807C10.3677 2.5474 10.2806 2.56918 10.2017 2.58578C10.1234 2.60237 9.97614 2.69209 9.8745 2.78492C9.77285 2.87722 9.65358 3.0468 9.6095 3.16089C9.56438 3.27758 9.53949 3.45856 9.55193 3.57577C9.56853 3.72771 9.91235 4.37284 10.8365 5.98721C11.5309 7.19916 12.1475 8.25967 12.2071 8.34317C12.2668 8.42718 12.4083 8.53764 12.5224 8.58846C12.6365 8.6398 12.8294 8.6818 12.9503 8.68232C13.0716 8.68336 13.2469 8.65276 13.3392 8.61439C13.432 8.57653 13.5674 8.47748 13.64 8.39399C13.7126 8.31101 13.8028 8.14973 13.8412 8.03564C13.8791 7.92155 13.8993 7.73486 13.8858 7.62077C13.8682 7.4709 13.5046 6.79206 12.5789 5.1834C11.8737 3.95693 11.2342 2.88811 11.1575 2.80825C11.0813 2.72839 10.9018 2.62934 10.7592 2.58733C10.6166 2.54585 10.4885 2.51369 10.474 2.51628C10.46 2.51836 10.4247 2.52821 10.3962 2.53807Z" fill="white"/>
<path d="M19.7568 0.0317192C19.6572 0.0602417 19.4954 0.145808 19.3969 0.222041C19.2988 0.298274 19.177 0.453852 19.1256 0.567941C19.0411 0.757745 19.0333 0.993704 19.0323 3.40722C19.0312 5.49766 19.0452 6.0733 19.1007 6.20761C19.1391 6.29992 19.2677 6.46328 19.386 6.57062C19.5198 6.69094 19.6753 6.77702 19.7956 6.79725C19.903 6.81488 20.0721 6.81488 20.1716 6.79725C20.2717 6.77962 20.4351 6.71116 20.5346 6.6453C20.6347 6.57944 20.769 6.42179 20.8328 6.29525L20.9495 6.065L20.9236 0.603205C20.6773 0.294125 20.5258 0.166034 20.4278 0.118842C20.3298 0.0711317 20.1794 0.0208278 20.0938 0.00630723C20.0083 -0.0082133 19.8568 0.00319676 19.7568 0.0317192Z" fill="white"/>
<path d="M29.0654 2.61067C28.9514 2.66305 28.8093 2.76158 28.7496 2.82951C28.6895 2.89745 28.0718 3.945 27.3764 5.15747L26.1126 7.36147C26.11 8.05794 26.1256 8.1155 26.2651 8.29597C26.3506 8.40591 26.514 8.53764 26.6281 8.58898C26.7422 8.6398 26.9174 8.68129 27.017 8.68129C27.1171 8.68129 27.2919 8.63824 27.406 8.58587C27.52 8.53297 27.6627 8.43444 27.7223 8.3665C27.7825 8.29857 28.4001 7.25101 29.095 6.03907L30.3593 3.83506C30.3619 3.13807 30.3464 3.08051 30.2063 2.90056C30.1208 2.7901 29.9574 2.65838 29.8433 2.60756C29.7292 2.55622 29.5545 2.51473 29.4544 2.51473C29.3548 2.51473 29.1795 2.55777 29.0654 2.61067Z" fill="white"/>
</svg>
