<svg width="38" height="40" viewBox="0 0 38 40" fill="none" xmlns="http://www.w3.org/2000/svg">
<path d="M32.9671 1.08486C33.8841 0.878536 35.33 0.552413 36.1801 0.359401C37.0236 0.166389 37.7398 0.00665557 37.7666 0C37.7933 0 37.867 0.046589 37.9205 0.113145C37.9808 0.1797 38.0142 0.286189 37.9942 0.359401C37.9741 0.432612 37.8201 1.1381 37.6461 1.92346C37.4787 2.71547 37.1775 4.10649 36.9767 5.0183C36.7759 5.93677 36.5751 6.72213 36.5282 6.76872C36.4813 6.82197 36.4144 6.85524 36.3809 6.85524C36.3408 6.84859 35.9659 6.5025 34.7744 5.32446L26.9092 13.1448C22.5783 17.4509 18.9837 20.9983 18.9101 21.0383C18.7896 21.0982 18.4147 20.7521 12.2497 14.6023L7.10884 19.7205C2.53696 24.2729 1.9546 24.8253 1.8408 24.7654C1.76717 24.7321 1.31868 24.3128 0.850116 23.8469C0.381548 23.3744 0 22.9484 0 22.8885C0 22.8353 2.73108 20.0732 6.0713 16.7521C9.41152 13.431 12.1895 10.7088 12.2497 10.7088C12.3033 10.7088 13.8027 12.1597 18.8097 17.1314L32.7261 3.28785L31.963 2.52246C31.5413 2.10316 31.1932 1.73045 31.1932 1.69051C31.1932 1.65724 31.2133 1.59068 31.2401 1.54409C31.2669 1.49751 32.0433 1.29118 32.9671 1.08486Z" fill="white"/>
<path d="M29.8143 13.7504C31.8358 11.8403 33.7369 10.0499 34.0448 9.76373C34.3594 9.47754 34.6606 9.24459 34.741 9.24459C34.8146 9.24459 34.915 9.3178 34.9752 9.39767C35.0623 9.53078 35.0756 11.2945 35.0756 39.6606L34.741 39.9933H26.1729L25.8382 39.6606L25.8516 28.6656L25.8517 28.6052C25.8716 17.7965 25.8719 17.6635 26.0055 17.4443C26.0791 17.3245 27.7928 15.6672 29.8143 13.7504Z" fill="white"/>
<path d="M10.9619 19.6017L10.9913 19.574C11.2925 19.3012 11.4933 19.1614 11.6071 19.1614C11.7142 19.1614 11.8079 19.2146 11.8481 19.2945C11.8882 19.3877 11.915 22.9484 11.915 39.7271L11.7276 39.8669C11.5468 40 11.4866 40 7.24272 39.98C3.22642 39.9667 2.93859 39.9534 2.8248 39.8469C2.71769 39.7338 2.711 39.3943 2.711 33.6905C2.711 28.1065 2.71769 27.6339 2.8248 27.4143C2.89173 27.2879 3.71507 26.4493 4.73253 25.4909C5.71653 24.5591 7.43015 22.9418 8.53463 21.8968C9.60013 20.8824 10.6656 19.8803 10.9619 19.6017Z" fill="white"/>
<path d="M18.8097 24.6256C18.8632 24.6256 19.8539 23.6805 21.0186 22.5225C22.518 21.0383 23.174 20.426 23.2744 20.426C23.3615 20.426 23.4552 20.4859 23.4953 20.5591C23.5355 20.6522 23.5623 23.9933 23.5556 30.1963C23.5556 35.421 23.5355 39.7271 23.5087 39.7671C23.4819 39.8136 23.3882 39.8802 23.3079 39.9201C23.2008 39.9734 21.9892 40 18.9569 40H18.9566C14.8335 40 14.7532 40 14.3917 39.7271V30.3095C14.3917 21.8369 14.3984 20.8852 14.4921 20.792C14.5524 20.7388 14.6126 20.6922 14.626 20.6922C14.6461 20.6922 14.7398 20.7388 14.8402 20.7854C14.9406 20.8386 15.851 21.7238 16.8684 22.7554C17.8792 23.787 18.7494 24.6256 18.8097 24.6256Z" fill="white"/>
</svg>
