<svg width="40" height="40" viewBox="0 0 40 40" fill="none" xmlns="http://www.w3.org/2000/svg">
<path fill-rule="evenodd" clip-rule="evenodd" d="M19.4834 0.0825833C19.3982 0.126969 17.1712 1.41003 14.5338 2.93361C11.5171 4.67653 9.70813 5.75108 9.65652 5.83056C9.58272 5.94411 9.57136 6.53764 9.54814 11.4278L9.52233 16.8976C2.28278 21.0787 0.1409 22.3457 0.0918685 22.4108C0.00825779 22.5212 0.00258052 22.9145 0.00154828 28.3229L0 34.1163C0.180124 34.3155 2.42729 35.6393 5.10954 37.1867C9.18118 39.535 10.0188 39.9995 10.1804 40C10.2872 40 10.4498 39.9613 10.5417 39.9148C10.634 39.8679 12.7419 38.6566 15.2254 37.2223C17.7095 35.7885 19.7646 34.6159 19.793 34.6164C19.8214 34.6169 21.9411 35.8288 24.5026 37.3085C28.6821 39.7234 29.1832 39.9995 29.3799 39.9984C29.5745 39.9969 30.1525 39.6779 34.4967 37.1727C38.2653 34.9994 39.4158 34.3129 39.4896 34.1937C39.5819 34.0451 39.5861 33.8092 39.5861 28.3229C39.5861 23.5989 39.5742 22.5821 39.5159 22.465C39.4607 22.354 38.4124 21.7259 34.7145 19.5876L29.9837 16.8522C29.9863 6.86692 29.975 5.96475 29.9141 5.84605C29.8583 5.73611 28.9324 5.17871 25.8238 3.38366C23.6144 2.1073 21.3878 0.823724 20.8769 0.531086C20.255 0.17445 19.8968 -0.0010277 19.793 4.52724e-06C19.7079 0.00103676 19.5685 0.0381974 19.4834 0.0825833ZM10.8648 16.1028C10.8503 16.1028 10.8395 14.1168 10.8405 11.689L10.8426 7.27516L11.0882 7.41813C11.2235 7.49658 12.9411 8.4901 14.9054 9.62556C17.6383 11.2054 18.4615 11.704 18.4124 11.7483C18.3773 11.7809 16.6705 12.7733 14.6195 13.9547C12.5684 15.1361 10.8787 16.1028 10.8648 16.1028ZM21.1241 11.7045C21.1303 11.6838 22.819 10.6929 24.8768 9.50169C26.935 8.31049 28.648 7.33452 28.6831 7.33246C28.7342 7.32936 28.7476 8.23875 28.7476 11.7158C28.7476 14.1287 28.7306 16.1023 28.7089 16.1018C28.6878 16.1013 26.9701 15.1196 24.8917 13.9212C22.8133 12.7222 21.1179 11.7246 21.1241 11.7045ZM11.512 17.2383C11.513 17.2238 13.2141 16.2318 15.292 15.0334C17.3704 13.8355 19.088 12.8539 19.1092 12.8528C19.1309 12.8518 19.1479 14.8368 19.1479 21.6769L18.2824 21.1736C17.806 20.897 16.0878 19.904 14.4636 18.9673C12.8394 18.0305 11.5114 17.2522 11.512 17.2383ZM20.4769 21.6237C20.4557 21.6247 20.4382 19.6511 20.4382 17.2383C20.4382 14.8254 20.4501 12.8513 20.464 12.8513C20.4784 12.8513 22.1682 13.8185 24.2187 15.0004C26.2698 16.1828 27.9755 17.1753 28.0091 17.2068C28.0545 17.2496 27.1105 17.8179 24.293 19.4431C22.2157 20.642 20.4986 21.6232 20.4769 21.6237ZM21.1453 22.7483C21.168 22.7277 23.01 21.6552 25.2381 20.3654C27.4666 19.0756 29.319 18.0186 29.3541 18.0166C29.3897 18.014 31.2828 19.0839 37.7022 22.7741L37.4958 22.8908C37.3823 22.9553 35.5129 24.0329 33.3411 25.2855C31.1698 26.5387 29.3696 27.5549 29.3412 27.5441C29.3128 27.5332 27.4481 26.4582 25.1968 25.1555C22.9455 23.8523 21.1225 22.7695 21.1453 22.7483ZM1.22939 28.7177C1.22526 26.1036 1.23558 23.9524 1.2521 23.9369C1.26861 23.9214 3.14211 24.9805 9.54659 28.6702L9.54762 33.4572C9.54814 36.2618 9.52904 38.239 9.50169 38.2313C9.4764 38.224 7.60651 37.15 1.23765 33.4701L1.22939 28.7177ZM11.546 28.3435C11.5233 28.3244 13.2188 27.317 15.3137 26.1046L19.1221 23.9008L19.134 28.2981C19.1401 30.7171 19.1401 32.7016 19.134 32.7088C19.1272 32.7161 17.4266 31.7442 15.3544 30.5499C13.2822 29.3556 11.5682 28.3626 11.546 28.3435ZM30.0126 28.6836L34.1416 26.294C36.4125 24.98 38.288 23.9023 38.3092 23.9003C38.3304 23.8977 38.3479 26.0442 38.3479 33.4438L38.1544 33.5697C38.048 33.6384 36.1838 34.7191 34.0125 35.9707C31.8407 37.2223 30.0467 38.2457 30.0255 38.2452C30.0044 38.2442 29.9925 36.093 30.0126 28.6836ZM10.89 38.2307C10.8565 38.2395 10.8405 36.7366 10.8431 33.8283C10.8467 30.3012 10.8606 29.4212 10.9122 29.4542C10.9478 29.4769 12.6634 30.4709 14.7248 31.6627C16.7856 32.8544 18.4723 33.8412 18.4728 33.8562C18.4728 33.8706 16.7784 34.8579 14.7072 36.0502C12.6361 37.2424 10.9184 38.224 10.89 38.2307Z" fill="white"/>
</svg>
